<svg xmlns="http://www.w3.org/2000/svg" xmlns:xlink="http://www.w3.org/1999/xlink" width="277" height="221" viewBox="0 0 277 221">
  <defs>
    <clipPath id="clip-icon_3">
      <rect width="277" height="221"/>
    </clipPath>
  </defs>
  <g id="icon_3" data-name="icon 3" clip-path="url(#clip-icon_3)">
    <rect width="277" height="221" fill="#fff"/>
    <g id="Group_4410" data-name="Group 4410" transform="translate(-23.555 -83.753)">
      <path id="Path_7678" data-name="Path 7678" d="M314.942,352.339l-.012.009c-4.7,2.951-11.155,5.22-19.858,6.387-3.723.5-15.936,1.077-23.649,7.623-4.709,4-10.623,10.85-27.552,13.611-32.831,5.347-76.357-13.549-83.7-41.16a73.08,73.08,0,0,1-2.7-15.868,46.7,46.7,0,0,1,.766-10.181c.215-1.313.433-2.58.591-3.888.492-4.043.426-8.479-1.98-15.933a58.521,58.521,0,0,1-1.612-6c-1.59-7.529-1.04-13.443.931-18.573a35.291,35.291,0,0,1,5.41-9.185c.227-.289.458-.576.685-.856,14.14-17.365,28.449-16.68,45.966-7.548,10.766,5.609,19,7.451,30.419,3.057,11.635-4.476,24.583-5.945,34.664-2.456a26.745,26.745,0,0,1,6.374,3.172c5.254,3.579,9.07,9.2,10.489,17.3,5.727,32.719,25.068,26.566,33.606,49.132.059.159.118.317.177.479a35.227,35.227,0,0,1,1.656,6.2C327.069,336.2,325.2,345.893,314.942,352.339Z" transform="translate(-65.822 -107.343)" fill="#d5ecff"/>
      <g id="Group_4343" data-name="Group 4343" transform="translate(58.745 88.59)">
        <circle id="Ellipse_214" data-name="Ellipse 214" cx="9.204" cy="9.204" r="9.204" transform="translate(188.742 88.381)" fill="#1b89e5"/>
        <circle id="Ellipse_215" data-name="Ellipse 215" cx="6.613" cy="6.613" r="6.613" transform="translate(67.023 190.247) rotate(-45)" fill="#78c5ef"/>
        <circle id="Ellipse_216" data-name="Ellipse 216" cx="3.229" cy="3.229" r="3.229" transform="translate(19.754 93.068)" fill="#78c5ef"/>
        <circle id="Ellipse_217" data-name="Ellipse 217" cx="3.656" cy="3.656" r="3.656" transform="translate(193.67 75.659) rotate(-79.215)" fill="#78c5ef"/>
        <circle id="Ellipse_218" data-name="Ellipse 218" cx="5.134" cy="5.134" r="5.134" transform="translate(171.161 173.225)" fill="#1b89e5"/>
        <circle id="Ellipse_219" data-name="Ellipse 219" cx="5.818" cy="5.818" r="5.818" transform="translate(117.261 32.932)" fill="#78c5ef"/>
        <path id="Path_7679" data-name="Path 7679" d="M174.48,426.765a4.46,4.46,0,0,0-1.616.265.472.472,0,0,0-.242.6,26.521,26.521,0,0,0,1.264,2.428c.139.263.323.2.407-.088,0,0,.417-1.743.5-2.588C174.82,427.143,174.721,426.783,174.48,426.765Z" transform="translate(-137.155 -321.502)" fill="#fff"/>
        <path id="Path_7680" data-name="Path 7680" d="M187.767,427.3a6.554,6.554,0,0,0-2.187-1.013.693.693,0,0,0-.792.532,39.08,39.08,0,0,0-.468,4c-.048.435.231.507.569.229,0,0,1.949-1.777,2.751-2.736C187.868,428.04,188.046,427.52,187.767,427.3Z" transform="translate(-145.231 -321.162)" fill="#fff"/>
        <path id="Path_7681" data-name="Path 7681" d="M181.762,278.385a16.547,16.547,0,0,0,.261,5.052s-.006.012-.009.022c1.852,6.3,2.658,12.864-5.428,15.279-8.553,2.555-11.862-3.162-13.966-9.437a.059.059,0,0,1-.025-.012c-.8-1.114-4.663-7.632-10.829-11.4a.092.092,0,0,1-.025-.012,47.174,47.174,0,0,1,2.932-9.9,35.441,35.441,0,0,1,5.338-9c9.048-11.495,18.149-15.525,28.1-14.61,1.152,6.714-.383,14.066-2.91,19.78A39.363,39.363,0,0,0,181.762,278.385Z" transform="translate(-122.796 -195.795)" fill="#c6cbcc" style="mix-blend-mode: multiply;isolation: isolate"/>
        <path id="Path_7682" data-name="Path 7682" d="M159.433,463.333a1.414,1.414,0,0,1-1.852,1.133c-1.158-.28-3.057-2.509-3.934-3.278a12.625,12.625,0,0,1-1.161-1.18l-.168-.2c-.408-.473-.8-.962-1.189-1.441-.065-.078-.131-.159-.2-.237-.19-.23-.38-.454-.57-.669a13.764,13.764,0,0,1-2.3-2.885c-.495-1.516.61-1.892,1.03-1.833a4.624,4.624,0,0,1,2.331,1.214l.174.149a25.678,25.678,0,0,1,2,1.821,18.628,18.628,0,0,1,1.466,1.734,23.823,23.823,0,0,0,2.378,3.346C157.983,461.459,159.527,462.592,159.433,463.333Z" transform="translate(-120.176 -339.398)" fill="#ff977b"/>
        <path id="Path_7683" data-name="Path 7683" d="M160.013,458.394c-.037,1.678-.666,3.819-1.068,4.056-.408-.473-.8-.962-1.189-1.441-.065-.078-.131-.159-.2-.237a12.124,12.124,0,0,0,.451-4.2A26.407,26.407,0,0,1,160.013,458.394Z" transform="translate(-126.804 -342.035)" fill="#ff7364"/>
        <path id="Path_7684" data-name="Path 7684" d="M259.666,510.2c1.653,6.2,7.482,9.116,11.8,4.594a35.132,35.132,0,0,0,2.615-3.7,219.7,219.7,0,0,0,9.58-20.054,154.122,154.122,0,0,0,7.09-20.007c1.061-4.062,2.757-12.747-3.412-15.038-6.536-2.428-11.22,5.613-12.282,9.563C268.244,490.953,258.041,504.116,259.666,510.2Z" transform="translate(-197.01 -341.33)" fill="#3c3854"/>
        <path id="Path_7685" data-name="Path 7685" d="M300.976,537.325a.672.672,0,0,0,1.247.341l.014-.023a219.7,219.7,0,0,0,9.58-20.054,204.74,204.74,0,0,0-5.726-23.5c-9.285,7.428.033,27.564-1.523,30.054s-4.158-.14-4.2,4.877C300.337,532.247,300.924,535.094,300.976,537.325Z" transform="translate(-225.16 -367.878)" fill="#2d2b47"/>
        <path id="Path_7686" data-name="Path 7686" d="M365.012,459.19c-.57,4-3.293,8-3.937,13.247-.713,5.83-1.516,12.1-2.512,18.059-1.055,6.34-2.559,14.106-4.168,18.853a9.906,9.906,0,0,1-1.018.679l0,0c-.146.04-.293.078-.442.115a56.167,56.167,0,0,1-5.525,1.117,85.507,85.507,0,0,1-16.416.9q-2.759-.112-5.537-.4c-1.108-.115-2.219-.252-3.327-.414a98.962,98.962,0,0,1-10.682-2.216c-.233-.062-.461-.124-.685-.187a42.06,42.06,0,0,1-6.409-2.305c6.826-18.878,3.667-38.145,3-50.972-.177-3.424,1.114-11.214,6.29-13.813,8.061-4.046,11.526-5.422,21.589-6.611,7.237-.853,18.289,5.509,22.429,8.295a29.116,29.116,0,0,1,4.709,4.267C364.352,450.335,365.756,453.958,365.012,459.19Z" transform="translate(-227.905 -327.292)" fill="#3c3854"/>
        <path id="Path_7687" data-name="Path 7687" d="M326.488,327.34c.024,8,8.035,11.038,8.035,11.038l0-13.724Z" transform="translate(-243.152 -251.179)" fill="#2c2a3f"/>
        <path id="Path_7688" data-name="Path 7688" d="M381.877,405.474s.558,2.081.665,2.614a10.519,10.519,0,0,1-1.152,6.745c-1.5,2.937,4.518,4.874,10,3.585s5.582-4.825,5.283-6.619c-.139-.833-1.482-8,1.061-13.556.312-.682-3.013.171-3.593,0-2.264-.667-8.9,4.119-11.7,5.544A1.259,1.259,0,0,0,381.877,405.474Z" transform="translate(-280.803 -301.677)" fill="#ff7364"/>
        <path id="Path_7689" data-name="Path 7689" d="M375.644,413.2c.164.3.313.6.443.889l0,0c.06.025.117.046.174.071.178.068.353.132.531.194.224.075.448.148.673.211.128.038.255.076.383.107l.116.031c.1.025.192.05.29.073a9.71,9.71,0,0,1,.487,1.638,8.544,8.544,0,0,1,.169,1.468,6.663,6.663,0,0,0,1.09.328,7.17,7.17,0,0,0,8.042-4.1c.02-.039.036-.081.053-.123a6.9,6.9,0,0,0,.5-1.946c.065-.619.141-1.318.231-2.123a29.977,29.977,0,0,1-9.106,3.1c-.842.1-1.574.165-2.215.192A16.119,16.119,0,0,1,375.644,413.2Z" transform="translate(-277.008 -309.902)" fill="#ed4850"/>
        <path id="Path_7690" data-name="Path 7690" d="M374.335,309.271c0,.045-.009.087-.016.133a43.8,43.8,0,0,1-1.739,8.226c-.067.212-.141.42-.214.621-1.655,4.553-3.56,8.647-7.975,11.079a15.878,15.878,0,0,1-4.929,1.719c-.184.032-.366.057-.548.083-.108.014-.213.028-.319.039s-.214.025-.32.033c-.062.008-.121.013-.184.016l-.178.015c-.1.007-.207.011-.31.018a15.076,15.076,0,0,1-2.8-.128l-.056-.008c-.1-.013-.2-.026-.3-.041a1.112,1.112,0,0,1-.14-.021,13.911,13.911,0,0,1-2.409-.649c-.134-.05-.267-.1-.4-.155a10.573,10.573,0,0,1-2.564-1.478.4.4,0,0,1-.042-.036,10.927,10.927,0,0,1-3.362-4.855c-1.407-3.762-1.477-8.337-2.061-12.24-.274-1.83-.7-3.6-1.031-5.345l-.006-.03a15.824,15.824,0,0,1,0-7.428s0-.01,0-.013a11.089,11.089,0,0,1,.938-2.271,14.76,14.76,0,0,1,10.307-7.386c4.934-.795,10.609-.866,14.907,2.071C374.085,294.986,375.072,302.438,374.335,309.271Z" transform="translate(-253.832 -226.412)" fill="#ff977b"/>
        <path id="Path_7691" data-name="Path 7691" d="M374.633,356.506a.211.211,0,0,0-.412-.014,14.128,14.128,0,0,1-1.495,3.5c-1.077,1.93-.13,3.148,1.975,3.282,1.5.095,1.227-.931.3-.836-1.29.133-2.4-.82-1.391-2.442A5.431,5.431,0,0,0,374.633,356.506Z" transform="translate(-274.69 -272.996)" fill="#ff7364"/>
        <path id="Path_7692" data-name="Path 7692" d="M369.239,383.645a1.4,1.4,0,0,0,.322.737c.024.027.051.05.078.077a3.137,3.137,0,0,0,1.483.876,8.934,8.934,0,0,0,4.321-.3c.1-.032.2-.07.3-.107a3.331,3.331,0,0,0,1.639-1.289,3.6,3.6,0,0,0,.516-1.344,5.111,5.111,0,0,0,.07-.647c0-.009,0-.016,0-.022a7.118,7.118,0,0,0-.258-2.077.389.389,0,0,0-.569-.24c-.056.032-.114.065-.174.1-1.986,1.032-6.089,1.484-8.481,1.235-.245-.023-.458-.1-.555.017C367.68,380.946,368.763,381.033,369.239,383.645Z" transform="translate(-271.667 -288.785)" fill="#2c2a3f"/>
        <path id="Path_7693" data-name="Path 7693" d="M362.732,472.381c3.793-.36,5.746-2.391,7.353-4.2,16.793-18.918,11.172-33.222,11.166-33.138-10.459,6.74-14.1,4.886-15.356-1.117-3.319,3.325-5.374,2.391-6.833,17.943C358.581,457,360.942,472.551,362.732,472.381Z" transform="translate(-265.544 -326.437)" fill="#d3dfe2"/>
        <path id="Path_7694" data-name="Path 7694" d="M274.868,581.367c7.074,1.685,8.647,4.585,6.6,6.035S274.868,581.367,274.868,581.367Z" transform="translate(-207.599 -427.988)" fill="#2d2b47"/>
        <path id="Path_7695" data-name="Path 7695" d="M459.13,480.07c-5.112,1.355-16.621,7.392-5.437,31.529Z" transform="translate(-327.509 -358.22)" fill="#2d2b47"/>
        <path id="Path_7696" data-name="Path 7696" d="M481.365,523.088q-.579.425-1.127.89c-3.175,2.7-7.455,6.854-14.725,10.013-.333-4.775-.918-12.593-1.675-16.857-1.681-9.456-4.025-18.513-5.428-24.81a40.84,40.84,0,0,1-1.208-7.234c0-4.009.4-9.129,4.137-11.162a8.982,8.982,0,0,1,4.435-.439A4.121,4.121,0,0,1,468.4,474.8C475.177,483.055,479.587,505.437,481.365,523.088Z" transform="translate(-333.181 -353.618)" fill="#3c3854"/>
        <path id="Path_7697" data-name="Path 7697" d="M391.483,578.993l.192-.04q.544-.112,1.073-.232l.232-.053q1.431-.331,2.757-.711c2.366-4.936,3.038-12.624,4.087-18.921-1.681-9.456-4.025-18.513-5.428-24.81a15.228,15.228,0,0,0,.168,11.933c1.045,2.632,1.814,8.01,1.774,13.371-6.646,7.325-16.308,1.231-16.119,8.65.155,6.005,3.608,8.348,5.379,9.157-.131.045-.262.091-.4.135a111.049,111.049,0,0,0-15.358-1.093c-9.033-.089-5.739,2.051.249,3.531-1.346.035-2.673.025-3.959-.033l.582.112q2.771.289,5.534.4h.03c.6.024,1.195.04,1.791.052l.547.009q.806.011,1.61.008l.312,0c.556,0,1.11-.016,1.664-.031l.564-.018q.806-.028,1.609-.069l.287-.015q.835-.047,1.667-.112l.525-.042c.565-.046,1.13-.1,1.692-.155l.142-.014c.58-.06,1.157-.129,1.733-.2l.468-.06c.595-.078,1.189-.16,1.78-.25.424-.064.839-.134,1.251-.205l.4-.07C390.71,579.144,391.1,579.07,391.483,578.993Z" transform="translate(-269.167 -395.519)" fill="#2d2b47"/>
        <g id="Group_4337" data-name="Group 4337" transform="translate(93.674 112.927)">
          <path id="Path_7698" data-name="Path 7698" d="M389.621,454.723c-2.072,3.475-3.217,3.891-3.217,3.891s-2.379-.087-2.7-.493c-.681-2.195-1.013-4.24.024-5.745s3.439-.816,3.439-.816S390.432,453.363,389.621,454.723Z" transform="translate(-375.796 -451.403)" fill="#ed4850"/>
          <path id="Path_7699" data-name="Path 7699" d="M370.763,469.377c-.757,6.512-.842,18.182.506,22.177,0,0-5.066,5.454-7.971,4.669s-3.6-7-3.6-7,5.115-16.842,8.2-20.776C368.924,467.141,370.674,468.665,370.763,469.377Z" transform="translate(-359.701 -462.789)" fill="#ed4850"/>
        </g>
        <path id="Path_7700" data-name="Path 7700" d="M370.124,442.058c.645.641,3.522-3.593,4.717-4.339,1.156-.721,2.67-1.084,3.709.428,1.645,2.223,2.122,5.59,3.774,5.754a6.44,6.44,0,0,0,4.327-2c1.909-2,2.56-7.474,2.56-9.162a5,5,0,0,0-1.243-2.3c-1.735,3.264-6.616,5.9-10.623,5.795a3.289,3.289,0,0,1-2.9-3.891,6.843,6.843,0,0,0-.188-1.9c-.48-.113-1.9,1.678-2.174,2.089C370.639,434.711,367.572,439.522,370.124,442.058Z" transform="translate(-272.53 -324.04)" fill="#fff"/>
        <path id="Path_7701" data-name="Path 7701" d="M341.9,443.707c-1.267,14.038,4.8,23.057,8.365,26.792.45.471,1.391.135,1.13-1.067a47.21,47.21,0,0,1-2.269-26.916c.432-2.033,1.869-9.669,6.4-11.485a2.935,2.935,0,0,0-.18-.883c-.1-.2-9.266,2.369-12.171,10.11-.376,1,.959.891,1.4.908C344.8,441.173,342.007,442.539,341.9,443.707Z" transform="translate(-253.65 -323.828)" fill="#2d2b47"/>
        <path id="Path_7702" data-name="Path 7702" d="M362.2,576.188a1.868,1.868,0,1,0,1.868-1.867A1.868,1.868,0,0,0,362.2,576.188Z" transform="translate(-267.748 -423.134)" fill="#2d2b47"/>
        <path id="Path_7703" data-name="Path 7703" d="M356.2,617.188a1.868,1.868,0,1,0,1.868-1.868A1.868,1.868,0,0,0,356.2,617.188Z" transform="translate(-263.616 -451.373)" fill="#2d2b47"/>
        <path id="Path_7704" data-name="Path 7704" d="M361.2,574.188a1.868,1.868,0,1,0,1.868-1.867A1.868,1.868,0,0,0,361.2,574.188Z" transform="translate(-267.06 -421.757)" fill="#fff"/>
        <path id="Path_7705" data-name="Path 7705" d="M355.2,615.188a1.868,1.868,0,1,0,1.867-1.867A1.868,1.868,0,0,0,355.2,615.188Z" transform="translate(-262.927 -449.995)" fill="#fff"/>
        <path id="Path_7706" data-name="Path 7706" d="M374.136,307.512c.07,1.292.131,2.573.146,3.848,0,.035,0,.066,0,.1a25.315,25.315,0,0,1-1.29,9.047c-1.483,4.093-3.5,8.044-7.38,10.328A18.367,18.367,0,0,1,361.6,332.6a17.228,17.228,0,0,1-2.172.507c-.184.032-.366.057-.548.083-.108.014-.213.028-.319.039s-.214.025-.32.033c-.062.008-.121.013-.184.016l-.178.015c-.1.007-.207.011-.31.018a15.076,15.076,0,0,1-2.8-.128l-.056-.008c-.1-.013-.2-.026-.3-.041a1.116,1.116,0,0,1-.14-.021,13.915,13.915,0,0,1-2.409-.649c-.134-.05-.267-.1-.4-.155a10.633,10.633,0,0,1-2.443-1.384.517.517,0,0,1-.209-.426.771.771,0,0,1,1.024-.722,15.993,15.993,0,0,0,6.162.869c3.977-.266,8.443-1.9,10.769-5.114,1.481-2.048,2.6-4.056,3.559-9.477.279-1.574.343-3.263-.189-7.848-.007-.053-3.72-1.738-4.224-7.625a.309.309,0,0,0-.436-.259c-3.341,1.57-9.89,1.59-13.412.923a.305.305,0,0,0-.358.23c-.316,1.334-1.577,6.774-8.826,6.863-.006,0-.494.014-.5.016a15.8,15.8,0,0,1,0-7.441l.012-.018c.043-.072.1-.145.146-.215,1.67-2.268,4.866-3.852,7.31-5.105,2.216-1.137,4.517-2.084,6.738-3.209s5.67-.625,8.038-.139a10.621,10.621,0,0,1,6.059,3.427C373.462,298.933,373.913,303.4,374.136,307.512Z" transform="translate(-253.796 -228.469)" fill="#ff7364"/>
        <path id="Path_7707" data-name="Path 7707" d="M397.116,327.978a18.666,18.666,0,0,0-6.042.5.6.6,0,0,1-.773-.582c.017-.617.371-1.422,1.96-1.769a7.866,7.866,0,0,1,4.535.124,1.636,1.636,0,0,1,.957.978A.59.59,0,0,1,397.116,327.978Z" transform="translate(-287.103 -252.012)" fill="#ff7364"/>
        <path id="Path_7708" data-name="Path 7708" d="M396.741,326.013a18.667,18.667,0,0,0-6.042.5.6.6,0,0,1-.772-.582c.017-.617.371-1.423,1.959-1.769a7.864,7.864,0,0,1,4.535.124,1.635,1.635,0,0,1,.957.978A.589.589,0,0,1,396.741,326.013Z" transform="translate(-286.845 -250.659)" fill="#2c2a3f"/>
        <path id="Path_7709" data-name="Path 7709" d="M311.738,275.42a9.641,9.641,0,0,0,2.326,3.7,4.642,4.642,0,0,0,3.116,1.5l.319,0,.318-.013c4.2-.219,8.653-2.377,10.364-6.288.069-.153.241-.483.44-.867.37-.714.844-1.616.949-1.915l.006-.02c.024.027.045.055.073.081a5.017,5.017,0,0,0,.577.568,6.492,6.492,0,0,0,1.21.789,10.881,10.881,0,0,0,1.937.767l.044.014c2.849.83,11.714-2.25,12.415-3.088.531,2.156.732,4.031,1.712,5.657.821,1.361,1.806,3.229,3.347,3.879.021.009.035.019.049.022.533.673-1.233,5.243-.408,6.572,2.112,3.4,6.827,3.245,10.117,1.913,2.395-.97,5.341-3.029,5.211-5.811a7.04,7.04,0,0,0-.792-3.264,5.928,5.928,0,0,0-1.934-2.077,2.34,2.34,0,0,1-.84-2.786c3.158-8-1.507-18.84-16.172-16.565a2.431,2.431,0,0,1-2.249-.857c-5.932-7.238-20.34-3.042-19.357,5.2a2.7,2.7,0,0,1-2.925,3.05,11.859,11.859,0,0,0-5.143.384,8,8,0,0,0-4.361,3.379,6.357,6.357,0,0,0-.833,2.789A8.287,8.287,0,0,0,311.738,275.42Z" transform="translate(-232.647 -202.242)" fill="#3c3854"/>
        <path id="Path_7710" data-name="Path 7710" d="M350.043,335.412a18.666,18.666,0,0,0-5.965,1.083.6.6,0,0,1-.825-.5c-.043-.615.232-1.452,1.779-1.95a7.868,7.868,0,0,1,4.525-.315,1.635,1.635,0,0,1,1.047.881A.59.59,0,0,1,350.043,335.412Z" transform="translate(-254.695 -257.281)" fill="#ff7364"/>
        <path id="Path_7711" data-name="Path 7711" d="M349.62,333.2a18.665,18.665,0,0,0-5.965,1.083.6.6,0,0,1-.825-.5c-.043-.615.232-1.452,1.779-1.95a7.869,7.869,0,0,1,4.526-.315,1.635,1.635,0,0,1,1.047.88A.59.59,0,0,1,349.62,333.2Z" transform="translate(-254.404 -255.757)" fill="#2c2a3f"/>
        <path id="Path_7712" data-name="Path 7712" d="M402.939,344.4c-.641-3.35-4.091-2.245-4.238-.486-.115,1.378.724,3.026,2.258,3.015C402.9,346.912,403.187,345.7,402.939,344.4Z" transform="translate(-292.881 -263.284)" fill="#fff"/>
        <path id="Path_7713" data-name="Path 7713" d="M402.953,346.168c.127,1.1.415,1.971,1.695,1.824,1.009-.116,1.376-1.049,1.249-2.15s-.83-1.938-1.709-1.836S402.826,345.067,402.953,346.168Z" transform="translate(-295.803 -264.501)" fill="#2c2a3f"/>
        <g id="Group_4338" data-name="Group 4338" transform="translate(105.248 78.369)">
          <path id="Path_7714" data-name="Path 7714" d="M401.884,342.38a.537.537,0,0,0,.341-.03c.213-.145.185-.393.042-.607a3.424,3.424,0,0,0-3.059-1.346,2.426,2.426,0,0,0-2.288,1.575.558.558,0,0,0,.368.729c.562.283.614-1.312,2.085-1.45C400.223,341.17,400.741,341.48,401.884,342.38Z" transform="translate(-396.886 -340.375)" fill="#2c2a3f"/>
        </g>
        <path id="Path_7715" data-name="Path 7715" d="M402.133,347.156a.374.374,0,1,0,.3-.383A.347.347,0,0,0,402.133,347.156Z" transform="translate(-295.249 -266.407)" fill="#fff"/>
        <path id="Path_7716" data-name="Path 7716" d="M357.981,347.9a2.1,2.1,0,0,0-4.162-.026c-.087,1.372.893,3.078,2.313,3.089C357.928,350.973,358.336,349.169,357.981,347.9Z" transform="translate(-261.972 -265.908)" fill="#fff"/>
        <path id="Path_7717" data-name="Path 7717" d="M358.253,350.7c.127,1.1.415,1.971,1.695,1.824,1.01-.116,1.376-1.049,1.249-2.15s-.83-1.938-1.709-1.836S358.126,349.595,358.253,350.7Z" transform="translate(-265.016 -267.619)" fill="#2c2a3f"/>
        <g id="Group_4339" data-name="Group 4339" transform="translate(91.285 79.703)">
          <path id="Path_7718" data-name="Path 7718" d="M357.026,346.666a.54.54,0,0,0,.342-.03c.213-.145.185-.393.041-.607a3.423,3.423,0,0,0-3.059-1.346,2.425,2.425,0,0,0-2.288,1.575.559.559,0,0,0,.368.729c.562.283.614-1.312,2.085-1.45C355.365,345.456,355.883,345.765,357.026,346.666Z" transform="translate(-352.028 -344.661)" fill="#2c2a3f"/>
        </g>
        <path id="Path_7719" data-name="Path 7719" d="M357.434,351.684a.373.373,0,1,0,.3-.383A.347.347,0,0,0,357.434,351.684Z" transform="translate(-264.462 -269.525)" fill="#fff"/>
        <path id="Path_7720" data-name="Path 7720" d="M373.528,388.4c-.079.109-.081.175-.054.2a3.19,3.19,0,0,0,1.493.9,8.9,8.9,0,0,0,4.311-.319c.1-.032.2-.07.3-.107a3.6,3.6,0,0,0,1.674-1.182,3.041,3.041,0,0,0,.6-1.937c0-.009-.018-.416-.05-.585C379.234,384.824,374.811,386.62,373.528,388.4Z" transform="translate(-275.502 -292.924)" fill="#ed4850"/>
        <path id="Path_7721" data-name="Path 7721" d="M369.784,380.967a3.221,3.221,0,0,0,3.341,1.464c2.281-.35,4.364-1.054,5.143-2.7C376.281,380.762,372.178,381.215,369.784,380.967Z" transform="translate(-272.972 -289.111)" fill="#fff"/>
        <path id="Path_7722" data-name="Path 7722" d="M311.729,306.662a9.609,9.609,0,0,0,2.335,3.7,4.668,4.668,0,0,0,3.131,1.493l.321,0,.319-.013c4.239-.18,8.929-1.923,10.793-5.771a11.266,11.266,0,0,0,.8-2.273c3.745,3.38,9.337,2.149,13.127.868.069-.023.135-.045.2-.07a7.018,7.018,0,0,0,2.3-1.314c.7,3.768.2,4.467,2.54,7.622A5.883,5.883,0,0,0,350.337,313a6.416,6.416,0,0,0,.237,5.466c.918,1.73,3.342,2.018,5.234,2.154a11.5,11.5,0,0,0,6.32-1.3,8.728,8.728,0,0,0,2.57-2.2.913.913,0,0,0-1.107-1.38,4.918,4.918,0,0,1-.751.284,7.63,7.63,0,0,1-3.473.126,8.351,8.351,0,0,1-5.52-3.426,11.5,11.5,0,0,1-1.426-4.146,1.384,1.384,0,0,0-1.255-1.163c-2.5-.207-5.4-3.331-5.08-7.369a.3.3,0,0,0-.5-.248c-2.834,2.5-13.109,6.359-18.272-.446a.933.933,0,0,0-1.645.335,9.549,9.549,0,0,1-3.492,5.63c-3.876,2.215-10.452,1.34-10.1-4.752a6.344,6.344,0,0,0-.84,2.791A8.241,8.241,0,0,0,311.729,306.662Z" transform="translate(-232.641 -233.502)" fill="#2c2a3f"/>
        <path id="Path_7723" data-name="Path 7723" d="M436.265,361.675c-.572,3.113-.2,4.608,2.075,4.634,3.823.044,7.127-3.166,7.077-6.323-.063-4.026-3.159-5.736-5.888-4.442C437.009,356.738,436.659,359.532,436.265,361.675Z" transform="translate(-318.597 -272.16)" fill="#ff7364"/>
        <path id="Path_7724" data-name="Path 7724" d="M446.923,368.967a2.56,2.56,0,0,0-.972-.125,1.915,1.915,0,0,0-.872.279,2.774,2.774,0,0,0-.694.606,3.273,3.273,0,0,0-.275.38,2.477,2.477,0,0,0-.207.387.628.628,0,1,1-1.106-.58l.018-.026a3.675,3.675,0,0,1,.41-.494,4.3,4.3,0,0,1,.453-.412,3.682,3.682,0,0,1,1.073-.6,2.617,2.617,0,0,1,1.22-.13,3.054,3.054,0,0,1,1.107.376.187.187,0,0,1-.134.347Z" transform="translate(-323.184 -281.19)" fill="#ed4850"/>
        <path id="Path_7725" data-name="Path 7725" d="M157.3,458.537a12.124,12.124,0,0,0,.542-2.355c.166-2.393.112-5.871.392-7.969a42.479,42.479,0,0,0,.063-4.336,1.042,1.042,0,0,1,1.668-.741c1.06.765,1.545,2.63,1.34,4.833-.3,3.227-.71,6.953,1.32,7.865l2.559,11.287a37.736,37.736,0,0,1-3.593-2.469C158.1,462.33,157.135,459.351,157.3,458.537Z" transform="translate(-126.61 -332.636)" fill="#ff977b"/>
        <path id="Path_7726" data-name="Path 7726" d="M173.8,471.479a13.608,13.608,0,0,1,3.311,2.211c.07.083.143.168.211.255a18.775,18.775,0,0,1,1.515,2.106,10.621,10.621,0,0,1,1.548,3.718,25.885,25.885,0,0,0,5.391-4.229l0,0c.8-.937,1.281-1.887,1-2.68a20.8,20.8,0,0,0-1.483-2.18,7.93,7.93,0,0,1-1.267-2.823,30.7,30.7,0,0,0-2.709-9.075c-3.346-6.808-1.278-9.055-3.172-9.327s-2.954,1.965-2.011,4.8c.362,1.091,1.606,4.69.457,4.761-2.655.163-3.99-.458-4.531-.345l-.443,3.344-.129.795-1.309,3.059C169.83,467.988,170.443,469.511,173.8,471.479Z" transform="translate(-135.435 -337.116)" fill="#ff977b"/>
        <path id="Path_7727" data-name="Path 7727" d="M194.822,518.24l1.224,2.477,5.716-2.987,0,0c.8-.937,1.281-1.887,1-2.68a28.686,28.686,0,0,1-2.575-4.362c-.7,3.657-4.118,5.178-6.88,5.449Z" transform="translate(-151.424 -379.306)" fill="#ff7364"/>
        <path id="Path_7728" data-name="Path 7728" d="M195.467,499.013c1.432,2.307.679,4.354.443,4.524C195.91,503.537,198.638,502.093,195.467,499.013Z" transform="translate(-152.912 -371.267)" fill="#ff7364"/>
        <path id="Path_7729" data-name="Path 7729" d="M169.48,466.612c.875,1.162,1.23,2.065,2.156,3.285.423.558,1.757,1.265,4.726.878-1.114,2.143-.335,3.835,1.025,5.732.118.319-.163-.412-1.324-.842-.721-.267-3.789.336-5.024-1.027C169.054,472.451,169.48,466.612,169.48,466.612Z" transform="translate(-134.987 -348.951)" fill="#ff7364"/>
        <path id="Path_7730" data-name="Path 7730" d="M167.486,480.826c-2.3-.39-5.753-.3-7.446,1.916a.581.581,0,0,0,.569.926l6.1-1.209Z" transform="translate(-128.427 -358.617)" fill="#ff7364"/>
        <path id="Path_7731" data-name="Path 7731" d="M157.011,486.374a11.545,11.545,0,0,1,8.051-1.562,1.115,1.115,0,0,1,.326,2.106c-1.034.381-3.674.424-4.915,1.2-1.682,1.055-2.389,1.281-3.2,1.224-.459-.032-.82-.131-1.109-.973A1.532,1.532,0,0,1,157.011,486.374Z" transform="translate(-125.766 -361.359)" fill="#ff977b"/>
        <path id="Path_7732" data-name="Path 7732" d="M167.177,490.83a8.749,8.749,0,0,0-4.415,2.3c-.205.225.329,3.486,2.456,2.682,1.647-.623,3.443-1.45,5.154-2.2C171.18,493.247,172.241,489.765,167.177,490.83Z" transform="translate(-130.358 -365.492)" fill="#ff7364"/>
        <path id="Path_7733" data-name="Path 7733" d="M167.949,493.453a.983.983,0,0,1,.7,1.692c-.727.45-2.27.348-3.675,1.094-.541.287-2.258,2.021-3.3,1.561-1.363-.6-1.1-1.788-.633-2.168A9.955,9.955,0,0,1,167.949,493.453Z" transform="translate(-128.945 -367.414)" fill="#ff977b"/>
        <g id="Group_4342" data-name="Group 4342" transform="translate(0)">
          <path id="Path_7734" data-name="Path 7734" d="M206.2,314.471c2.093,6.662,5.279,13.184,14.305,10.489,8.64-2.581,7.129-9.9,5.036-16.564s-7-7.763-12.4-6.068S204.112,307.809,206.2,314.471Z" transform="translate(-159.894 -235.313)" fill="#fff"/>
          <path id="Path_7735" data-name="Path 7735" d="M112.065,167.216c1.073,5.612,4.1,9.376,6.243,12.013a27.761,27.761,0,0,0,7.607,6.509c.942.548,3.947,2.437,4.945,2.872,6.164,3.766,10.024,10.285,10.828,11.4a14.807,14.807,0,0,0,5.1-.211c.6-.1,1.257-.223,1.956-.383.839-.2,1.743-.435,2.709-.738,1.062-.334,2.024-.665,2.893-.992.67-.249,1.285-.5,1.845-.734,3.524-1.5,4.948-2.7,4.928-2.8a16.632,16.632,0,0,1-.262-5.05,39.417,39.417,0,0,1,3.437-14.237c2.963-6.7,4.561-15.65,2.073-23.182-4.683-14.17-20.144-20.748-34.442-16.473C117.082,139.651,109.166,152.047,112.065,167.216Z" transform="translate(-95.061 -119.813)" fill="#ffbc15"/>
          <g id="Group_4340" data-name="Group 4340" transform="translate(33.916 40.912)">
            <path id="Path_7736" data-name="Path 7736" d="M169.989,234.246c2.817,3.264,5.83,4.293,8.5,4.3a166.25,166.25,0,0,1,7.027,20.562c.6-.1,1.257-.223,1.956-.383a171.33,171.33,0,0,0-6.91-20.372,12.858,12.858,0,0,0,1.97-.536,17.51,17.51,0,0,0,4.775-2.7,122.308,122.308,0,0,0,5.767,21.875c.67-.249,1.285-.5,1.845-.734-3.486-9.993-5.189-17.379-5.822-22.684,3.354-3.192,5.73-7.268,5.811-10.056a2.966,2.966,0,0,0-1.75-3.1,3.692,3.692,0,0,0-4.189.6c-1.878,1.784-2.549,5.862-1.945,11.811a16.53,16.53,0,0,1-5.159,3.12,10.719,10.719,0,0,1-2.121.53,70.844,70.844,0,0,0-3.542-6.907c-1.588-2.709-3.6-4.189-5.519-4.058a3.067,3.067,0,0,0-2.66,1.943C167.23,229.36,167.963,231.9,169.989,234.246Zm18.875-3.215c-.314-5,.484-7.64,1.47-8.576a1.586,1.586,0,0,1,.611-.373,2.061,2.061,0,0,1,1.444.161c.154.064.568.237.54,1.218C192.874,225.368,191.291,228.377,188.864,231.032Zm-19.007-2.812a1.124,1.124,0,0,1,.692-.681,1.186,1.186,0,0,1,.27-.049c.867-.059,2.29.721,3.674,3.081.872,1.49,1.909,3.383,3.088,5.936a9.493,9.493,0,0,1-6.092-3.557C169.695,230.87,169.487,229.1,169.857,228.22Z" transform="translate(-167.711 -220.033)" fill="#fff"/>
          </g>
          <g id="Group_4341" data-name="Group 4341">
            <path id="Path_7737" data-name="Path 7737" d="M145.241,88.66c-1.841.467-2.158,1.671-1.34,3.666,1.659,4.049,3.3,5.384,3.876,5.194C148.926,97.141,149.067,87.69,145.241,88.66Z" transform="translate(-117.103 -88.59)" fill="#e6edef"/>
            <path id="Path_7738" data-name="Path 7738" d="M267.51,90.3c-1.4-1.288-2.577-.9-3.8.879-2.486,3.6-2.71,5.7-2.235,6.083C262.417,98.016,270.412,92.973,267.51,90.3Z" transform="translate(-198.234 -89.244)" fill="#e6edef"/>
            <path id="Path_7739" data-name="Path 7739" d="M307.408,178.12c.345-1.868-.616-2.658-2.771-2.749-4.372-.184-6.27.748-6.338,1.353C298.162,177.925,306.69,182,307.408,178.12Z" transform="translate(-223.735 -148.344)" fill="#e6edef"/>
            <path id="Path_7740" data-name="Path 7740" d="M58.844,177.973c-.419,1.853.51,2.681,2.66,2.857,4.361.357,6.4-.491,6.387-1.1C67.85,177.94,59.715,174.123,58.844,177.973Z" transform="translate(-58.745 -149.01)" fill="#e6edef"/>
            <path id="Path_7741" data-name="Path 7741" d="M69.345,261.524c.848,1.7,2.091,1.753,3.867.53,3.6-2.482,4.646-4.429,4.251-4.892C76.3,255.8,67.584,257.991,69.345,261.524Z" transform="translate(-65.885 -204.412)" fill="#e6edef"/>
          </g>
          <path id="Path_7742" data-name="Path 7742" d="M123.8,183.042c1.379.643,3.279-.935,5.454-5.249.99-1.963,2.531-5.1,1.854-6.1a2.961,2.961,0,0,0-4.945-.105C123,175.6,121.05,181.758,123.8,183.042Z" transform="translate(-102.648 -144.87)" fill="#fff"/>
          <path id="Path_7743" data-name="Path 7743" d="M118.847,222.205c.156,1.634,1.283,2.164,2.2,1.877s1.676-2.752,1.389-3.666a1.736,1.736,0,0,0-2.176-1.136C119.342,219.568,118.756,221.251,118.847,222.205Z" transform="translate(-100.133 -178.547)" fill="#fff"/>
        </g>
        <path id="Path_7744" data-name="Path 7744" d="M204.393,519.6a29.893,29.893,0,0,1-8.372,6.113c-.383.194.1,1.369.342,1.727l1.375,2.292,9.545-6.815S205.049,518.928,204.393,519.6Z" transform="translate(-153.195 -385.396)" fill="#fff"/>
        <path id="Path_7745" data-name="Path 7745" d="M207.222,524.6c1.823,2.112,4.322,5.31,5.947,7.31,12.545,15.438,19.933,27.564,13.3,32.107-3.575,2.45-6.2,1.4-9.022-.818-9.16-7.222-20.016-32.259-20.016-32.259C201.465,529.2,204.88,527.524,207.222,524.6Z" transform="translate(-154.267 -388.887)" fill="#3c3854"/>
      </g>
      <path id="Path_7746" data-name="Path 7746" d="M392.42,434.363a14.2,14.2,0,0,0-3.153-4.618,5.967,5.967,0,0,0-1.087-.942,1.758,1.758,0,0,0,.014.532,4.856,4.856,0,0,1,.542,1.124c.325,1.125.391,4.24-1.234,9.251-3.687,11.374-17.924,28.757-17.949,28.8-.249.431.1,2.288,2.672.835,5-2.83,20.135-12.06,21.061-23.4.077-.947-2.6-2.714-2.319-2.733,0,0,2.385,1.081,2.487.364A18.711,18.711,0,0,0,392.42,434.363Z" transform="translate(-214.022 -234.32)" fill="#2d2b47"/>
    </g>
  </g>
</svg>
