<svg xmlns="http://www.w3.org/2000/svg" xmlns:xlink="http://www.w3.org/1999/xlink" width="277" height="221" viewBox="0 0 277 221">
  <defs>
    <clipPath id="clip-icon_1">
      <rect width="277" height="221"/>
    </clipPath>
  </defs>
  <g id="icon_1" data-name="icon 1" clip-path="url(#clip-icon_1)">
    <rect width="277" height="221" fill="#fff"/>
    <g id="Characters" transform="translate(37.518 32)">
      <g id="Group_3853" data-name="Group 3853" transform="translate(56.846 33.075)">
        <path id="Path_7125" data-name="Path 7125" d="M947.171,501.406l-4.873-9.152s-2.59-5.854-1.144-5.811,2.676,2.451,2.676,2.451l-.847-4.868s.364-1.059,1.355-.244,1.854,3.491,1.854,3.491l-1.015-3.28s.088-2.23.979-1.4a48.4,48.4,0,0,1,3.424,4.668l1.962,4.823.481-3.541s.2-1.711,1.158-.623,1.606,6.86,1.606,6.86l.458,5.454s-5.763,3.008-8.153,2.8S947.171,501.406,947.171,501.406Z" transform="translate(-940.715 -482.412)" fill="#ff8c92"/>
      </g>
      <g id="Group_3854" data-name="Group 3854" transform="translate(60.387 49.412)">
        <path id="Path_7126" data-name="Path 7126" d="M1008.042,617.245s-13.633,1.538-19.446,14.633c0,0-5.281-12.584-8.168-16.272L982,610.761s-7.161,5.07-13.774,4.614l4.064,2.932s2.057,19.488,5.563,30.22c0,0,1.9,11.966,9.914,8.349s10.634-15.56,10.634-15.56l-7.355,33.479,7.028,3.443,8-1.854-.783-2.791s5.129,6.693,5.238,13.365l23.051-1.943,6.775-1.295-2.778-12.657,5.426-2.821a119.055,119.055,0,0,1-1.469-15.316c-.028-6.542.021-12.275.021-12.275s-1.828-11.416-10.325-17.689a32.724,32.724,0,0,0-17.818-6.221Z" transform="translate(-968.225 -610.761)" fill="#d3ede1"/>
      </g>
      <g id="Group_3855" data-name="Group 3855" transform="translate(88.066 18.782)">
        <path id="Path_7127" data-name="Path 7127" d="M1190.15,380.576s-4.05-1.335-6.188,1.711,1.169,6.382,3.336,6.632l7.173,10.469,1.09,3.695v3.869a4.123,4.123,0,0,0,4.123,1.961,6.236,6.236,0,0,0,4.588-2.242l.144-6.829,11.231-6.719a6.171,6.171,0,0,0,2.481-4.474c.066-2.787-3.4-4.417-4.714-4.748s-11.312-12.41-11.312-12.41l-6.514-1.375L1190.9,378.4Z" transform="translate(-1183.27 -370.115)" fill="#ff8c92"/>
      </g>
      <g id="Group_3856" data-name="Group 3856" transform="translate(132.594 53.096)">
        <path id="Path_7128" data-name="Path 7128" d="M1545.788,640.515a1.25,1.25,0,0,1,1.848-.044,4.715,4.715,0,0,0,4.833,1.056,20.476,20.476,0,0,0,4.686-1.667,1.248,1.248,0,0,1,1.344.089l2.943,2.179a1.244,1.244,0,0,0,.644.24l8.622.676a1.31,1.31,0,0,0,.236,0c.81-.083,5.9-.354,11.339,5.089,5.927,5.936,12.127,17.068,12.127,17.068s14.526,23.344,6.9,29.868c-5.307,4.541-16.14,5.683-17.187,5.784a1.186,1.186,0,0,1-.163,0l-4.345-.16a1.2,1.2,0,0,0-1.218,1.126.949.949,0,0,1-.278.556h0a1.213,1.213,0,0,0-.338.881c.053,1.49.089,5.875-1.232,7.486a9.282,9.282,0,0,1-2.888,2.351,1.222,1.222,0,0,1-.354.112l-28.506,4.561a1.248,1.248,0,0,1-1.007-.283l-5.053-4.323a1.16,1.16,0,0,0-.215-.147,4.755,4.755,0,0,1-2.349-3.906c-.29-3.033-1.037-2.59-1.037-2.59a15.76,15.76,0,0,0-3.933.39c-1.395.389-1.537-1.372-1.547-1.949a1.166,1.166,0,0,1,.039-.317,9.345,9.345,0,0,0-.04-4.953c-.818-2.371-.413-4.446.36-4.278l.3.063a1.231,1.231,0,0,0,1.479-1.371c-.841-5.73-3.245-24.66-.451-37.581a1.11,1.11,0,0,0,.021-.139c.067-.786.856-8.388,6.352-11.632a1.309,1.309,0,0,1,.262-.117l5.619-1.826a1.241,1.241,0,0,0,.563-.377Z" transform="translate(-1529.212 -639.705)" fill="#ffdead"/>
      </g>
      <g id="Group_3857" data-name="Group 3857" transform="translate(0.225 52.428)">
        <path id="Path_7129" data-name="Path 7129" d="M531.453,634.454s-23.419,2.755-28.33,29.764-1.466,33.346,5.713,35.433,14.684-2.226,14.684-2.226l27.321.371v23.529l11.426.054L558.131,672.5l-1.857-21.1s-.791-16.089-17.2-16.57Z" transform="translate(-500.824 -634.454)" fill="#ececec"/>
      </g>
      <g id="Group_3858" data-name="Group 3858" transform="translate(104.9 39.828)">
        <path id="Path_7130" data-name="Path 7130" d="M1317.938,535.466l-2.245.273-1.64,2.393s.912,1.838,2.136.939S1317.938,535.466,1317.938,535.466Z" transform="translate(-1314.053 -535.466)" fill="#f5646c"/>
      </g>
      <g id="Group_3871" data-name="Group 3871" transform="translate(0.152 55.499)">
        <g id="Group_3866" data-name="Group 3866" transform="translate(0)">
          <g id="Group_3859" data-name="Group 3859" transform="translate(19.077)">
            <rect id="Rectangle_437" data-name="Rectangle 437" width="30.175" height="0.695" fill="#99c6b2"/>
          </g>
          <g id="Group_3860" data-name="Group 3860" transform="translate(8.184 8.923)">
            <rect id="Rectangle_438" data-name="Rectangle 438" width="47.094" height="0.695" fill="#99c6b2"/>
          </g>
          <g id="Group_3861" data-name="Group 3861" transform="translate(2.275 19.494)">
            <rect id="Rectangle_439" data-name="Rectangle 439" width="53.825" height="0.695" fill="#99c6b2"/>
          </g>
          <g id="Group_3862" data-name="Group 3862" transform="translate(1.757 29.522)">
            <rect id="Rectangle_440" data-name="Rectangle 440" width="47.535" height="0.695" fill="#99c6b2"/>
          </g>
          <g id="Group_3863" data-name="Group 3863" transform="translate(51.95 38.445)">
            <rect id="Rectangle_441" data-name="Rectangle 441" width="6.648" height="0.695" fill="#99c6b2"/>
          </g>
          <g id="Group_3864" data-name="Group 3864" transform="translate(0.257 38.445)">
            <rect id="Rectangle_442" data-name="Rectangle 442" width="48.049" height="0.695" fill="#99c6b2"/>
          </g>
          <g id="Group_3865" data-name="Group 3865" transform="translate(0 49.016)">
            <rect id="Rectangle_443" data-name="Rectangle 443" width="59.167" height="0.695" fill="#99c6b2"/>
          </g>
        </g>
        <g id="Group_3867" data-name="Group 3867" transform="translate(1.833 57.599)">
          <rect id="Rectangle_444" data-name="Rectangle 444" width="24.841" height="0.695" fill="#99c6b2"/>
        </g>
        <g id="Group_3868" data-name="Group 3868" transform="translate(51.95 57.599)">
          <rect id="Rectangle_445" data-name="Rectangle 445" width="6.217" height="0.695" fill="#99c6b2"/>
        </g>
        <g id="Group_3869" data-name="Group 3869" transform="translate(51.95 66.522)">
          <rect id="Rectangle_446" data-name="Rectangle 446" width="8.128" height="0.695" fill="#99c6b2"/>
        </g>
        <g id="Group_3870" data-name="Group 3870" transform="translate(51.95 77.092)">
          <rect id="Rectangle_447" data-name="Rectangle 447" width="9.024" height="0.695" fill="#99c6b2"/>
        </g>
      </g>
      <g id="Group_3872" data-name="Group 3872" transform="translate(46.751 139.299)">
        <path id="Path_7131" data-name="Path 7131" d="M865.781,1316.962h6.62s-.26,17.932-7.175,16.75S865.781,1316.962,865.781,1316.962Z" transform="translate(-862.29 -1316.962)" fill="#ff8c92"/>
      </g>
      <g id="Group_3873" data-name="Group 3873" transform="translate(136.145 119.884)">
        <path id="Path_7132" data-name="Path 7132" d="M1556.793,1164.6a6.983,6.983,0,0,1,3.348.092,11.663,11.663,0,0,0,.764,4.551c.888,2.021,3.49,2.781,3.49,2.781l1.446,14.674L1562,1200.507s-2.28-1.012-3.174-5.943a101.643,101.643,0,0,1-1.576-14.993C1556.954,1173.184,1556.793,1164.6,1556.793,1164.6Z" transform="translate(-1556.793 -1164.429)" fill="#ff8c92"/>
      </g>
      <g id="Group_3874" data-name="Group 3874" transform="translate(85.401 107.596)">
        <path id="Path_7350" data-name="Path 7350" d="M1.824.007A1.834,1.834,0,0,1,3.655,1.824a1.8,1.8,0,0,1-1.817,1.8A1.834,1.834,0,0,1,.007,1.81,1.8,1.8,0,0,1,1.824.007Z" transform="translate(0 1.395) rotate(-22.707)" fill="#fff"/>
      </g>
      <g id="Group_3875" data-name="Group 3875" transform="translate(141.69 125.22)">
        <path id="Path_7133" data-name="Path 7133" d="M1599.878,1238.707h39.452l-.06-16.9s-.267-15.792-2.834-15.457c-.173.023-15.525.752-15.525.752l-13.237,4-1.162-3.759-6.633-.134Z" transform="translate(-1599.878 -1206.346)" fill="#0c2238"/>
      </g>
      <g id="Group_3876" data-name="Group 3876" transform="translate(13.793 109.611)">
        <path id="Path_7134" data-name="Path 7134" d="M608.97,1134.077l37.958.058v-47.463l-19.724-.217s-9.519,6.678-16.15,7.84a80.275,80.275,0,0,0-2.085,19.115c.027,11.26,0,20.666,0,20.666Z" transform="translate(-608.618 -1086.107)" fill="#0c2238"/>
        <path id="Path_7135" data-name="Path 7135" d="M644.9,1132.09l-38.662-.06v-.348c0-.094.027-9.534,0-20.664a81.44,81.44,0,0,1,2.1-19.2l.057-.214.221-.039c6.478-1.136,15.913-7.715,16.008-7.781l.093-.066h.114l20.071.22Zm-37.958-.754,37.255.057v-46.771l-19.263-.211c-1.05.728-9.636,6.58-15.974,7.792a82.287,82.287,0,0,0-2.019,18.813C606.963,1120.946,606.944,1129.531,606.94,1131.337Z" transform="translate(-606.235 -1083.714)" fill="#0c2238"/>
      </g>
      <g id="Group_3877" data-name="Group 3877" transform="translate(144.932 114.382)">
        <path id="Path_7136" data-name="Path 7136" d="M1625.065,1121.586l4.553,15.208,28.331-8.567-2.011-6.326a3.829,3.829,0,0,1-4.488,1.387c-2.915-1.025-2.6-2.092-3.473-2.092h-20.031Z" transform="translate(-1625.065 -1121.196)" fill="#99c6b2"/>
      </g>
      <g id="Group_3878" data-name="Group 3878" transform="translate(136.111 78.16)">
        <path id="Path_7137" data-name="Path 7137" d="M1584.864,836.62l6.089,19.3s-2.283,1.531-3.591,1.143-1.517-.662-2.141-.023a2.277,2.277,0,0,0-.578,1.555l-16.968,2.677-6.982-2.148-4.159-13.938Z" transform="translate(-1556.533 -836.62)" fill="#99c6b2"/>
      </g>
      <g id="Group_3879" data-name="Group 3879" transform="translate(138.369 99.942)">
        <path id="Path_7138" data-name="Path 7138" d="M1600.159,1007.752l-16.839,2.965s-7.774-3.057-9.017-1.923,2.968,3.959,2.968,3.959-3.157,1.568-1.7,5.452a7.222,7.222,0,0,0,5.592,4.376,18.592,18.592,0,0,1,5.2-.39c2.506.24,17.476-.226,17.476-.226A25.292,25.292,0,0,1,1600.159,1007.752Z" transform="translate(-1574.073 -1007.752)" fill="#ff8c92"/>
      </g>
      <g id="Group_3880" data-name="Group 3880" transform="translate(135.696 12.52)">
        <path id="Path_7139" data-name="Path 7139" d="M1560.928,331.258l2.664-10.339s14.934.684,15.374.552,6.352,7.756,6.352,7.756l1.218,4.7s4.354-2.646,7.015,1.449-1.3,7.029-2.5,7.295-3.771.469-5.282-1.234c0,0-.435,5.734-4.394,8.847s-4.917,2.312-4.917,2.312l1.92,1.476v7.02s-3.959,3.115-8.143,2.166c0,0-2.537-1.041-2.423-2.333s.261-6.212.261-6.212l-.062-3.288a10.636,10.636,0,0,1-5.286-5.686c-1.577-4.132-.938-4.3-.938-4.3s-3.99,3.222-6.834.346-1.5-6.906.3-7.723,3.467-1.411,5.442-.318l.9.5Z" transform="translate(-1553.307 -320.919)" fill="#ff8c92"/>
      </g>
      <g id="Group_3881" data-name="Group 3881" transform="translate(45.954 79.649)">
        <path id="Path_7140" data-name="Path 7140" d="M856.1,856.29a57.665,57.665,0,0,0,6.385-4.984c2.137-2.051,4.5-3.043,4.646-2.152s-.572,3.089-.422,2.97,9.246-4.521,9.153-3.71-.326,1.934-2.114,3.482-1.606,2.593-2.413,3.263a12.428,12.428,0,0,0-1.745,2.309,16.773,16.773,0,0,1-4.359,3.4c-2.386,1.282-6.161,3.325-6.161,3.325Z" transform="translate(-856.098 -848.316)" fill="#ff8c92"/>
      </g>
      <g id="Group_3882" data-name="Group 3882" transform="translate(19.89 14.874)">
        <path id="Path_7141" data-name="Path 7141" d="M658.927,350.692s-6.146,1.894-5.232,5.821,3.812,4.047,6.345,3.568c0,0-1.121,3.522,2.973,7.17l2.41,1.626-.858,4.475.1,3.684a8.644,8.644,0,0,0,5.964,1.757c3.211-.464,3.356-2.279,3.356-2.279l-.241-7.378s4.157-.292,6.545-5.841a18.337,18.337,0,0,0,.909-6.1c-.018-3.679.58-8.05,0-9.481s-3.469-6.877-3.469-6.877l-10.2-1.433-7.137,6.351Z" transform="translate(-653.602 -339.41)" fill="#ff8c92"/>
      </g>
      <g id="Group_3883" data-name="Group 3883" transform="translate(149.92 26.603)">
        <ellipse id="Ellipse_180" data-name="Ellipse 180" cx="0.897" cy="0.887" rx="0.897" ry="0.887" fill="#0c2238"/>
      </g>
      <g id="Group_3884" data-name="Group 3884" transform="translate(159.318 26.603)">
        <path id="Path_7142" data-name="Path 7142" d="M1738.62,432.448a.9.9,0,1,1-.9-.887A.892.892,0,0,1,1738.62,432.448Z" transform="translate(-1736.826 -431.561)" fill="#0c2238"/>
      </g>
      <g id="Group_3885" data-name="Group 3885" transform="translate(154.079 25.635)">
        <path id="Path_7143" data-name="Path 7143" d="M1697.668,430.274a1.686,1.686,0,0,1-1.1-.389,1.2,1.2,0,0,1-.439-.991l.343-4.938.7.048-.343,4.938a.506.506,0,0,0,.2.417,1.036,1.036,0,0,0,.879.194l.667-.144.15.679-.667.143A1.856,1.856,0,0,1,1697.668,430.274Z" transform="translate(-1696.13 -423.956)" fill="#0c2238"/>
      </g>
      <g id="Group_3886" data-name="Group 3886" transform="translate(135.241 16.243)">
        <path id="Path_7144" data-name="Path 7144" d="M1570.73,378.884a12.383,12.383,0,0,1-8.644-3.478,12.111,12.111,0,0,1-3.69-7.7,5.333,5.333,0,0,1-3.126,1.122c-.058,0-.112,0-.167,0a5.3,5.3,0,0,1-4.523-2.486,2.508,2.508,0,0,1-.149-.25,5.206,5.206,0,0,1-.658-2.534,5.306,5.306,0,0,1,5.33-5.27,5.42,5.42,0,0,1,3.248,1.033v-2.532a12.091,12.091,0,0,1,1.968-6.623l.59.377a11.406,11.406,0,0,0-1.855,6.247v3.3l-.6.241a4.686,4.686,0,0,0-7.974,3.228,4.528,4.528,0,0,0,.574,2.206,1.881,1.881,0,0,0,.119.2,4.608,4.608,0,0,0,3.933,2.17c.04,0,.08,0,.12,0h.036a4.628,4.628,0,0,0,3.193-1.413l.6.231a11.42,11.42,0,0,0,3.52,7.955,11.682,11.682,0,0,0,8.153,3.28,11.53,11.53,0,0,0,11.605-11.236l.606-.23a4.6,4.6,0,1,0,3.345-7.735,4.382,4.382,0,0,0-3.273,1.289l-.506-.482a5.127,5.127,0,0,1,3.779-1.5,5.271,5.271,0,1,1-3.291,9.417A12.225,12.225,0,0,1,1570.73,378.884Z" transform="translate(-1549.773 -350.171)" fill="#0c2238"/>
      </g>
      <g id="Group_3887" data-name="Group 3887" transform="translate(168.395 26.635)">
        <path id="Path_7145" data-name="Path 7145" d="M1810.194,434.125c-1.554-.747-2.348-.292-2.381-.273l-.464-.508c2.127-2.706,5.506-1,5.54-.982l-.326.616a4.131,4.131,0,0,0-3.84.031,4.6,4.6,0,0,1,1.779.49Z" transform="translate(-1807.348 -431.816)" fill="#0c2238"/>
      </g>
      <g id="Group_3888" data-name="Group 3888" transform="translate(138.055 26.635)">
        <path id="Path_7146" data-name="Path 7146" d="M1574.331,434.126l-.307-.625a4.6,4.6,0,0,1,1.779-.49,4.129,4.129,0,0,0-3.84-.031l-.326-.616c.034-.018,3.413-1.724,5.54.982l-.469.5C1576.679,433.833,1575.884,433.378,1574.331,434.126Z" transform="translate(-1571.637 -431.817)" fill="#0c2238"/>
      </g>
      <g id="Group_3889" data-name="Group 3889" transform="translate(140.648 2.794)">
        <path id="Path_7147" data-name="Path 7147" d="M1619.083,268.037a10.321,10.321,0,0,1-1.85-5.649c-1.983.414-10.279,1.646-15-5.449a6.4,6.4,0,0,1-6.921,1.082,5.259,5.259,0,0,1-3.269-3.275,5.071,5.071,0,0,1,1.167-5.152,5.549,5.549,0,0,1,5.386-1.575,4.453,4.453,0,0,1,.46.142c1.159-1.09,7.927-6.778,17.776-1.321,10.175,5.638,2.916,20.979,2.842,21.133Zm-1.607-6.419.447.33a10.437,10.437,0,0,0,1.375,5.147c1.183-2.791,5.708-14.933-2.807-19.651-10.308-5.712-17.025,1.288-17.092,1.359l-.4.082a3.572,3.572,0,0,0-.572-.194,4.842,4.842,0,0,0-4.7,1.376,4.392,4.392,0,0,0-1.014,4.461,4.5,4.5,0,0,0,2.848,2.842c4.233,1.563,6.362-1.091,6.451-1.2l.579.029C1607.607,264.272,1617.378,261.646,1617.476,261.618Z" transform="translate(-1591.779 -244.507)" fill="#0c2238"/>
      </g>
      <g id="Group_3890" data-name="Group 3890" transform="translate(142.418 15.404)">
        <path id="Path_7148" data-name="Path 7148" d="M1606.982,354.521c-2.567-4.14-.963-10.669-.894-10.945l.682.168c-.016.065-1.6,6.524.81,10.414Z" transform="translate(-1605.53 -343.576)" fill="#0c2238"/>
      </g>
      <g id="Group_3891" data-name="Group 3891" transform="translate(149.914 43.013)">
        <path id="Path_7149" data-name="Path 7149" d="M1668.019,572.887a5.5,5.5,0,0,1-2.137-.394,3.616,3.616,0,0,1-2.1-2.135l-.013-.105.293-9.766.7.021-.291,9.705a2.972,2.972,0,0,0,1.7,1.648c1.3.536,3.8.667,8.336-1.707l-.245-8.955.7-.019.251,9.17-.185.315A15.75,15.75,0,0,1,1668.019,572.887Z" transform="translate(-1663.767 -560.487)" fill="#0c2238"/>
      </g>
      <g id="Group_3892" data-name="Group 3892" transform="translate(156.041 43.377)">
        <path id="Path_7150" data-name="Path 7150" d="M1711.369,564.66l5.067,3.275V563.35a13.167,13.167,0,0,1-2.264.817C1713.158,564.393,1711.369,564.66,1711.369,564.66Z" transform="translate(-1711.369 -563.35)" fill="#0c2238"/>
      </g>
      <g id="Group_3893" data-name="Group 3893" transform="translate(154.996 31.289)">
        <path id="Path_7151" data-name="Path 7151" d="M1703.873,472.054a3.984,3.984,0,0,1-.625-.043l.127-.684a3.64,3.64,0,0,0,4.182-2.948l.682.169A4.277,4.277,0,0,1,1703.873,472.054Z" transform="translate(-1703.248 -468.38)" fill="#0c2238"/>
      </g>
      <g id="Group_3894" data-name="Group 3894" transform="translate(161.355 28.584)">
        <path id="Path_7152" data-name="Path 7152" d="M1755.758,448.66a1.553,1.553,0,1,1-1.553-1.535A1.544,1.544,0,0,1,1755.758,448.66Z" transform="translate(-1752.652 -447.125)" fill="#f5646c"/>
      </g>
      <g id="Group_3895" data-name="Group 3895" transform="translate(141.016 3.133)">
        <path id="Path_7153" data-name="Path 7153" d="M1604.987,258.854a6.048,6.048,0,0,1-3.353,1.589c-2.072.257-5.142-.572-6.262-2.431a4.764,4.764,0,0,1,1.314-6.489,5.813,5.813,0,0,1,4.95-.628,14.7,14.7,0,0,1,10.448-3.685c6.14.467,12.446,4.218,12.346,11.232s-2.313,11.411-2.761,11.444-1.017-2.78-1.017-2.78l-.759-1.95.126-.762-1.517.184a20.682,20.682,0,0,1-6.456-.382,16.239,16.239,0,0,1-5.829-3.579Z" transform="translate(-1594.643 -247.173)" fill="#0c2238"/>
      </g>
      <g id="Group_3896" data-name="Group 3896" transform="translate(142.649 14.932)">
        <path id="Path_7154" data-name="Path 7154" d="M1608.534,339.866s-1.676,1.59-1.082,6.985l1.082,3.609.312-.268.115-4.043.549-2.638,1.824-2.966Z" transform="translate(-1607.325 -339.866)" fill="#0c2238"/>
      </g>
      <g id="Group_3897" data-name="Group 3897" transform="translate(147.915 22.446)">
        <path id="Path_7155" data-name="Path 7155" d="M1651.532,400.433c-1.189.3-2.046.955-1.915,1.474s1.2.7,2.391.4,2.046-.955,1.915-1.474S1652.722,400.138,1651.532,400.433Z" transform="translate(-1649.428 -400.114)" fill="#0c2238"/>
        <path id="Path_7156" data-name="Path 7156" d="M1649.714,401.418c-.779,0-1.349-.244-1.46-.68-.16-.631.718-1.356,2.042-1.684h0c1.326-.329,2.445-.1,2.605.53s-.718,1.356-2.042,1.685A4.8,4.8,0,0,1,1649.714,401.418Zm1.724-2.165a4.434,4.434,0,0,0-1.056.138h0c-1.168.29-1.879.9-1.787,1.263s1.011.568,2.178.278,1.88-.9,1.787-1.263C1652.5,399.424,1652.067,399.252,1651.438,399.252Z" transform="translate(-1648.235 -398.903)" fill="#0c2238"/>
      </g>
      <g id="Group_3898" data-name="Group 3898" transform="translate(158.089 22.502)">
        <path id="Path_7157" data-name="Path 7157" d="M1731.012,400.8c-1.208-.206-2.262.054-2.354.581s.813,1.121,2.021,1.327,2.262-.054,2.354-.581S1732.22,401.008,1731.012,400.8Z" transform="translate(-1728.475 -400.555)" fill="#0c2238"/>
        <path id="Path_7158" data-name="Path 7158" d="M1730.31,401.748a5.092,5.092,0,0,1-.852-.075c-1.346-.229-2.276-.886-2.165-1.528s1.21-.953,2.557-.723a4.22,4.22,0,0,1,1.566.57c.443.291.656.632.6.958C1731.928,401.449,1731.243,401.748,1730.31,401.748Zm-1.3-2.052c-.78,0-1.317.225-1.367.508-.064.37.691.924,1.878,1.126s2.086-.069,2.151-.439c.031-.18-.131-.4-.447-.61a3.86,3.86,0,0,0-1.431-.517h0A4.693,4.693,0,0,0,1729.006,399.7Z" transform="translate(-1727.284 -399.347)" fill="#0c2238"/>
      </g>
      <g id="Group_3899" data-name="Group 3899" transform="translate(149.793 26.477)">
        <path id="Path_7159" data-name="Path 7159" d="M1665.874,432.619a.848.848,0,1,1-.994-.665A.84.84,0,0,1,1665.874,432.619Z" transform="translate(-1664.016 -431.764)" fill="#0c2238"/>
        <path id="Path_7160" data-name="Path 7160" d="M1663.849,432.6a1.024,1.024,0,0,1-.572-.174,1.007,1.007,0,0,1-.275-1.406,1.032,1.032,0,0,1,1.422-.271,1.007,1.007,0,0,1,.432.647h0a1,1,0,0,1-.158.759,1.018,1.018,0,0,1-.654.427A1.047,1.047,0,0,1,1663.849,432.6Zm0-1.679a.691.691,0,0,0-.129.012.668.668,0,0,0-.43.28.652.652,0,0,0-.1.5.66.66,0,0,0,.284.425.677.677,0,0,0,.5.1.67.67,0,0,0,.43-.281.652.652,0,0,0,.1-.5h0a.661.661,0,0,0-.284-.425A.673.673,0,0,0,1663.852,430.92Z" transform="translate(-1662.827 -430.572)" fill="#0c2238"/>
      </g>
      <g id="Group_3900" data-name="Group 3900" transform="translate(153.524 62.956)">
        <path id="Path_7161" data-name="Path 7161" d="M1693.628,717.906a.9.9,0,0,1-.724,1.058.913.913,0,0,1-1.07-.716.9.9,0,0,1,.724-1.058A.913.913,0,0,1,1693.628,717.906Z" transform="translate(-1691.817 -717.173)" fill="#0c2238"/>
      </g>
      <g id="Group_3901" data-name="Group 3901" transform="translate(152.61 68.937)">
        <path id="Path_7162" data-name="Path 7162" d="M1686.528,764.892a.9.9,0,0,1-.724,1.058.9.9,0,1,1,.724-1.058Z" transform="translate(-1684.718 -764.159)" fill="#0c2238"/>
      </g>
      <g id="Group_3902" data-name="Group 3902" transform="translate(151.976 74.773)">
        <path id="Path_7351" data-name="Path 7351" d="M.9,0a.913.913,0,0,1,.905.915.9.9,0,0,1-.9.912A.913.913,0,0,1,0,.913.9.9,0,0,1,.9,0Z" transform="translate(0 1.779) rotate(-79.943)" fill="#0c2238"/>
      </g>
      <g id="Group_3903" data-name="Group 3903" transform="translate(159.142 26.477)">
        <path id="Path_7163" data-name="Path 7163" d="M1738.508,432.619a.84.84,0,0,1-.672.983.848.848,0,0,1-.994-.665.848.848,0,0,1,1.666-.318Z" transform="translate(-1736.651 -431.765)" fill="#0c2238"/>
        <path id="Path_7164" data-name="Path 7164" d="M1736.485,432.6a1.014,1.014,0,1,1,1.006-1.2h0a1.015,1.015,0,0,1-.812,1.186A1.034,1.034,0,0,1,1736.485,432.6Zm0-1.678a.687.687,0,0,0-.128.012.667.667,0,0,0-.533.78.674.674,0,0,0,.788.527.665.665,0,0,0-.127-1.319Z" transform="translate(-1735.461 -430.574)" fill="#0c2238"/>
      </g>
      <g id="Group_3904" data-name="Group 3904" transform="translate(145.891 31.605)">
        <rect id="Rectangle_448" data-name="Rectangle 448" width="0.703" height="1.777" fill="#0c2238"/>
      </g>
      <g id="Group_3905" data-name="Group 3905" transform="translate(147.517 36.449)">
        <rect id="Rectangle_449" data-name="Rectangle 449" width="0.703" height="1.777" transform="translate(0 0)" fill="#0c2238"/>
      </g>
      <g id="Group_3906" data-name="Group 3906" transform="translate(150.442 33.381)">
        <rect id="Rectangle_450" data-name="Rectangle 450" width="0.703" height="1.777" transform="translate(0 0)" fill="#0c2238"/>
      </g>
      <g id="Group_3907" data-name="Group 3907" transform="translate(151.768 40.106)">
        <rect id="Rectangle_451" data-name="Rectangle 451" width="0.703" height="1.777" transform="translate(0 0)" fill="#0c2238"/>
      </g>
      <g id="Group_3908" data-name="Group 3908" transform="translate(154.708 36.584)">
        <rect id="Rectangle_452" data-name="Rectangle 452" width="0.703" height="1.777" fill="#0c2238"/>
      </g>
      <g id="Group_3909" data-name="Group 3909" transform="translate(158.223 40.149)">
        <rect id="Rectangle_453" data-name="Rectangle 453" width="0.703" height="1.777" fill="#0c2238"/>
      </g>
      <g id="Group_3910" data-name="Group 3910" transform="translate(160.413 33.381)">
        <rect id="Rectangle_454" data-name="Rectangle 454" width="0.703" height="1.777" transform="translate(0 0)" fill="#0c2238"/>
      </g>
      <g id="Group_3911" data-name="Group 3911" transform="translate(163.409 36.449)">
        <rect id="Rectangle_455" data-name="Rectangle 455" width="0.703" height="1.777" transform="translate(0 0)" fill="#0c2238"/>
      </g>
      <g id="Group_3912" data-name="Group 3912" transform="translate(165.83 32.109)">
        <rect id="Rectangle_456" data-name="Rectangle 456" width="0.703" height="1.777" fill="#0c2238"/>
      </g>
      <g id="Group_3913" data-name="Group 3913" transform="translate(165.855 56.11)">
        <path id="Path_7165" data-name="Path 7165" d="M1797.119,706.106l-.111-.686,5.509-.874c-1.909-1.036-5.851-4.259-11.29-14.26-5.221-9.6-3.641-17.647-2.235-21.59a8.1,8.1,0,0,1,6.335-5.309l.111.686a7.4,7.4,0,0,0-5.784,4.854c-1.368,3.835-2.9,11.666,2.191,21.029,7.441,13.683,11.986,14.381,12.031,14.386l.017.689Z" transform="translate(-1787.618 -663.387)" fill="#0c2238"/>
      </g>
      <g id="Group_3914" data-name="Group 3914" transform="translate(164.075 95.881)">
        <path id="Path_7166" data-name="Path 7166" d="M1782,997.1a4.545,4.545,0,0,1-2.01-.548c-2.822-1.4-6.724-7.851-6.135-17.277a1.553,1.553,0,0,1,.921-1.335,1.723,1.723,0,0,1,1.406.1,2.673,2.673,0,0,0,2.622-.227c.687-.36,1.241-.676,1.73-.954,1.335-.759,2.07-1.177,2.937-.96a2.226,2.226,0,0,1,1.63,2.251l-.014.391c-.12,3.174-.369,9.78,6.206,15.482.566.491.777.965.626,1.408-.3.883-1.954,1.069-1.971,1.07a4.113,4.113,0,0,1-1.976-.541,3.02,3.02,0,0,0-2.507-.383,7.288,7.288,0,0,0-1.2.667A4.033,4.033,0,0,1,1782,997.1Zm-6.685-18.577a.661.661,0,0,0-.263.056.853.853,0,0,0-.5.739c-.589,9.44,3.453,15.478,5.749,16.613a2.966,2.966,0,0,0,3.577-.266,7.842,7.842,0,0,1,1.315-.727,3.661,3.661,0,0,1,3.072.4,3.589,3.589,0,0,0,1.629.478c.488-.063,1.268-.316,1.356-.6.044-.144-.114-.39-.424-.659-6.826-5.92-6.559-13-6.444-16.03l.014-.388a1.527,1.527,0,0,0-1.1-1.555c-.568-.144-1.116.151-2.413.889-.469.267-1.053.6-1.751.966a3.345,3.345,0,0,1-3.207.26A1.811,1.811,0,0,0,1775.31,978.522Z" transform="translate(-1773.79 -975.843)" fill="#0c2238"/>
      </g>
      <g id="Group_3915" data-name="Group 3915" transform="translate(173.337 106.32)">
        <path id="Path_7167" data-name="Path 7167" d="M1850.614,1066.169a21.566,21.566,0,0,1-4.867-8.105l.671-.2a21.262,21.262,0,0,0,4.687,7.813Z" transform="translate(-1845.747 -1057.859)" fill="#0c2238"/>
      </g>
      <g id="Group_3916" data-name="Group 3916" transform="translate(183.827 97.567)">
        <path id="Path_7168" data-name="Path 7168" d="M1935.459,993.071c-3.751-.278-8.037-3.227-8.218-3.353l.289-.621a13.259,13.259,0,0,0,4.564-.005l.126.683a16.445,16.445,0,0,1-3.22.217,17.062,17.062,0,0,0,6.511,2.386Z" transform="translate(-1927.241 -989.092)" fill="#0c2238"/>
      </g>
      <g id="Group_3917" data-name="Group 3917" transform="translate(146.772 54.88)">
        <path id="Path_7169" data-name="Path 7169" d="M1648.6,659.1a4.6,4.6,0,0,1-.977-.086l-.253-.229-1.353-4.063-2.38,3.85-.473.122c-.115-.064-2.83-1.59-3.8-3.326l.614-.337a10.194,10.194,0,0,0,3.244,2.885l2.594-4.2.634.072,1.523,4.575c.846.1,4.5.214,9.285-4.07l.472.515C1653.536,658.565,1650.178,659.1,1648.6,659.1Z" transform="translate(-1639.357 -653.722)" fill="#0c2238"/>
      </g>
      <g id="Group_3918" data-name="Group 3918" transform="translate(149.904 61.427)">
        <path id="Path_7170" data-name="Path 7170" d="M1663.7,721.9c-.189-7.567,2.354-16.65,2.38-16.741l.677.187c-.025.09-2.54,9.076-2.353,16.537Z" transform="translate(-1663.689 -705.16)" fill="#0c2238"/>
      </g>
      <g id="Group_3919" data-name="Group 3919" transform="translate(137.682 57.147)">
        <path id="Path_7171" data-name="Path 7171" d="M1569.147,700.443c-2.076-22.075,4.485-28.639,4.765-28.908l.489.5-.245-.25.246.249c-.066.064-6.6,6.663-4.556,28.345Z" transform="translate(-1568.741 -671.535)" fill="#0c2238"/>
      </g>
      <g id="Group_3920" data-name="Group 3920" transform="translate(135.549 120.039)">
        <path id="Path_7352" data-name="Path 7352" d="M0,0H.7L.714,21.369h-.7Z" transform="translate(0 0.032) rotate(-2.669)" fill="#0c2238"/>
      </g>
      <g id="Group_3921" data-name="Group 3921" transform="translate(133.301 79.09)">
        <path id="Path_7172" data-name="Path 7172" d="M1536.543,874.467l-.928-7.694c-.294-2.43-.522-4.9-.676-7.341-.075-1.179-.133-2.406-.172-3.649-.086-2.64-.086-5.268,0-7.81.048-1.424.106-2.785.172-4.047l.7.036c-.065,1.257-.123,2.614-.172,4.034-.085,2.526-.085,5.139,0,7.764.039,1.236.1,2.456.172,3.628.154,2.428.38,4.884.673,7.3l.928,7.694Z" transform="translate(-1534.702 -843.927)" fill="#0c2238"/>
      </g>
      <g id="Group_3922" data-name="Group 3922" transform="translate(135.775 77.828)">
        <path id="Path_7173" data-name="Path 7173" d="M1558.232,856.948l-4.31-13.938.233-.434,28.331-8.567.439.231,5.986,19.357-.672.2-5.883-19.025-27.659,8.363,4.207,13.606Z" transform="translate(-1553.922 -834.01)" fill="#0c2238"/>
      </g>
      <g id="Group_3923" data-name="Group 3923" transform="translate(144.444 114.661)">
        <path id="Path_7174" data-name="Path 7174" d="M1626.42,1139.043l-.439-.231-4.705-15.217.672-.2,4.6,14.884,27.653-8.362-1.913-5.849.668-.214,2.023,6.184-.232.439Z" transform="translate(-1621.276 -1123.392)" fill="#0c2238"/>
      </g>
      <g id="Group_3924" data-name="Group 3924" transform="translate(138.011 99.792)">
        <path id="Path_7175" data-name="Path 7175" d="M1578.89,1021.9a6.007,6.007,0,0,1-3.358-1.02,7.3,7.3,0,0,1-3.121-5.6c-.007-.121-.01-.239-.01-.353a3.645,3.645,0,0,1,1.841-3.282c-1.167-.687-3.458-2.268-2.85-3.788.352-.883,1.891-.684,2.4-.618a38.694,38.694,0,0,1,7.146,2.094l16.73-2.756.115.685-16.827,2.772-.188-.02a39.739,39.739,0,0,0-7.068-2.087c-1.428-.184-1.626.122-1.652.185-.447,1.121,2.171,2.762,3.123,3.249l-.062.642a2.969,2.969,0,0,0-2,2.924c0,.1,0,.208.009.315a6.589,6.589,0,0,0,2.812,5.061,5.55,5.55,0,0,0,5.056.536l.114-.019h20.488v.695h-20.43A7.141,7.141,0,0,1,1578.89,1021.9Z" transform="translate(-1571.291 -1006.573)" fill="#0c2238"/>
      </g>
      <g id="Group_3925" data-name="Group 3925" transform="translate(147.833 110.49)">
        <path id="Path_7176" data-name="Path 7176" d="M1649.1,1094.675a17.381,17.381,0,0,1-1.5-3.884l.682-.169a16.711,16.711,0,0,0,1.437,3.73Z" transform="translate(-1647.603 -1090.622)" fill="#0c2238"/>
      </g>
      <g id="Group_3926" data-name="Group 3926" transform="translate(147.263 102.782)">
        <path id="Path_7177" data-name="Path 7177" d="M1643.2,1034.323a16.268,16.268,0,0,1,.285-4.26l.684.16a15.9,15.9,0,0,0-.267,4.064Z" transform="translate(-1643.176 -1030.063)" fill="#0c2238"/>
      </g>
      <g id="Group_3929" data-name="Group 3929" transform="translate(145.636 106.805)">
        <g id="Group_3927" data-name="Group 3927" transform="translate(0.351 0.347)">
          <ellipse id="Ellipse_182" data-name="Ellipse 182" cx="1.827" cy="1.807" rx="1.827" ry="1.807" fill="#99c6b2"/>
        </g>
        <g id="Group_3928" data-name="Group 3928" transform="translate(0 0)">
          <path id="Path_7178" data-name="Path 7178" d="M1632.71,1065.982a2.154,2.154,0,1,1,2.178-2.154A2.169,2.169,0,0,1,1632.71,1065.982Zm0-3.613a1.459,1.459,0,1,0,1.475,1.459A1.469,1.469,0,0,0,1632.71,1062.369Z" transform="translate(-1630.532 -1061.674)" fill="#0c2238"/>
        </g>
      </g>
      <g id="Group_3930" data-name="Group 3930" transform="translate(161.896 124.88)">
        <path id="Path_7353" data-name="Path 7353" d="M0,0,16.563.011V.706L0,.695Z" transform="translate(0 0.992) rotate(-3.471)" fill="#0c2238"/>
      </g>
      <g id="Group_3931" data-name="Group 3931" transform="translate(141.339 125.873)">
        <path id="Path_7179" data-name="Path 7179" d="M1597.851,1243.185h-.7v-31.36l.351-.348h6.484v.7h-6.132Z" transform="translate(-1597.149 -1211.477)" fill="#0c2238"/>
      </g>
      <g id="Group_3932" data-name="Group 3932" transform="translate(138.911 110.703)">
        <path id="Path_7180" data-name="Path 7180" d="M1580.911,1108.124c-4.386-2.082-1.98-15.27-1.876-15.831l.691.126c-.685,3.672-1.752,13.54,1.489,15.078Z" transform="translate(-1578.284 -1092.293)" fill="#0c2238"/>
      </g>
      <g id="Group_3933" data-name="Group 3933" transform="translate(142.415 121.797)">
        <path id="Path_7354" data-name="Path 7354" d="M0,0,.7,0,.713,4.46l-.7,0Z" transform="translate(0 0.152) rotate(-12.665)" fill="#0c2238"/>
      </g>
      <g id="Group_3934" data-name="Group 3934" transform="translate(144.6 123.064)">
        <path id="Path_7355" data-name="Path 7355" d="M0,0,.7,0,.713,3.224l-.7,0Z" transform="matrix(0.946, -0.324, 0.324, 0.946, 0, 0.225)" fill="#0c2238"/>
      </g>
      <g id="Group_3935" data-name="Group 3935" transform="translate(178.125 125.094)">
        <path id="Path_7181" data-name="Path 7181" d="M1885.606,1237.85c0-.015-.029-1.646,0-13.635.029-11.919-2.64-18.531-2.666-18.6l.651-.263c.027.067,2.748,6.806,2.719,18.86-.029,11.963,0,13.605,0,13.62Z" transform="translate(-1882.94 -1205.356)" fill="#0c2238"/>
      </g>
      <g id="Group_3936" data-name="Group 3936" transform="translate(149.914 137.276)">
        <rect id="Rectangle_461" data-name="Rectangle 461" width="0.703" height="20.304" transform="translate(0 0)" fill="#fff"/>
      </g>
      <g id="Group_3937" data-name="Group 3937" transform="translate(160.982 128.266)">
        <path id="Path_7182" data-name="Path 7182" d="M1757.714,1238.59c-4.7-1.367-7.829-7.741-7.96-8.012l.634-.3c.031.064,3.131,6.367,7.525,7.646Z" transform="translate(-1749.754 -1230.278)" fill="#fff"/>
      </g>
      <g id="Group_3938" data-name="Group 3938" transform="translate(167.502 128.991)">
        <path id="Path_7183" data-name="Path 7183" d="M1802.284,1264.579c0-.035-.034-.971,0-10.541a88.823,88.823,0,0,0-1.873-17.908l.685-.154a89.589,89.589,0,0,1,1.891,18.065c-.033,9.49,0,10.475,0,10.512Z" transform="translate(-1800.411 -1235.976)" fill="#fff"/>
      </g>
      <g id="Group_3939" data-name="Group 3939" transform="translate(43.999 136.876)">
        <rect id="Rectangle_462" data-name="Rectangle 462" width="0.703" height="20.705" fill="#fff"/>
      </g>
      <g id="Group_3940" data-name="Group 3940" transform="translate(135.806 119.493)">
        <path id="Path_7184" data-name="Path 7184" d="M1557.493,1162.382a4.691,4.691,0,0,0-3.144-.129l-.19-.669a5.3,5.3,0,0,1,3.659.182Z" transform="translate(-1554.159 -1161.356)" fill="#0c2238"/>
      </g>
      <g id="Group_3941" data-name="Group 3941" transform="translate(132.326 108.454)">
        <path id="Path_7185" data-name="Path 7185" d="M1527.861,1080.817c-.07-.6-.209-1.3-.345-1.97-.372-1.852-.693-3.451.1-4.03.59-.429,1.452-.051,2.05.269a11.575,11.575,0,0,0,5.146,1.13l.026.694a12.107,12.107,0,0,1-5.508-1.214c-.9-.486-1.208-.385-1.3-.32-.436.317-.085,2.061.171,3.335.138.686.281,1.4.353,2.027Z" transform="translate(-1527.125 -1074.624)" fill="#0c2238"/>
      </g>
      <g id="Group_3942" data-name="Group 3942" transform="translate(42.649 28.262)">
        <path id="Path_7186" data-name="Path 7186" d="M832.257,445.485a.919.919,0,1,1-.937-.891A.914.914,0,0,1,832.257,445.485Z" transform="translate(-830.419 -444.594)" fill="#0c2238"/>
      </g>
      <g id="Group_3943" data-name="Group 3943" transform="translate(33.266 28.262)">
        <path id="Path_7187" data-name="Path 7187" d="M759.359,445.485a.919.919,0,1,1-.937-.891A.914.914,0,0,1,759.359,445.485Z" transform="translate(-757.521 -444.594)" fill="#0c2238"/>
      </g>
      <g id="Group_3944" data-name="Group 3944" transform="translate(30.137 30.891)">
        <path id="Path_7188" data-name="Path 7188" d="M734.7,468.363a1.557,1.557,0,1,0-1.48-1.645A1.568,1.568,0,0,0,734.7,468.363Z" transform="translate(-733.215 -465.252)" fill="#f5646c"/>
      </g>
      <g id="Group_3945" data-name="Group 3945" transform="translate(38.242 27.954)">
        <path id="Path_7189" data-name="Path 7189" d="M796.961,448.076c-.055,0-.11,0-.165-.008l-.615-.059.068-.692.615.059a.905.905,0,0,0,.74-.256.438.438,0,0,0,.129-.377l-.829-4.438.691-.126.829,4.438a1.125,1.125,0,0,1-.3.973A1.582,1.582,0,0,1,796.961,448.076Z" transform="translate(-796.181 -442.179)" fill="#0c2238"/>
      </g>
      <g id="Group_3946" data-name="Group 3946" transform="translate(32.106 24.627)">
        <path id="Path_7190" data-name="Path 7190" d="M749.9,419.01c.138.413,1.095.464,2.136.114s1.774-.968,1.636-1.381-1.095-.464-2.137-.114S749.759,418.6,749.9,419.01Z" transform="translate(-749.704 -417.224)" fill="#0c2238"/>
        <path id="Path_7191" data-name="Path 7191" d="M749.563,418.345a1.647,1.647,0,0,1-.71-.131.588.588,0,0,1-.315-.333c-.2-.592.751-1.266,1.746-1.6a3.045,3.045,0,0,1,2.044-.109.588.588,0,0,1,.316.333c.2.592-.751,1.266-1.746,1.6A4.318,4.318,0,0,1,749.563,418.345Zm2.05-1.959a3.91,3.91,0,0,0-1.217.224c-1.051.353-1.605.924-1.525,1.161h0a.251.251,0,0,0,.138.131,2.7,2.7,0,0,0,1.775-.128c1.051-.353,1.6-.923,1.525-1.161a.249.249,0,0,0-.138-.131A1.324,1.324,0,0,0,751.613,416.386Z" transform="translate(-748.51 -416.041)" fill="#0c2238"/>
      </g>
      <g id="Group_3947" data-name="Group 3947" transform="translate(41.906 23.947)">
        <path id="Path_7192" data-name="Path 7192" d="M829.874,413.437c-.106.424-1.053.553-2.116.288s-1.839-.822-1.734-1.246,1.053-.553,2.116-.288S829.98,413.014,829.874,413.437Z" transform="translate(-825.838 -411.881)" fill="#0c2238"/>
        <path id="Path_7193" data-name="Path 7193" d="M827.608,412.851a4.581,4.581,0,0,1-1.086-.141c-1.016-.253-2.013-.849-1.862-1.456a.591.591,0,0,1,.29-.359,3.035,3.035,0,0,1,2.04-.056c1.016.253,2.013.849,1.862,1.456a.591.591,0,0,1-.29.359A1.935,1.935,0,0,1,827.608,412.851Zm-1.7-1.809a1.6,1.6,0,0,0-.772.15.254.254,0,0,0-.13.144c-.062.25.519.765,1.606,1.036a2.691,2.691,0,0,0,1.773-.017.255.255,0,0,0,.13-.145c.062-.25-.519-.765-1.606-1.036A4.2,4.2,0,0,0,825.9,411.043Z" transform="translate(-824.645 -410.697)" fill="#0c2238"/>
      </g>
      <g id="Group_3948" data-name="Group 3948" transform="translate(19.596 0.536)">
        <path id="Path_7194" data-name="Path 7194" d="M656.172,262.47l-.162,0a4.807,4.807,0,0,1-2.568-8.8,5.044,5.044,0,0,1,1.675-.74c-1.853-3.745-2.662-12.3-.214-15.281a2.273,2.273,0,0,1,2.848-.6c-.045-1.172.318-3.427,3.443-4.733a4.344,4.344,0,0,1,3.706.274c1.882-2.827,8.248-6.9,12.982-5.567a8.916,8.916,0,0,1,6.025,6.827,8.054,8.054,0,0,1-2.647,8.087,8.223,8.223,0,0,1-10.048.577c-1.57,1.88-2.871,2.025-4.8,2.239a25.659,25.659,0,0,0-2.943.457c-3.749.836-4.708,8.425-4.717,8.5l-.508.269a4.633,4.633,0,0,0-.825-.328,4.271,4.271,0,0,0-3.582.589,4.13,4.13,0,1,0,5.241,6.344l.493.495A4.836,4.836,0,0,1,656.172,262.47Zm.09-9.672a4.942,4.942,0,0,1,1.356.19,5,5,0,0,1,.508.175c.281-1.761,1.508-7.806,5.193-8.628a26.275,26.275,0,0,1,3.019-.47c1.964-.218,3.045-.338,4.53-2.234l.5-.058a7.464,7.464,0,0,0,9.446-.368A7.374,7.374,0,0,0,683.219,234a8.214,8.214,0,0,0-5.529-6.3c-4.518-1.267-10.9,2.951-12.367,5.545l-.51.114a3.8,3.8,0,0,0-3.346-.393c-3.753,1.569-2.975,4.537-2.94,4.663l-.557.365c-.06-.047-1.5-1.143-2.521.1-2.153,2.621-1.585,11.028.4,14.726Q656.053,252.8,656.262,252.8Z" transform="translate(-651.318 -226.766)" fill="#0c2238"/>
      </g>
      <g id="Group_3949" data-name="Group 3949" transform="translate(44.213 17.366)">
        <path id="Path_7195" data-name="Path 7195" d="M846.325,370.616l-.7-.024.107-3.071c.091-2.978-1.645-6.223-3.16-8.1l.549-.434c1.589,1.966,3.41,5.386,3.313,8.55Z" transform="translate(-842.57 -358.991)" fill="#0c2238"/>
      </g>
      <g id="Group_3950" data-name="Group 3950" transform="translate(25.382 28.741)">
        <path id="Path_7196" data-name="Path 7196" d="M707.4,465.418q-.188,0-.378-.006a11.171,11.171,0,0,1-10.749-10.134l.7-.063a10.515,10.515,0,0,0,20.962-.374l.225-6.479.7.024-.226,6.488A11.2,11.2,0,0,1,707.4,465.418Z" transform="translate(-696.274 -448.363)" fill="#0c2238"/>
      </g>
      <g id="Group_3951" data-name="Group 3951" transform="translate(22.767 28.903)">
        <path id="Path_7197" data-name="Path 7197" d="M678.37,451.806l-.288-.634a4.272,4.272,0,0,1,1.547-.395,3.691,3.691,0,0,0-3.365-.086l-.308-.625c.032-.015,3.171-1.485,5.027,1.067l-.487.487C680.472,451.606,679.779,451.179,678.37,451.806Z" transform="translate(-675.956 -449.632)" fill="#0c2238"/>
      </g>
      <g id="Group_3952" data-name="Group 3952" transform="translate(30.502 43.868)">
        <path id="Path_7198" data-name="Path 7198" d="M741.319,577.933a8.6,8.6,0,0,1-5.125-1.814l-.143-.28v-8.632h.7v8.455a7.188,7.188,0,0,0,8.589.309l-.2-7.728.7-.018.208,7.9-.123.273A7.767,7.767,0,0,1,741.319,577.933Z" transform="translate(-736.051 -567.207)" fill="#0c2238"/>
      </g>
      <g id="Group_3953" data-name="Group 3953" transform="translate(25.908 34.801)">
        <path id="Path_7199" data-name="Path 7199" d="M702.25,495.968l-1.482,3.086s-.274-.982-.273-1.013-.136-1.117-.136-1.117Z" transform="translate(-700.358 -495.968)" fill="#0c2238"/>
      </g>
      <g id="Group_3954" data-name="Group 3954" transform="translate(34.542 33.089)">
        <path id="Path_7200" data-name="Path 7200" d="M771.1,485.884c-2.247,0-3.378-2.058-3.667-3.192l.681-.171c.03.116.764,2.847,3.221,2.659l.054.693Q771.243,485.884,771.1,485.884Z" transform="translate(-767.434 -482.521)" fill="#0c2238"/>
      </g>
      <g id="Group_3955" data-name="Group 3955" transform="translate(22.158 0.873)">
        <path id="Path_7201" data-name="Path 7201" d="M673.087,255.507c.025.02,2.832.333,2.832.333a23.072,23.072,0,0,1,.793-2.2c.292-.585,1.376-4.537,4.238-5s5.529-.467,6.391-1.718,1.107-1.3,1.458-1.065,4.11,3.1,7.887.574,4.169-5.448,4.42-7.763a9.792,9.792,0,0,0-3.62-7.718c-2.278-1.582-4.355-2-7.745-.966a11.405,11.405,0,0,0-5.109,3.072l-2.3,2.158s-2.394-1.384-4.068-.12-2.391,1.805-2.823,3.808l-.178,1.232a1.664,1.664,0,0,0-1.67-.305,3.509,3.509,0,0,0-1.856,2.263c-.252.893-1.142,4.77.25,11.317A4.289,4.289,0,0,0,673.087,255.507Z" transform="translate(-671.222 -229.417)" fill="#0c2238"/>
      </g>
      <g id="Group_3956" data-name="Group 3956" transform="translate(0 157.292)">
        <rect id="Rectangle_463" data-name="Rectangle 463" width="193.151" height="0.695" fill="#0c2238"/>
      </g>
      <g id="Group_3957" data-name="Group 3957" transform="translate(52.099 138.947)">
        <rect id="Rectangle_464" data-name="Rectangle 464" width="4.862" height="0.696" transform="matrix(1, -0.012, 0.012, 1, 0, 0.059)" fill="#0c2238"/>
      </g>
      <g id="Group_3958" data-name="Group 3958" transform="translate(45.788 79.399)">
        <path id="Path_7202" data-name="Path 7202" d="M855.141,854.884l-.332-.613a21.444,21.444,0,0,0,4.112-2.822c.491-.5,4.844-4.864,6.5-4.427a.589.589,0,0,1,.43.437c.221.884-1.479,3.214-2.781,4.669a24.183,24.183,0,0,0,7.647-3.679c2.719-1.986,3.5-2.247,3.979-2.035a.672.672,0,0,1,.39.6c.151,1.513-4.226,6.209-8.714,7.414l-.184-.67c4.348-1.168,8.293-5.728,8.2-6.676,0-.015,0-.026-.005-.036-.219,0-.928.268-3.247,1.961a23.785,23.785,0,0,1-9.086,4.077l-.3-.6c1.545-1.419,3.426-4.177,3.426-4.807-.967-.1-3.971,2.442-5.748,4.251A21.683,21.683,0,0,1,855.141,854.884Z" transform="translate(-854.809 -846.354)" fill="#0c2238"/>
      </g>
      <g id="Group_3959" data-name="Group 3959" transform="translate(57.478 83.858)">
        <path id="Path_7203" data-name="Path 7203" d="M945.857,886.826l-.233-.655c3.021-1.049,4.945-4.748,4.964-4.786l.627.314C951.132,881.861,949.141,885.686,945.857,886.826Z" transform="translate(-945.624 -881.385)" fill="#0c2238"/>
      </g>
      <g id="Group_3960" data-name="Group 3960" transform="translate(48.795 87.04)">
        <path id="Path_7204" data-name="Path 7204" d="M878.655,915.428l-.489-.5a19.661,19.661,0,0,1,4.224-2.659c2.812-1.484,6-3.165,7.035-5.882l.658.245c-1.128,2.962-4.44,4.709-7.362,6.251A19.258,19.258,0,0,0,878.655,915.428Z" transform="translate(-878.166 -906.387)" fill="#0c2238"/>
      </g>
      <g id="Group_3961" data-name="Group 3961" transform="translate(53.237 73.139)">
        <path id="Path_7205" data-name="Path 7205" d="M915.793,805.315l1.244-5.581,8.287-2.557-1.779,7.14s-4.007,3.244-7.271,4.311-3.593.936-3.593.936S915.836,806.189,915.793,805.315Z" transform="translate(-912.681 -797.177)" fill="#0c2238"/>
      </g>
      <g id="Group_3962" data-name="Group 3962" transform="translate(16.161 72.046)">
        <path id="Path_7206" data-name="Path 7206" d="M624.769,834.681,624.63,834c13.959-2.775,30.724-19.89,32.473-21.709l-3.083-8.2-23.183,9.077-.472-.4c.013-.053,1.269-5.489,2.852-18.1.277-2.206.46-4.249.545-6.071l.7.032c-.086,1.84-.271,3.9-.55,6.125-1.284,10.231-2.355,15.762-2.726,17.536l22.906-8.969.459.2,3.284,8.739-.072.358C657.586,812.8,639.663,831.72,624.769,834.681Z" transform="translate(-624.63 -788.587)" fill="#0c2238"/>
      </g>
      <g id="Group_3963" data-name="Group 3963" transform="translate(50.985 72.038)">
        <path id="Path_7356" data-name="Path 7356" d="M0,0H.7L.711,10.873h-.7Z" transform="translate(0 0.049) rotate(-4.008)" fill="#0c2238"/>
      </g>
      <g id="Group_3964" data-name="Group 3964" transform="translate(32.064 93.803)">
        <path id="Path_7207" data-name="Path 7207" d="M768.226,976.243H748.187v-.695h19.688V959.523h.7V975.9Z" transform="translate(-748.187 -959.523)" fill="#0c2238"/>
      </g>
      <g id="Group_3965" data-name="Group 3965" transform="translate(24.139 113.867)">
        <path id="Path_7208" data-name="Path 7208" d="M686.862,1130l-.246-.651c6.259-2.312,9.234-12.1,9.263-12.2l.674.2C696.43,1117.768,693.451,1127.569,686.862,1130Z" transform="translate(-686.616 -1117.156)" fill="#fff"/>
      </g>
      <g id="Group_3966" data-name="Group 3966" transform="translate(23.043 116.818)">
        <path id="Path_7209" data-name="Path 7209" d="M678.161,1181.108c0-.065-.143-6.647,0-20.039.143-13.419,1.631-20.66,1.646-20.731l.688.141c-.015.071-1.49,7.255-1.631,20.6-.143,13.378,0,19.951,0,20.016Z" transform="translate(-678.097 -1140.338)" fill="#fff"/>
      </g>
      <g id="Group_3967" data-name="Group 3967" transform="translate(30.854 43.979)">
        <path id="Path_7210" data-name="Path 7210" d="M742.686,569.406c.181.017-3.9,2.835-3.9,2.835l.183-4.167A14.345,14.345,0,0,0,742.686,569.406Z" transform="translate(-738.781 -568.074)" fill="#0c2238"/>
      </g>
      <g id="Group_3968" data-name="Group 3968" transform="translate(32.286)">
        <path id="Path_7211" data-name="Path 7211" d="M750.558,229.806l-.65-.265a17.577,17.577,0,0,1,5.554-6.985l.4.572A17.191,17.191,0,0,0,750.558,229.806Z" transform="translate(-749.908 -222.556)" fill="#0c2238"/>
      </g>
      <g id="Group_3969" data-name="Group 3969" transform="translate(143.22 4.87)">
        <path id="Path_7212" data-name="Path 7212" d="M1616.967,263.162c-.054-.078-1.371-1.9-5.15-1.617l-.054-.693c4.215-.319,5.723,1.829,5.786,1.921l-.583.387.292-.194Z" transform="translate(-1611.764 -260.82)" fill="#0c2238"/>
      </g>
      <g id="Group_3970" data-name="Group 3970" transform="translate(15.369 98.009)">
        <path id="Path_7213" data-name="Path 7213" d="M619.9,998.335l-.281-.636c1.241-.537,2.44-2.549,3.115-3.862a13.773,13.773,0,0,1-4.2,1l-.052-.693c1.038-.077,3.936-.511,4.869-1.577l.59.361C623.862,993.11,622.029,997.414,619.9,998.335Z" transform="translate(-618.48 -992.566)" fill="#0c2238"/>
      </g>
      <g id="Group_3971" data-name="Group 3971" transform="translate(136.556 141.378)">
        <path id="Path_7214" data-name="Path 7214" d="M1564.967,1348.3c-3.976-.973-4.886-13.535-4.976-14.964l.7-.043c.237,3.742,1.5,13.613,4.444,14.333Z" transform="translate(-1559.99 -1333.296)" fill="#0c2238"/>
      </g>
      <g id="Group_3972" data-name="Group 3972" transform="translate(51.703 139.291)">
        <path id="Path_7215" data-name="Path 7215" d="M900.967,1333.7l-.208-.664c4.835-1.482,4.563-15.973,4.56-16.119l.7-.016C906.036,1317.518,906.3,1332.063,900.967,1333.7Z" transform="translate(-900.759 -1316.9)" fill="#0c2238"/>
      </g>
      <g id="Group_3973" data-name="Group 3973" transform="translate(91.781 115.108)">
        <path id="Path_7216" data-name="Path 7216" d="M1214.856,1132.9l-2.728-4.378s4.4-1.28,6.307-1.582a1.878,1.878,0,0,1,2.208,1.582l-2.055,2.643Z" transform="translate(-1212.128 -1126.905)" fill="#ff8c92"/>
      </g>
      <g id="Group_3974" data-name="Group 3974" transform="translate(67.747 109.727)">
        <path id="Path_7217" data-name="Path 7217" d="M1058.742,1110.245l-19.361,10.078a.723.723,0,0,1-.972-.3l-12.923-24.276a.707.707,0,0,1,.3-.961l19.361-10.078a.723.723,0,0,1,.971.3l12.923,24.276A.708.708,0,0,1,1058.742,1110.245Z" transform="translate(-1025.404 -1084.629)" fill="#0c2238"/>
        <path id="Path_7218" data-name="Path 7218" d="M1040.148,1120.892a2.344,2.344,0,0,1-.689-.1,2.294,2.294,0,0,1-1.362-1.12l-11.764-22.1a2.279,2.279,0,0,1,.97-3.092l17.159-8.932a2.324,2.324,0,0,1,1.764-.161,2.3,2.3,0,0,1,1.362,1.12l11.764,22.1a2.279,2.279,0,0,1-.97,3.092l-17.159,8.932A2.321,2.321,0,0,1,1040.148,1120.892Zm5.39-34.916a1.623,1.623,0,0,0-.749.184l-17.159,8.932a1.587,1.587,0,0,0-.676,2.153l11.764,22.1a1.6,1.6,0,0,0,.949.78,1.621,1.621,0,0,0,1.228-.112l17.159-8.932a1.587,1.587,0,0,0,.676-2.153l-11.764-22.1a1.6,1.6,0,0,0-.949-.78A1.636,1.636,0,0,0,1045.538,1085.977Z" transform="translate(-1025.981 -1085.198)" fill="#0c2238"/>
      </g>
      <g id="Group_3975" data-name="Group 3975" transform="translate(84.529 122.369)">
        <path id="Path_7219" data-name="Path 7219" d="M1159.606,1183.946c12.23,3.257,24.684,3.245,37.4,1.3a13.556,13.556,0,0,1,.916,3.459s2.3,12.73,2.2,19.106a107.478,107.478,0,0,0,.407,11.408h-44.645s-.272-11.007.124-16A77.552,77.552,0,0,1,1159.606,1183.946Z" transform="translate(-1155.79 -1183.946)" fill="#0c2238"/>
      </g>
      <g id="Group_3976" data-name="Group 3976" transform="translate(83.827 116.361)">
        <path id="Path_7220" data-name="Path 7220" d="M1159.893,1139.252s-7.524,3.92-8.677,4.708-1.415,1.68.7,1.568c0,0-1.153-.064-.944.592s3.557.465,3.557.465l-1.971.163s.05.614,1.253.95,5.657.32,11.522-2.8l3.794-2.141-2.618-6.008Z" transform="translate(-1150.335 -1136.745)" fill="#ff8c92"/>
      </g>
      <g id="Group_3977" data-name="Group 3977" transform="translate(89.85 60.769)">
        <path id="Path_7357" data-name="Path 7357" d="M1.808,0A1.828,1.828,0,0,1,3.62,1.835a1.805,1.805,0,0,1-1.8,1.821A1.828,1.828,0,0,1,0,1.826,1.805,1.805,0,0,1,1.808,0Z" transform="translate(0 3.508) rotate(-76.125)" fill="#fff"/>
      </g>
      <g id="Group_3978" data-name="Group 3978" transform="translate(101.629 75.796)">
        <path id="Path_7358" data-name="Path 7358" d="M1.824.007A1.834,1.834,0,0,1,3.655,1.824a1.8,1.8,0,0,1-1.817,1.8A1.834,1.834,0,0,1,.007,1.81,1.8,1.8,0,0,1,1.824.007Z" transform="translate(0 1.395) rotate(-22.707)" fill="#fff"/>
      </g>
      <g id="Group_3979" data-name="Group 3979" transform="translate(92.061 92.485)">
        <ellipse id="Ellipse_185" data-name="Ellipse 185" cx="1.827" cy="1.807" rx="1.827" ry="1.807" transform="translate(0 0)" fill="#fff"/>
      </g>
      <g id="Group_3980" data-name="Group 3980" transform="translate(121.566 118.984)">
        <ellipse id="Ellipse_186" data-name="Ellipse 186" cx="1.827" cy="1.807" rx="1.827" ry="1.807" transform="translate(0 0)" fill="#fff"/>
      </g>
      <g id="Group_3981" data-name="Group 3981" transform="translate(106.216 101.056)">
        <ellipse id="Ellipse_187" data-name="Ellipse 187" cx="1.827" cy="1.807" rx="1.827" ry="1.807" transform="translate(0 0)" fill="#fff"/>
      </g>
      <g id="Group_3982" data-name="Group 3982" transform="translate(118.46 86.621)">
        <path id="Path_7359" data-name="Path 7359" d="M1.808,0A1.828,1.828,0,0,1,3.62,1.835a1.806,1.806,0,0,1-1.8,1.821A1.828,1.828,0,0,1,0,1.826,1.806,1.806,0,0,1,1.808,0Z" transform="matrix(0.231, -0.973, 0.973, 0.231, 0, 3.515)" fill="#fff"/>
      </g>
      <g id="Group_3983" data-name="Group 3983" transform="translate(114.353 62.053)">
        <ellipse id="Ellipse_189" data-name="Ellipse 189" cx="1.827" cy="1.807" rx="1.827" ry="1.807" fill="#fff"/>
      </g>
      <g id="Group_3984" data-name="Group 3984" transform="translate(126.719 76.167)">
        <path id="Path_7360" data-name="Path 7360" d="M1.824.007A1.834,1.834,0,0,1,3.655,1.824a1.8,1.8,0,0,1-1.817,1.8A1.834,1.834,0,0,1,.007,1.81,1.8,1.8,0,0,1,1.824.007Z" transform="translate(0 1.395) rotate(-22.707)" fill="#fff"/>
      </g>
      <g id="Group_3985" data-name="Group 3985" transform="translate(127.747 102.114)">
        <path id="Path_7361" data-name="Path 7361" d="M1.817.01A1.841,1.841,0,0,1,3.644,1.837,1.792,1.792,0,0,1,1.837,3.644,1.841,1.841,0,0,1,.01,1.817,1.792,1.792,0,0,1,1.817.01Z" transform="translate(0 2.555) rotate(-45)" fill="#fff"/>
      </g>
      <g id="Group_3986" data-name="Group 3986" transform="translate(105.481 108.883)">
        <path id="Path_7221" data-name="Path 7221" d="M1322.014,1079.288a1.83,1.83,0,0,1-3.451.827l2.9-2.12A1.807,1.807,0,0,1,1322.014,1079.288Z" transform="translate(-1318.563 -1077.995)" fill="#fff"/>
      </g>
      <g id="Group_3987" data-name="Group 3987" transform="translate(79.657 83.297)">
        <path id="Path_7362" data-name="Path 7362" d="M1.807,0a1.825,1.825,0,0,1,1.81,1.83,1.809,1.809,0,0,1-1.8,1.823A1.825,1.825,0,0,1,0,1.826,1.809,1.809,0,0,1,1.807,0Z" transform="translate(0 3.566) rotate(-80.741)" fill="#fff"/>
      </g>
      <g id="Group_3988" data-name="Group 3988" transform="translate(67.232 65.226)">
        <path id="Path_7363" data-name="Path 7363" d="M1.807,0A1.82,1.82,0,0,1,3.614,1.829,1.814,1.814,0,0,1,1.809,3.655,1.82,1.82,0,0,1,0,1.827,1.814,1.814,0,0,1,1.807,0Z" transform="translate(0 3.608) rotate(-86.825)" fill="#fff"/>
      </g>
      <g id="Group_3989" data-name="Group 3989" transform="translate(99.916 55.434)">
        <path id="Path_7222" data-name="Path 7222" d="M1279.531,660.567a5.571,5.571,0,0,1-.9-.073,5.27,5.27,0,0,1-3.3-1.941l.576-.4a4.641,4.641,0,0,0,2.851,1.656c1.63.263,3.448-.321,5.4-1.737l.415.561A8.745,8.745,0,0,1,1279.531,660.567Z" transform="translate(-1275.328 -658.074)" fill="#0c2238"/>
      </g>
      <g id="Group_3990" data-name="Group 3990" transform="translate(99.854 46.885)">
        <rect id="Rectangle_466" data-name="Rectangle 466" width="9.005" height="0.705" transform="translate(0 9.003) rotate(-88.88)" fill="#0c2238"/>
      </g>
      <g id="Group_3991" data-name="Group 3991" transform="translate(125.364 123.601)">
        <path id="Path_7223" data-name="Path 7223" d="M1476.882,1227.542l-.7,0a158.6,158.6,0,0,0-3.139-33.765l.688-.144A159.3,159.3,0,0,1,1476.882,1227.542Z" transform="translate(-1473.04 -1193.629)" fill="#0c2238"/>
      </g>
      <g id="Group_3992" data-name="Group 3992" transform="translate(100.609 32.061)">
        <path id="Path_7224" data-name="Path 7224" d="M1282.233,475.315a.764.764,0,1,1-.634-.865A.763.763,0,0,1,1282.233,475.315Z" transform="translate(-1280.714 -474.44)" fill="#0c2238"/>
      </g>
      <g id="Group_3993" data-name="Group 3993" transform="translate(108.511 33.311)">
        <path id="Path_7225" data-name="Path 7225" d="M1343.623,485.136a.764.764,0,1,1-.634-.865A.763.763,0,0,1,1343.623,485.136Z" transform="translate(-1342.105 -484.261)" fill="#0c2238"/>
      </g>
      <g id="Group_3994" data-name="Group 3994" transform="translate(103.622 31.725)">
        <path id="Path_7226" data-name="Path 7226" d="M1305.551,477.354a1.514,1.514,0,0,1-1.155-.51,1.065,1.065,0,0,1-.246-.936l.96-4.107.685.156-.96,4.107a.381.381,0,0,0,.1.332.824.824,0,0,0,.67.261l.58-.032.039.694-.58.032Z" transform="translate(-1304.124 -471.801)" fill="#0c2238"/>
      </g>
      <g id="Group_3995" data-name="Group 3995" transform="translate(116.026 34.755)">
        <path id="Path_7227" data-name="Path 7227" d="M1402.782,497.655c-1.186-.822-1.9-.546-1.909-.543l-.382-.571c2.187-2.022,4.831-.112,4.858-.092l-.42.557a3.524,3.524,0,0,0-3.034-.539,4.1,4.1,0,0,1,1.291.619Z" transform="translate(-1400.49 -495.613)" fill="#0c2238"/>
      </g>
      <g id="Group_3996" data-name="Group 3996" transform="translate(90.668 30.614)">
        <path id="Path_7228" data-name="Path 7228" d="M1207.524,465.281c-.02-.016-.61-.485-1.986-.073l-.2-.665a4.122,4.122,0,0,1,1.424-.19,3.5,3.5,0,0,0-3.054-.424l-.224-.659c.031-.01,3.146-1.008,4.586,1.587Z" transform="translate(-1203.481 -463.072)" fill="#0c2238"/>
      </g>
      <g id="Group_3997" data-name="Group 3997" transform="translate(109.859 35.327)">
        <path id="Path_7229" data-name="Path 7229" d="M1355.206,501.621a1.322,1.322,0,1,1-1.1-1.5A1.32,1.32,0,0,1,1355.206,501.621Z" transform="translate(-1352.578 -500.107)" fill="#f5646c"/>
      </g>
      <g id="Group_3998" data-name="Group 3998" transform="translate(99.409 27.881)">
        <path id="Path_7230" data-name="Path 7230" d="M1274.568,442.984c-1.04.086-1.853.524-1.814.978s.913.752,1.954.665,1.852-.524,1.814-.978S1275.609,442.9,1274.568,442.984Z" transform="translate(-1272.577 -442.795)" fill="#0c2238"/>
        <path id="Path_7231" data-name="Path 7231" d="M1273.163,443.624a3.329,3.329,0,0,1-1.054-.155c-.439-.149-.694-.393-.719-.685s.186-.574.593-.794a3.993,3.993,0,0,1,2.805-.233c.439.149.694.393.719.685.048.567-.8,1.068-1.974,1.165C1273.408,443.618,1273.284,443.624,1273.163,443.624Zm.575-1.673c-.112,0-.228,0-.344.014a3.262,3.262,0,0,0-1.242.331c-.27.145-.423.317-.411.459s.193.286.483.386a3.294,3.294,0,0,0,1.28.121c.978-.081,1.68-.484,1.654-.79-.012-.142-.193-.286-.483-.385A2.97,2.97,0,0,0,1273.738,441.951Z" transform="translate(-1271.388 -441.603)" fill="#0c2238"/>
      </g>
      <g id="Group_3999" data-name="Group 3999" transform="translate(108.135 29.063)">
        <path id="Path_7232" data-name="Path 7232" d="M1342.64,452.517c-.975-.368-1.9-.321-2.063.1s.494,1.069,1.469,1.436,1.9.321,2.063-.1S1343.616,452.885,1342.64,452.517Z" transform="translate(-1340.376 -452.094)" fill="#0c2238"/>
        <path id="Path_7233" data-name="Path 7233" d="M1342.082,453.277a3.765,3.765,0,0,1-1.289-.26,3.593,3.593,0,0,1-1.223-.736c-.33-.323-.454-.651-.348-.925.2-.531,1.189-.619,2.29-.2h0c1.1.415,1.776,1.129,1.57,1.661-.105.274-.419.438-.883.461Zm-1.864-2.036c-.358,0-.61.089-.668.24-.051.134.048.341.267.554a3.629,3.629,0,0,0,2.365.892c.307-.015.521-.1.573-.238.11-.287-.451-.866-1.368-1.212h0A3.422,3.422,0,0,0,1340.219,451.24Z" transform="translate(-1339.186 -450.891)" fill="#0c2238"/>
      </g>
      <g id="Group_4000" data-name="Group 4000" transform="translate(100.475 31.928)">
        <path id="Path_7234" data-name="Path 7234" d="M1282.483,475.455a.723.723,0,1,1-.745-.691A.718.718,0,0,1,1282.483,475.455Z" transform="translate(-1280.862 -474.589)" fill="#0c2238"/>
        <path id="Path_7235" data-name="Path 7235" d="M1280.571,475.174a.9.9,0,0,1-.614-.241.881.881,0,0,1-.04-1.255.905.905,0,0,1,1.27-.04.881.881,0,0,1,.04,1.255.9.9,0,0,1-.626.28Zm0-1.429h-.018a.546.546,0,0,0-.381.171.541.541,0,0,0,.416.911.546.546,0,0,0,.381-.171.537.537,0,0,0-.025-.764A.547.547,0,0,0,1280.572,473.745Z" transform="translate(-1279.673 -473.397)" fill="#0c2238"/>
      </g>
      <g id="Group_4001" data-name="Group 4001" transform="translate(108.336 33.171)">
        <path id="Path_7236" data-name="Path 7236" d="M1343.556,485.225a.722.722,0,1,1-.745-.691A.718.718,0,0,1,1343.556,485.225Z" transform="translate(-1341.936 -484.359)" fill="#0c2238"/>
        <path id="Path_7237" data-name="Path 7237" d="M1341.644,484.941a.9.9,0,0,1-.614-.24.88.88,0,0,1-.283-.619.893.893,0,0,1,.869-.916.886.886,0,0,1,.684,1.5.9.9,0,0,1-.627.28Zm0-1.429h-.018a.544.544,0,0,0-.529.558.534.534,0,0,0,.172.377.551.551,0,0,0,.773-.024.536.536,0,0,0-.025-.764A.545.545,0,0,0,1341.645,483.513Z" transform="translate(-1340.746 -483.165)" fill="#0c2238"/>
      </g>
      <g id="Group_4002" data-name="Group 4002" transform="translate(96.087 56.849)">
        <path id="Path_7238" data-name="Path 7238" d="M1251.528,674.2a8.225,8.225,0,0,1-5.944-4.781l.664-.229a7.673,7.673,0,0,0,5.447,4.334Z" transform="translate(-1245.584 -669.19)" fill="#0c2238"/>
      </g>
      <g id="Group_4003" data-name="Group 4003" transform="translate(108.599 47.156)">
        <rect id="Rectangle_467" data-name="Rectangle 467" width="8.557" height="0.703" transform="translate(0 8.557) rotate(-89.889)" fill="#0c2238"/>
      </g>
      <g id="Group_4004" data-name="Group 4004" transform="translate(103.333 37.215)">
        <path id="Path_7239" data-name="Path 7239" d="M1304.858,521.679a1.688,1.688,0,0,1-.81-.209c-1.658-.893-2.149-4.5-2.169-4.653l.523-.346c.084.047,2.058,1.109,4.073-1.536l.617.11c.062.207,1.5,5.075-1.359,6.422A2.049,2.049,0,0,1,1304.858,521.679Zm-2.186-4.379c.227,1.158.778,3.057,1.713,3.56a1.1,1.1,0,0,0,1.046-.021c1.777-.838,1.419-3.652,1.148-4.941A3.894,3.894,0,0,1,1302.672,517.3Z" transform="translate(-1301.879 -514.936)" fill="#0c2238"/>
      </g>
      <g id="Group_4005" data-name="Group 4005" transform="translate(104.827 39.659)">
        <path id="Path_7240" data-name="Path 7240" d="M1313.82,537.49l-.335-.1a5.2,5.2,0,0,1,3.57-3.247l.083.338A4.937,4.937,0,0,0,1313.82,537.49Z" transform="translate(-1313.485 -534.139)" fill="#0c2238"/>
      </g>
      <g id="Group_4006" data-name="Group 4006" transform="translate(103.836 37.85)">
        <path id="Path_7241" data-name="Path 7241" d="M1305.788,521.323l2.32-.026,1.911-1.369.409,1.8-1.73.917-1.831,2.156-.943-1.783Z" transform="translate(-1305.788 -519.928)" fill="#0c2238"/>
      </g>
      <g id="Group_4007" data-name="Group 4007" transform="translate(80.432 70.399)">
        <path id="Path_7242" data-name="Path 7242" d="M1127.1,798.971l-.495-.493c1.542-1.512,3.128-4.324,1.93-9.135-.433-1.74-1.016-3.7-1.731-5.828-.808-2.4-1.766-4.962-2.848-7.61l.652-.26c1.088,2.662,2.051,5.237,2.863,7.652.721,2.144,1.309,4.123,1.747,5.881C1130.218,793.177,1129.466,796.655,1127.1,798.971Z" transform="translate(-1123.96 -775.644)" fill="#0c2238"/>
      </g>
      <g id="Group_4008" data-name="Group 4008" transform="translate(81.606 80.824)">
        <path id="Path_7243" data-name="Path 7243" d="M1133.375,871.728l-.3-.63c5.326-2.454,8.378-13.436,8.408-13.547l.678.181C1142.038,858.2,1138.994,869.139,1133.375,871.728Z" transform="translate(-1133.078 -857.551)" fill="#0c2238"/>
      </g>
      <g id="Group_4009" data-name="Group 4009" transform="translate(64.432 54.005)">
        <path id="Path_7244" data-name="Path 7244" d="M1000.03,650.152c-.215,0-.348-.006-.379-.008l.038-.694c.049,0,4.856.221,7.879-2.606l.483.5C1005.282,649.938,1001.277,650.152,1000.03,650.152Z" transform="translate(-999.651 -646.844)" fill="#0c2238"/>
      </g>
      <g id="Group_4010" data-name="Group 4010" transform="translate(60.367 48.803)">
        <path id="Path_7245" data-name="Path 7245" d="M968.977,611.571c-.3,0-.6-.008-.9-.024l.038-.694c7.539.407,13.575-4.823,13.635-4.876l.467.519C981.971,606.711,976.359,611.571,968.977,611.571Z" transform="translate(-968.075 -605.977)" fill="#0c2238"/>
      </g>
      <g id="Group_4011" data-name="Group 4011" transform="translate(71.188 48.557)">
        <path id="Path_7246" data-name="Path 7246" d="M1052.421,604.055c.049-.016,3.052-.073,2.66.5a14.626,14.626,0,0,1-2.938,1.86Z" transform="translate(-1052.143 -604.046)" fill="#0c2238"/>
      </g>
      <g id="Group_4012" data-name="Group 4012" transform="translate(60.387 51.615)">
        <path id="Path_7247" data-name="Path 7247" d="M970.82,628.068s-2.572,1.217-2.6,2.091,3.834-.159,3.834-.159Z" transform="translate(-968.224 -628.068)" fill="#0c2238"/>
      </g>
      <g id="Group_4013" data-name="Group 4013" transform="translate(96.767 111.792)">
        <path id="Path_7248" data-name="Path 7248" d="M1257.085,1114.859l-.645-.193c.053-7.464-5.519-13.179-5.575-13.236l.343-.579,5.327,1.416.152.085c3.22,3.062,3.225,7.957,3.223,8.164l-.058.189Zm-4.935-13.038a21.254,21.254,0,0,1,4.962,11.734l2.094-3.143c-.019-.7-.244-4.87-2.942-7.5Z" transform="translate(-1250.865 -1100.851)" fill="#0c2238"/>
      </g>
      <g id="Group_4014" data-name="Group 4014" transform="translate(96.61 112.244)">
        <path id="Path_7249" data-name="Path 7249" d="M1249.738,1107.39c-.019-.048-.337-3.339.322-2.959a13.762,13.762,0,0,1,2.019,2.813Z" transform="translate(-1249.645 -1104.4)" fill="#0c2238"/>
      </g>
      <g id="Group_4015" data-name="Group 4015" transform="translate(99.717 122.599)">
        <path id="Path_7250" data-name="Path 7250" d="M1273.784,1187.646a7.351,7.351,0,0,0,2.653,1.137c.884-.018-.118-3.025-.118-3.025Z" transform="translate(-1273.784 -1185.758)" fill="#0c2238"/>
      </g>
      <g id="Group_4016" data-name="Group 4016" transform="translate(87.875 20.558)">
        <path id="Path_7251" data-name="Path 7251" d="M1199.118,411.915a10.848,10.848,0,0,1-1.7-.134,10.556,10.556,0,0,1-6.828-4.094,10.327,10.327,0,0,1-2.073-6.9,4.6,4.6,0,0,1-2.73.488c-.048,0-.1-.012-.142-.02a4.546,4.546,0,0,1-3.5-2.723,2.119,2.119,0,0,1-.093-.235,4.471,4.471,0,0,1-.211-2.242,4.589,4.589,0,0,1,5.258-3.765,4.662,4.662,0,0,1,2.567,1.262c1.225-5.458,5.949-9.311,6.158-9.48l.538.119a32.41,32.41,0,0,0,13.718,12.887,4.466,4.466,0,0,1,3.24-.641,4.564,4.564,0,0,1,2.991,1.82,4.508,4.508,0,0,1-1.026,6.338,4.628,4.628,0,0,1-6-.523A10.491,10.491,0,0,1,1199.118,411.915ZM1188.73,399.83l.56.323a9.641,9.641,0,0,0,1.868,7.119,9.889,9.889,0,0,0,17.6-4.039l.634-.133a3.912,3.912,0,0,0,5.479.931,3.818,3.818,0,0,0,.869-5.368,3.865,3.865,0,0,0-2.533-1.542,3.691,3.691,0,0,0-2.887.639l-.372.032a33.825,33.825,0,0,1-14.006-12.9c-1.144,1.024-4.957,4.748-5.723,9.5l-.635.144a3.944,3.944,0,0,0-7.05,1.632,3.792,3.792,0,0,0,.181,1.905,1.59,1.59,0,0,0,.071.18,3.856,3.856,0,0,0,2.974,2.318c.032.005.064.01.1.013l.053.008A3.89,3.89,0,0,0,1188.73,399.83Z" transform="translate(-1181.784 -384.07)" fill="#0c2238"/>
      </g>
      <g id="Group_4017" data-name="Group 4017" transform="translate(87.901 37.326)">
        <path id="Path_7252" data-name="Path 7252" d="M1194.406,531.728a44.809,44.809,0,0,1-12.255-3.877l-.165-.441a75.064,75.064,0,0,0,3.551-11.605l.688.143a76.353,76.353,0,0,1-3.468,11.427,44.575,44.575,0,0,0,11.775,3.669Z" transform="translate(-1181.986 -515.805)" fill="#0c2238"/>
      </g>
      <g id="Group_4018" data-name="Group 4018" transform="translate(109.046 40.472)">
        <path id="Path_7253" data-name="Path 7253" d="M1352.149,554.507c-1.8,0-3.789-.048-5.885-.179l.044-.694a95.725,95.725,0,0,0,14.068-.173c-.6-2.614-1.488-9.091-1.982-12.847l.7-.09c.883,6.713,1.634,11.509,2.061,13.157l-.3.431C1360.8,554.118,1357.245,554.507,1352.149,554.507Z" transform="translate(-1346.263 -540.525)" fill="#0c2238"/>
      </g>
      <g id="Group_4019" data-name="Group 4019" transform="translate(92.798 15.119)">
        <path id="Path_7254" data-name="Path 7254" d="M1247.542,359.841c-.076-.663-.132-1.171-.161-1.475-.3-3.187-1.2-9.075-3.759-12.7-4.291-6.069-13.466-2.726-13.558-2.691l-.185.017c-.126-.022-3.113-.48-5.821,2.845-1.492,1.832-2.048,4.224-2.636,6.756-.217.933-.441,1.9-.717,2.84l-.675-.193c.27-.924.492-1.879.707-2.8.607-2.612,1.18-5.08,2.774-7.037,2.736-3.359,5.8-3.177,6.393-3.107.984-.339,9.928-3.2,14.295,2.974,2.653,3.752,3.571,9.774,3.882,13.029.029.3.084.805.16,1.462Z" transform="translate(-1220.029 -341.341)" fill="#0c2238"/>
      </g>
      <g id="Group_4020" data-name="Group 4020" transform="translate(93.306 15.33)">
        <path id="Path_7255" data-name="Path 7255" d="M1233.378,344.1s-4.238-.883-7.373,4.95l-1.212,3.74-.818,4.027a8.4,8.4,0,0,1,2.691,1.483,17.147,17.147,0,0,1,2.751-6.118,21.771,21.771,0,0,1,3.389-3.686,34.659,34.659,0,0,0,8.7,9.8c5.335,3.835,5.364,3.339,5.364,3.339a4.392,4.392,0,0,1,2.762-.751c1.557.144,1.942.614,1.942.614l-1.008-5.966s-1.364-7.472-4.664-10.21a10.906,10.906,0,0,0-9.182-2.028A21.139,21.139,0,0,1,1233.378,344.1Z" transform="translate(-1223.976 -342.998)" fill="#0c2238"/>
      </g>
      <g id="Group_4021" data-name="Group 4021" transform="translate(88.105 36.71)">
        <path id="Path_7256" data-name="Path 7256" d="M1187.392,511.672a115.023,115.023,0,0,1-3.823,11.571,43.094,43.094,0,0,0,12.279,3.644l-.18-5.854s-3.579-2.549-4.286-4.547a30.19,30.19,0,0,1-1.047-5.52S1188.546,511.985,1187.392,511.672Z" transform="translate(-1183.569 -510.966)" fill="#0c2238"/>
      </g>
      <g id="Group_4022" data-name="Group 4022" transform="translate(108.967 39.876)">
        <path id="Path_7257" data-name="Path 7257" d="M1345.913,543.182l-.268,1.865v4.814s3.763.62,14.426-.39l-2.037-12.845s-2.223,1.433-4.27.628-1.824-1.412-1.824-1.412-.936,3.738-2.949,5.276A21.728,21.728,0,0,1,1345.913,543.182Z" transform="translate(-1345.645 -535.842)" fill="#0c2238"/>
      </g>
      <g id="Group_4023" data-name="Group 4023" transform="translate(101.871 123.281)">
        <path id="Path_7258" data-name="Path 7258" d="M1298.039,1193.185q-3.82,0-7.522-.308l.059-.692a98.9,98.9,0,0,0,24.021-1.073l.114.685A103.9,103.9,0,0,1,1298.039,1193.185Z" transform="translate(-1290.517 -1191.112)" fill="#0c2238"/>
      </g>
      <g id="Group_4024" data-name="Group 4024" transform="translate(89.892 73.066)">
        <path id="Path_7364" data-name="Path 7364" d="M0,0,8.514.02l0,.7L0,.7Z" transform="translate(0 8.316) rotate(-77.763)" fill="#0c2238"/>
      </g>
      <g id="Group_4025" data-name="Group 4025" transform="translate(101.927 75.824)">
        <path id="Path_7259" data-name="Path 7259" d="M1291.372,856.17l-.417-.559,23.928-17.472-5.533-19.684.677-.186,5.6,19.914-.13.373Z" transform="translate(-1290.954 -818.269)" fill="#0c2238"/>
      </g>
      <g id="Group_4026" data-name="Group 4026" transform="translate(105.307 106.839)">
        <path id="Path_7365" data-name="Path 7365" d="M0,0,32.853.145l0,.7L0,.7Z" transform="translate(0 14.306) rotate(-26.065)" fill="#0c2238"/>
      </g>
      <g id="Group_4027" data-name="Group 4027" transform="translate(83.344 118.077)">
        <path id="Path_7260" data-name="Path 7260" d="M1147.548,1157.53a1.366,1.366,0,0,1-.447-.062.7.7,0,0,1-.432-.38,1.178,1.178,0,0,1,.02-.954c.979-2.352,8.9-5.549,9.8-5.906l.261.645c-2.369.94-8.677,3.764-9.411,5.526a.514.514,0,0,0-.025.413c.518.417,5.1-1.346,10-3.868l.325.616C1156.278,1154.262,1149.809,1157.53,1147.548,1157.53Z" transform="translate(-1146.578 -1150.228)" fill="#0c2238"/>
      </g>
      <g id="Group_4028" data-name="Group 4028" transform="translate(84.127 123.206)">
        <path id="Path_7261" data-name="Path 7261" d="M1154.286,1194.077a1.621,1.621,0,0,1-1.3-.455,1.116,1.116,0,0,1-.312-.877.914.914,0,0,1,.365-.6l.4.571-.2-.286.208.281a.212.212,0,0,0-.076.133.5.5,0,0,0,.155.333c.684.809,4.889-.8,7.4-1.76.877-.335,1.7-.652,2.4-.887l.229.657c-.681.232-1.5.546-2.373.879C1158.176,1193.212,1155.762,1194.077,1154.286,1194.077Z" transform="translate(-1152.665 -1190.528)" fill="#0c2238"/>
      </g>
      <g id="Group_4029" data-name="Group 4029" transform="translate(85.697 122.374)">
        <path id="Path_7262" data-name="Path 7262" d="M1168.462,1189.594a7.483,7.483,0,0,1-1.72-.161c-1.8-.451-1.882-1.225-1.88-1.375l.7.009a.167.167,0,0,0,0-.034c.024.114.314.466,1.352.726a16.864,16.864,0,0,0,9.321-1.651,47.289,47.289,0,0,0,5.156-3.12l.417.559a48.131,48.131,0,0,1-5.241,3.173A19.035,19.035,0,0,1,1168.462,1189.594Z" transform="translate(-1164.862 -1183.988)" fill="#0c2238"/>
      </g>
      <g id="Group_4030" data-name="Group 4030" transform="translate(91.848 114.688)">
        <path id="Path_7263" data-name="Path 7263" d="M1212.869,1125.919l-.219-.66c.232-.075,5.7-1.841,7.487-1.637l-.081.69C1218.7,1124.157,1214.408,1125.42,1212.869,1125.919Z" transform="translate(-1212.649 -1123.605)" fill="#0c2238"/>
      </g>
      <g id="Group_4031" data-name="Group 4031" transform="translate(83.859 126.016)">
        <path id="Path_7264" data-name="Path 7264" d="M1164.85,1213.874l3.789,7.117a1.931,1.931,0,0,1-.823,2.622l-15.961,8.309Z" transform="translate(-1151.691 -1213.712)" fill="#0c2238"/>
        <path id="Path_7265" data-name="Path 7265" d="M1150.91,1231.12l-.327-.615,15.961-8.309a1.589,1.589,0,0,0,.789-.938,1.568,1.568,0,0,0-.113-1.214l-3.788-7.117.622-.324,3.789,7.117a2.25,2.25,0,0,1,.162,1.745,2.281,2.281,0,0,1-1.132,1.347Z" transform="translate(-1150.583 -1212.603)" fill="#fff"/>
      </g>
      <g id="Group_4032" data-name="Group 4032" transform="translate(99.458 124.251)">
        <path id="Path_7266" data-name="Path 7266" d="M1273.784,1200.59a3.567,3.567,0,0,0,2.976,1.122l.747-1.122Z" transform="translate(-1273.526 -1200.354)" fill="#0c2238"/>
        <path id="Path_7267" data-name="Path 7267" d="M1274.5,1200.5a4.187,4.187,0,0,1-2.725-1.29l.517-.471a3.331,3.331,0,0,0,2.507,1.043l.665-1,.587.382-.747,1.122-.217.148A2.693,2.693,0,0,1,1274.5,1200.5Z" transform="translate(-1271.775 -1198.739)" fill="#fff"/>
      </g>
      <g id="Group_4033" data-name="Group 4033" transform="translate(118.327 109.68)">
        <path id="Path_7268" data-name="Path 7268" d="M1418.365,1089.814l12.15-2.165-.666-3.388Z" transform="translate(-1418.365 -1084.261)" fill="#0c2238"/>
      </g>
      <g id="Group_4034" data-name="Group 4034" transform="translate(86.64 37.126)">
        <path id="Path_7269" data-name="Path 7269" d="M1172.724,524.225l-.536-.45c2.676-3.115,4.387-9.478,4.4-9.542l.68.176C1177.2,514.677,1175.5,520.99,1172.724,524.225Z" transform="translate(-1172.188 -514.233)" fill="#0c2238"/>
      </g>
      <g id="Group_4035" data-name="Group 4035" transform="translate(58.6 33.735)">
        <path id="Path_7270" data-name="Path 7270" d="M957.6,498.221a55.929,55.929,0,0,1-3.067-7.787c-.367-1.643-.19-2.585.527-2.8.979-.292,2.339,1.123,2.673,1.972l-.655.252c-.291-.738-1.392-1.683-1.814-1.559-.17.051-.371.527-.045,1.985a56.708,56.708,0,0,0,3.017,7.642Z" transform="translate(-954.344 -487.595)" fill="#0c2238"/>
      </g>
      <g id="Group_4036" data-name="Group 4036" transform="translate(67.119 37.589)">
        <path id="Path_7271" data-name="Path 7271" d="M1024.443,531.263c-.24-1.129-.425-2.973-.62-4.924-.263-2.629-.754-7.522-1.422-7.767-.117.068-.536.637-1.177,4.4l-.693-.115c.615-3.607,1.045-4.55,1.5-4.858a.663.663,0,0,1,.516-.106c1.044.218,1.42,2.847,1.974,8.378.193,1.932.376,3.758.609,4.85Z" transform="translate(-1020.531 -517.877)" fill="#0c2238"/>
      </g>
      <g id="Group_4037" data-name="Group 4037" transform="translate(60.986 32.758)">
        <path id="Path_7272" data-name="Path 7272" d="M977.34,494.8l-.7-.027a5.649,5.649,0,0,1,2.524-4.562l-.308-.7c-1.3-3.3-3.7-8.362-5-8.864a.24.24,0,0,0-.21-.011c-.516.25.652,4.345,2.987,9.452l-.64.286c-1.628-3.562-4.139-9.644-2.656-10.362a.944.944,0,0,1,.775-.012c2.005.773,5.056,8.381,5.4,9.246l.426.965-.161.448A4.922,4.922,0,0,0,977.34,494.8Z" transform="translate(-972.88 -479.921)" fill="#0c2238"/>
      </g>
      <g id="Group_4038" data-name="Group 4038" transform="translate(56.515 36.759)">
        <path id="Path_7273" data-name="Path 7273" d="M945.393,528.3c-.031-.06-3.153-6.009-5.061-10-1.713-3.889-2.3-5.569-2.165-6.206.112-.533.4-.691.624-.73,1.093-.2,3.069,2.762,3.865,4.041l-.6.364c-1.247-2-2.695-3.722-3.129-3.722h-.013a.9.9,0,0,0-.061.187c-.138.658,1.559,4.512,2.117,5.778,1.9,3.971,5.014,9.909,5.045,9.969Z" transform="translate(-938.148 -511.354)" fill="#0c2238"/>
      </g>
    </g>
  </g>
</svg>
