<svg xmlns="http://www.w3.org/2000/svg" xmlns:xlink="http://www.w3.org/1999/xlink" width="277" height="221" viewBox="0 0 277 221">
  <defs>
    <clipPath id="clip-iconv_5">
      <rect width="277" height="221"/>
    </clipPath>
  </defs>
  <g id="iconv_5" data-name="iconv 5" clip-path="url(#clip-iconv_5)">
    <rect width="277" height="221" fill="#fff"/>
    <g id="Group_4412" data-name="Group 4412" transform="translate(2197.604 -266.186)">
      <path id="Path_7747" data-name="Path 7747" d="M-1914.506,401.477a117.366,117.366,0,0,1-13.687,55.185c-.161.305-.325.611-.49.914h-207.445c-.165-.3-.329-.608-.49-.914a117.367,117.367,0,0,1-13.687-55.185,117.9,117.9,0,0,1,117.9-117.9A117.9,117.9,0,0,1-1914.506,401.477Z" transform="translate(-27.049)" fill="#ffeede"/>
      <g id="Group_4352" data-name="Group 4352" transform="translate(-2174.759 305.684)">
        <g id="Group_4348" data-name="Group 4348" transform="translate(30.906 0)">
          <path id="Path_7748" data-name="Path 7748" d="M-1006.046,774.553h-67.8a1.044,1.044,0,0,1-1.044-1.044h0a1.044,1.044,0,0,1,1.044-1.044h67.8a1.044,1.044,0,0,1,1.044,1.044h0A1.044,1.044,0,0,1-1006.046,774.553Z" transform="translate(1181.788 -730.746)" fill="#ffdfbf"/>
          <path id="Path_7749" data-name="Path 7749" d="M-946.523,895.109h-67.8a1.044,1.044,0,0,1-1.044-1.044h0a1.044,1.044,0,0,1,1.044-1.044h67.8a1.044,1.044,0,0,1,1.044,1.044h0A1.044,1.044,0,0,1-946.523,895.109Z" transform="translate(1130.036 -835.563)" fill="#ffdfbf"/>
          <g id="Group_4345" data-name="Group 4345" transform="translate(0 12.15)" style="mix-blend-mode: soft-light;isolation: isolate">
            <path id="Path_7750" data-name="Path 7750" d="M-1829.272,561.544c0-8.6-14.422-15.568-32.212-15.568s-32.212,6.97-32.212,15.568c0,7.856,12.041,14.351,27.69,15.414a21.761,21.761,0,0,1,4.522,11.677s6.018-5.227,6.152-11.808C-1840.485,575.438-1829.272,569.124-1829.272,561.544Z" transform="translate(1893.697 -545.976)" fill="#fff"/>
          </g>
          <path id="Path_7751" data-name="Path 7751" d="M-1750.225,582.254l13.2-6.4,13.431,6.4Z" transform="translate(1768.955 -559.807)" fill="#ffdfbf"/>
          <path id="Path_7752" data-name="Path 7752" d="M-1730.975,624.857V638.3h6.277v-9.748h8.791V638.3h6.31V624.857Z" transform="translate(1752.219 -602.41)" fill="#ffdfbf"/>
          <g id="Group_4346" data-name="Group 4346" transform="translate(80.743)">
            <path id="Path_7753" data-name="Path 7753" d="M-1265.564,472.236a9.672,9.672,0,0,1-9.661-9.661,9.672,9.672,0,0,1,9.661-9.661,9.672,9.672,0,0,1,9.661,9.661A9.672,9.672,0,0,1-1265.564,472.236Zm0-18.377a8.726,8.726,0,0,0-8.716,8.716,8.726,8.726,0,0,0,8.716,8.716,8.726,8.726,0,0,0,8.716-8.716A8.726,8.726,0,0,0-1265.564,453.859Z" transform="translate(1275.225 -452.914)" fill="#ffdfbf"/>
          </g>
          <circle id="Ellipse_220" data-name="Ellipse 220" cx="1.291" cy="1.291" r="1.291" transform="translate(89.113 8.37)" fill="#ffdfbf"/>
          <g id="Group_4347" data-name="Group 4347" transform="translate(85.395 6.535)">
            <path id="Path_7754" data-name="Path 7754" d="M-1231.347,513.332a.425.425,0,0,1-.384-.243l-3.181-6.693-4.472-2.635a.425.425,0,0,1-.151-.582.425.425,0,0,1,.582-.15l4.584,2.7a.424.424,0,0,1,.168.184l3.237,6.811a.425.425,0,0,1-.2.566A.423.423,0,0,1-1231.347,513.332Z" transform="translate(1239.593 -502.97)" fill="#ffdfbf"/>
          </g>
          <rect id="Rectangle_516" data-name="Rectangle 516" width="6.201" height="17.965" transform="translate(122.52 23.753)" fill="#ffdfbf"/>
          <rect id="Rectangle_517" data-name="Rectangle 517" width="22.852" height="6.607" transform="translate(132.073 35.111)" fill="#ffdfbf"/>
          <rect id="Rectangle_518" data-name="Rectangle 518" width="24.822" height="5.352" transform="translate(154.227 52.104)" fill="#ffdfbf"/>
          <rect id="Rectangle_519" data-name="Rectangle 519" width="23.891" height="4.591" transform="translate(159.336 47.514)" fill="#ffdfbf"/>
          <circle id="Ellipse_221" data-name="Ellipse 221" cx="1.425" cy="1.425" r="1.425" transform="translate(124.217 38.027)" fill="#ffeede"/>
          <circle id="Ellipse_222" data-name="Ellipse 222" cx="1.425" cy="1.425" r="1.425" transform="translate(133.474 38.027)" fill="#ffeede"/>
          <circle id="Ellipse_223" data-name="Ellipse 223" cx="1.425" cy="1.425" r="1.425" transform="translate(160.716 48.571)" fill="#ffeede"/>
          <circle id="Ellipse_224" data-name="Ellipse 224" cx="1.425" cy="1.425" r="1.425" transform="translate(155.668 53.486)" fill="#ffeede"/>
        </g>
        <g id="Group_4351" data-name="Group 4351" transform="translate(0 89.357)">
          <g id="Group_4349" data-name="Group 4349">
            <path id="Path_7755" data-name="Path 7755" d="M-1955.156,1258.8a2.228,2.228,0,0,0-.858.484,3.02,3.02,0,0,0-.619.78,4.24,4.24,0,0,0-.375.932,8.244,8.244,0,0,0-.208.995q-.039.252-.072.507l-.06.51-.12,1.02c-.022.17-.036.34-.051.511l-.045.511c-.029.341-.063.682-.088,1.023a79.773,79.773,0,0,0-.133,8.212l.015.513.024.513.047,1.026c.007.171.017.342.028.513l.031.513.064,1.025.077,1.025c.026.341.05.683.081,1.024.061.682.115,1.365.184,2.047.26,2.729.577,5.453.9,8.179a.326.326,0,0,1-.286.361.325.325,0,0,1-.361-.285v-.005c-.278-2.731-.553-5.464-.773-8.2-.059-.684-.1-1.37-.154-2.056-.026-.343-.045-.686-.066-1.029l-.062-1.029-.049-1.03-.024-.515c-.008-.172-.016-.343-.02-.515l-.032-1.031-.016-.515-.007-.516a80.08,80.08,0,0,1,.259-8.244c.03-.342.07-.684.1-1.026l.053-.513c.018-.171.034-.342.059-.512l.136-1.022.068-.511q.036-.255.08-.511a8.455,8.455,0,0,1,.228-1.016,4.422,4.422,0,0,1,.407-.967,3.2,3.2,0,0,1,.667-.815,2.387,2.387,0,0,1,.927-.5.075.075,0,0,1,.092.053.075.075,0,0,1-.052.092Z" transform="translate(1980.684 -1242.82)" fill="#f5c698"/>
            <path id="Path_7756" data-name="Path 7756" d="M-1978.94,1222.267a10.958,10.958,0,0,1,1.467,1.873,14.615,14.615,0,0,1,1.085,2.117,26.68,26.68,0,0,1,1.37,4.544,68.213,68.213,0,0,1,1.367,9.38c.03.394.064.788.09,1.182l.069,1.183c.01.2.025.395.032.592l.024.592c.015.395.034.79.046,1.184l.029,1.185c0,.2.011.4.013.592l.006.593.012,1.185v1.777l-.006.592-.014,1.185c-.016.789-.026,1.579-.048,2.368l-.03,1.184-.034,1.183-.072,2.365a.325.325,0,0,1-.335.315.325.325,0,0,1-.315-.335v0l.1-2.363.05-1.181.045-1.181c.032-.787.053-1.575.08-2.362l.029-1.181.014-.59.009-.59.017-1.181,0-1.181v-.59c0-.2,0-.394-.005-.59l-.013-1.181c-.007-.393-.02-.787-.03-1.18l-.016-.59c0-.2-.016-.393-.024-.59l-.053-1.179c-.02-.393-.05-.785-.074-1.178a67.851,67.851,0,0,0-1.236-9.351,26.467,26.467,0,0,0-1.3-4.522,14.418,14.418,0,0,0-1.043-2.1,10.788,10.788,0,0,0-1.421-1.864.075.075,0,0,1,0-.106A.075.075,0,0,1-1978.94,1222.267Z" transform="translate(1998.83 -1211.163)" fill="#f5c698"/>
            <path id="Path_7757" data-name="Path 7757" d="M-2005.441,1268.906a3.527,3.527,0,0,1,1.037-.469,4.066,4.066,0,0,1,1.13-.139,4.6,4.6,0,0,1,.569.042,4.707,4.707,0,0,1,.559.115,5.294,5.294,0,0,1,1.059.416,6.713,6.713,0,0,1,.957.611,8.412,8.412,0,0,1,.85.75c.134.133.258.275.386.413.065.068.122.144.184.215s.122.144.18.218a11.3,11.3,0,0,1,.655.922c.206.316.389.646.565.979.043.084.084.169.125.253s.085.168.122.255c.077.172.158.342.227.518a15.831,15.831,0,0,1,.712,2.142,20.828,20.828,0,0,1,.436,2.212c.106.743.179,1.49.232,2.237.1,1.495.124,2.989.159,4.477l.1,4.469.2,8.938a.351.351,0,0,1-.342.358.351.351,0,0,1-.358-.343v-.005l-.065-8.94-.032-4.47c-.012-1.491-.011-2.978-.089-4.458-.041-.74-.1-1.478-.195-2.211a20.492,20.492,0,0,0-.395-2.178,15.469,15.469,0,0,0-.665-2.107c-.065-.173-.142-.34-.214-.509-.035-.085-.077-.167-.116-.251s-.078-.167-.119-.249c-.167-.327-.34-.653-.537-.964a11,11,0,0,0-.625-.909c-.056-.073-.115-.143-.172-.215s-.113-.145-.176-.212c-.123-.137-.242-.277-.37-.409a8.19,8.19,0,0,0-.814-.74,6.449,6.449,0,0,0-.915-.6,4.64,4.64,0,0,0-2.088-.583,3.9,3.9,0,0,0-1.083.117,3.372,3.372,0,0,0-1,.433h0a.076.076,0,0,1-.1-.023A.075.075,0,0,1-2005.441,1268.906Z" transform="translate(2021.788 -1251.203)" fill="#f5c698"/>
            <path id="Path_7758" data-name="Path 7758" d="M-2029.142,1144.29c-.432-.015-.689.451-1.152.2-.4.762-.509,1.844-1.2,2.445a1.054,1.054,0,0,1-1.754-.484c-.115-.652.961-1.216,1.371-1.661a6.855,6.855,0,0,0,1.64-2.135c.35-1.049-.458-1.894-1.295-2.424-.908-.575-1.023.385-1.309,1.185a11.745,11.745,0,0,1-1.163,2.729c-.358.526-1.835,1.6-1.852.3-.015-1.112,1.475-2.418,2.082-3.241.451-.611,1.214-1.859.826-2.626-.271-.536-1.93-1.085-2.446-.644-.2.171-.185.5-.205.738-.077.89.1,1.75-.056,2.639-.118.677-.2,1.587-.876,1.971-.344.2-.632.222-.868-.137-.511-.78.567-1.812.7-2.518a2.515,2.515,0,0,0-.207-1.559c-.419-.637-1.21-.627-1.843-.671a12.337,12.337,0,0,0-.052,1.3c0,.4.185,1.274-.045,1.621-.583.878-.463-.944-.437-1.273a2.591,2.591,0,0,0-.285-1.865,2.971,2.971,0,0,0-2.549-.783,5.026,5.026,0,0,0-1.725.761,8.741,8.741,0,0,1,3.677,3.467,56.623,56.623,0,0,0,6.812,8.251,21.73,21.73,0,0,1,1.555,2.45c.432-.1.854-.212,1.289-.289-.23.009-1.106.046-1.083-.094.015-2.4,2.765-3.808,3.2-6.105C-2028.294,1145.337-2028.443,1144.313-2029.142,1144.29Z" transform="translate(2055.149 -1137.368)" fill="#ffdfbf"/>
            <path id="Path_7759" data-name="Path 7759" d="M-2069.062,1146.963a8.738,8.738,0,0,0-3.677-3.467c-.555.357-1.078.775-1.541,1.126-.5.378-1.1.778-1.087,1.478.021,1.256,2.318,1.521,3.229,1.717.794.171,2.07-.009,2.6.725-.786,1.6-3.772.73-5.033.277-.62-.223-1.962-1.035-2.386-.257a2.824,2.824,0,0,0,.18,2.072c.252.263.784.184,1.134.254a8.993,8.993,0,0,0,1.855.314,20.71,20.71,0,0,0,3.432-.3c.5-.087,1.615-.557,1.974.025-.483.864-1.447.88-2.328.975a18.861,18.861,0,0,1-3.213.121c-.911-.057-2.2-.291-2.5.878-.357,1.395,1.249,2.838,2.51,2.8,2.113-.061,4.058-1.4,5.795-2.458.409-.248,1.381-.836,1.528.023.116.676-1.241,1.265-1.706,1.565-.642.415-2.231.926-2.17,1.888.133,2.094,4.829,1.391,5.921,1.319a33.872,33.872,0,0,0,3.4-.289c.153-.026.3-.056.454-.089a21.747,21.747,0,0,0-1.555-2.45A56.647,56.647,0,0,1-2069.062,1146.963Z" transform="translate(2084.043 -1142.696)" fill="#f5c698"/>
            <path id="Path_7760" data-name="Path 7760" d="M-2124.083,1261.343c1.247-2.495,3.358-4.317,5.372-6.332,1.634-1.634,3.963-2.016,6.1-2.685-.792-.2-1.576-.733-2.355-.983a13.629,13.629,0,0,0-4.756-.78,3.788,3.788,0,0,0-2.264.8c-.687.59-.357,1.026.5,1.205.684.143,1.749.231,2.194.9.265.4.066.679-.4.812a2.471,2.471,0,0,1-1.26-.2c-.686-.169-1.386-.311-2.079-.452a5.661,5.661,0,0,0-2.5-.037,2.953,2.953,0,0,0-2.082,2.673c-.023,1.21,1.2.489,1.831.249.673-.256,2.573-.829,2.886.289.424,1.514-2.662,1.431-3.444,1.513-1.451.152-3.3.207-3.739,1.986-.386,1.562,1.849.98,2.694.976.5,0,1.077.322.864.924-.1.279-.577.495-.789.647a7.42,7.42,0,0,0-1.036.98c-1.267,1.344-2.674,3.591-1.814,5.5a4.4,4.4,0,0,0,1.226,1.4,14.487,14.487,0,0,0,1.1,1.086c.281-.522.641-1,.875-1.55C-2126,1267.195-2125.522,1264.221-2124.083,1261.343Z" transform="translate(2130.43 -1235.777)" fill="#ffdfbf"/>
            <path id="Path_7761" data-name="Path 7761" d="M-2093.679,1268.033a5.335,5.335,0,0,0-.617-2.694,12.479,12.479,0,0,0-.89-.955c-.035.218-.031.1-.015-.016l.015.016c.009-.054.019-.127.032-.226-.059-.011-.118-.024-.177-.039-2.136.67-4.466,1.052-6.1,2.685-2.015,2.015-4.125,3.838-5.372,6.332-1.439,2.878-1.919,5.852-2.878,8.922-.234.546-.593,1.028-.874,1.55a.926.926,0,0,0,.082.049c.348.184.608.046,1.052-.018a18.888,18.888,0,0,1,2.122.121c1.817-.063,2.3-2.647,2.3-4.079-.006-1.074-.485-2.13-.411-3.208,1.863.1.95,3.026,2.418,3.461,1.031.305,1.387-1.55,1.4-2.178a11.1,11.1,0,0,0-.608-3.3c-.235-.749-1.855-3.408-.411-3.734,1.919-.433,2.175,4.081,1.8,5.233.8.253,2.252-1.7,2.644-2.363a4.413,4.413,0,0,0,.684-2.211,2.47,2.47,0,0,0-.928-1.847c-.466-.526-1.555-1.745-.452-2.3,1.291-.646,2.1,1.885,2.589,2.656.44.7.853,1.563,1.739.888A2.862,2.862,0,0,0-2093.679,1268.033Z" transform="translate(2113.15 -1247.572)" fill="#f5c698"/>
            <path id="Path_7762" data-name="Path 7762" d="M-1988.978,1234.967c-.959-2.782-4.317-2.974-6.62-4.7a1.2,1.2,0,0,1-.4-.436c-.009.028-.017.056-.026.083-.4-.2-.693-1.453-.981-1.877a4.069,4.069,0,0,0-2.275-1.546,4.946,4.946,0,0,0-4.605.982,2.877,2.877,0,0,0-.942,1.984c.516.071,1.113-.335,1.6-.482.649-.2,1.271-.53,1.926-.687a3.025,3.025,0,0,1,2.416.589c-.693.306-1.441,0-2.167.035a3.913,3.913,0,0,0-2.378.752c-1.68,1.531.391,3.8.3,5.566,1.437-1.3,1.8-3.411,3.714-4.265.565-.252,1.284-.543,1.847-.159.663.454-.033.8-.554,1.121-.977.6-2.364,1.671-2.655,2.818a1.522,1.522,0,0,0,.3,1.573c.616.468,1.27-.006,1.692.855a8.985,8.985,0,0,0,.91,1.945c.766.932,1.375.839,1.733-.368a16.052,16.052,0,0,0,.262-3.864c.056-1.142.942-2.866,2.383-2.333,1.423.526.47,2.27-.025,3.049a7.4,7.4,0,0,0-1.5,3.981c.01,1.339,1.043,2.252,2.342,1.53,1.662-.924.981-2.818,1.489-4.309.185-.545.445-1.424,1.192-.993.624.36.5,1.19.305,1.741a21.725,21.725,0,0,0-.777,2.9,4.822,4.822,0,0,0-.242,2c.366,1.5,2.941,1.335,4.132,1.79a14.557,14.557,0,0,1,1.72.68c.023-.12.047-.231.073-.336C-1987.9,1242.513-1987.8,1238.314-1988.978,1234.967Z" transform="translate(2021.228 -1214.678)" fill="#ffdfbf"/>
            <path id="Path_7763" data-name="Path 7763" d="M-1924.44,1222.7a4.7,4.7,0,0,0-1.194-1.9c-.573-.458-1.125-.375-1.787-.533-1.232-.293-1.079-1.679.145-1.8.819-.078,1.272.566,1.978.748.6-1.635-1.326-2.383-2.564-2.674-1.621-.381-3.482.746-5.029-.024-.3-1.931,2.47-.627,3.346-.63a8.634,8.634,0,0,0-1.277-1.58,6.33,6.33,0,0,0-.988-1.29,3.2,3.2,0,0,0-4.271.532c-.837,1.145-.685,2.941-1.082,4.237a1.2,1.2,0,0,0,.4.436c2.3,1.727,5.66,1.919,6.62,4.7,1.176,3.347,1.073,7.546,4.194,9.623a4.584,4.584,0,0,1,.828-1.685,3.472,3.472,0,0,0,.6-2.182c-.063-2.448-2.712-3.9-4.734-4.682-.467-1.827,2.517-.3,3.077-.024s1.228,1.35,1.845,1.307a.74.74,0,0,0,.307.36C-1923.385,1224.737-1924.073,1223.567-1924.44,1222.7Z" transform="translate(1962.394 -1202.639)" fill="#f5c698"/>
          </g>
          <g id="Group_4350" data-name="Group 4350" transform="translate(18.293 38.469)">
            <path id="Rectangle_520" data-name="Rectangle 520" d="M6.857,0h0a6.857,6.857,0,0,1,6.857,6.857V23.129a0,0,0,0,1,0,0H0a0,0,0,0,1,0,0V6.857A6.857,6.857,0,0,1,6.857,0Z" transform="translate(0.028 0.022)" fill="#ffdfbf"/>
            <path id="Path_7764" data-name="Path 7764" d="M-1986.505,1432.053h-1.242a2.148,2.148,0,0,0-2.535,2.535v20.593h1.242v-20.593A2.535,2.535,0,0,1-1986.505,1432.053Z" transform="translate(1990.311 -1432.031)" fill="#f5c698"/>
          </g>
        </g>
      </g>
      <g id="Group_4374" data-name="Group 4374" transform="translate(-2066.286 354.797)">
        <g id="Group_4373" data-name="Group 4373" transform="translate(0)">
          <g id="Group_4353" data-name="Group 4353" transform="translate(53.815 39.851)">
            <rect id="Rectangle_521" data-name="Rectangle 521" width="1.762" height="24.674" transform="translate(15.536 58.683) rotate(180)" fill="#ff6a5e"/>
            <rect id="Rectangle_522" data-name="Rectangle 522" width="0.653" height="24.674" transform="translate(14.883 34.009)" fill="#ee4a3e"/>
            <path id="Rectangle_523" data-name="Rectangle 523" d="M4.651,0h0A4.651,4.651,0,0,1,9.3,4.651V9.3a0,0,0,0,1,0,0H0a0,0,0,0,1,0,0V4.651A4.651,4.651,0,0,1,4.651,0Z" transform="translate(19.322 36.261) rotate(180)" fill="#ff6a5e"/>
            <path id="Path_7765" data-name="Path 7765" d="M-802.325,1398.241h-7.24a1.031,1.031,0,0,1-1.031-1.031v.914a1.031,1.031,0,0,0,1.031,1.031h7.24a1.031,1.031,0,0,0,1.031-1.031v-.914A1.031,1.031,0,0,1-802.325,1398.241Z" transform="translate(820.616 -1362.894)" fill="#ee4a3e"/>
            <path id="Path_7766" data-name="Path 7766" d="M-785.178,1161.316l7.758-25.228a1.338,1.338,0,0,0-1.279-1.731h-13.99a1.338,1.338,0,0,0-1.274.928l-8.383,26.031Z" transform="translate(813.443 -1134.357)" fill="#ff6a5e"/>
            <path id="Path_7767" data-name="Path 7767" d="M-778.7,1134.357h-.808a1.338,1.338,0,0,1,.977,1.7l-7.758,25.228h-16.047l-.011.035h17.168l7.758-25.228A1.338,1.338,0,0,0-778.7,1134.357Z" transform="translate(813.443 -1134.357)" fill="#ee4a3e"/>
            <path id="Path_7768" data-name="Path 7768" d="M-882.838,1334.207h26.459a1.175,1.175,0,0,0,1.175-1.175h0a1.175,1.175,0,0,0-1.175-1.175h-26.459a1.175,1.175,0,0,0-1.175,1.175h0A1.175,1.175,0,0,0-882.838,1334.207Z" transform="translate(884.448 -1306.073)" fill="#ff6a5e"/>
            <path id="Path_7769" data-name="Path 7769" d="M-856.379,1338.075h-26.459a1.175,1.175,0,0,1-1.083-.718,1.172,1.172,0,0,0-.092.457,1.175,1.175,0,0,0,1.175,1.175h26.459a1.175,1.175,0,0,0,1.175-1.175,1.173,1.173,0,0,0-.092-.457A1.175,1.175,0,0,1-856.379,1338.075Z" transform="translate(884.448 -1310.855)" fill="#ee4a3e"/>
            <path id="Path_7770" data-name="Path 7770" d="M-887.346,1560.668H-858.1l-14.622-7.311Z" transform="translate(887.346 -1498.656)" fill="#ee4a3e"/>
          </g>
          <path id="Path_7771" data-name="Path 7771" d="M-1272.577,858.573l-8.616,9.139-18.364-20.366,13.055-11.489,17.407,18.974Z" transform="translate(1299.558 -834.976)" fill="#fff"/>
          <path id="Path_7772" data-name="Path 7772" d="M-854.328,908.532l-6.4-1.175a8.526,8.526,0,0,1,1.57,3.62,13.3,13.3,0,0,0,4.854-2.212Z" transform="translate(918.016 -897.141)" fill="#f3417d"/>
          <path id="Path_7773" data-name="Path 7773" d="M-886.352,858.206s-1.893,7.115-.457,8.355,9.335-1.5,9.335-1.5l2.742-7.7Z" transform="translate(941.162 -853.669)" fill="#ff7ba9"/>
          <path id="Path_7774" data-name="Path 7774" d="M-895.259,834.034s-12.533,1.958-12.468-1.828,16.776-4.765,17.037.849a7.545,7.545,0,0,1-4.5,7.441l-.261-4.635s1.371.261,1.436-1.371S-895.259,834.034-895.259,834.034Z" transform="translate(958.882 -829.106)" fill="#171c69"/>
          <path id="Path_7775" data-name="Path 7775" d="M-1132.334,940.2c.653-.914.522-3.133,1.7-4.308a7.1,7.1,0,0,1-2.554-7.2c-1.01.7-2.193,3.307.857,7.028,0,0-1.392,2-1.131,3.568l-6.093,6.441a25.1,25.1,0,0,0,1.862,3.772,16.752,16.752,0,0,0,1.686-.824c-.7-1.052-1.389-2.1-2.068-3.122C-1136.381,943.465-1133.77,942.29-1132.334,940.2Z" transform="translate(1160.446 -915.69)" fill="#f3417d"/>
          <path id="Path_7776" data-name="Path 7776" d="M-1119.661,940.806a11.768,11.768,0,0,1-.47-1.889s1.828-4,1.044-5.831-3.307-3.882-3.394-5.422c-.026-.461-.426-.511-.857-.213a7.1,7.1,0,0,0,2.554,7.2c-1.175,1.175-1.044,3.394-1.7,4.308-1.436,2.089-4.047,3.264-5.744,5.353.48.72.962,1.455,1.452,2.2A21.421,21.421,0,0,0-1119.661,940.806Z" transform="translate(1150.593 -914.448)" fill="#ff7ba9"/>
          <path id="Path_7777" data-name="Path 7777" d="M-1117.1,1036.7q.306.463.616.927a16.291,16.291,0,0,0,6.5-6.608l-.006-.021A21.422,21.422,0,0,1-1117.1,1036.7Z" transform="translate(1140.921 -1004.638)" fill="#f3417d"/>
          <path id="Path_7778" data-name="Path 7778" d="M-1053.457,972.636q2-2.016,4.177-3.849c-1.6-3.787-3.314-7.527-4.964-11.275-.223-.259-.444-.5-.664-.717a.8.8,0,0,0-.372-.206l-9.055-2.232-5.744.326-7.972,2.771a.638.638,0,0,0-.278.192l-13.987,16.62a54.827,54.827,0,0,1-4.13-6.931,15.157,15.157,0,0,1-6.5,5.454c2.791,3.967,6.01,7.685,10.538,9.44a104.935,104.935,0,0,0,14.491-20.105,39.929,39.929,0,0,0-1.167,6.406l23.492-.918.2.7a15.755,15.755,0,0,0,.582-4.1C-1054.373,967.021-1053.9,969.829-1053.457,972.636Z" transform="translate(1128.611 -938.005)" fill="#252b80"/>
          <path id="Path_7779" data-name="Path 7779" d="M-736.754,1038.279c-.446-2.807-.916-5.615-1.348-8.422a15.761,15.761,0,0,1-.582,4.1l1.392,4.869Q-737.025,1038.553-736.754,1038.279Z" transform="translate(811.908 -1003.648)" fill="#171c69"/>
          <path id="Path_7780" data-name="Path 7780" d="M-729.925,978.522c1.649,3.748,3.366,7.488,4.964,11.276q.5-.422,1.018-.833C-725.852,984.734-727.931,980.841-729.925,978.522Z" transform="translate(804.292 -959.015)" fill="#171c69"/>
          <path id="Path_7781" data-name="Path 7781" d="M-1104.676,1033.962c-4.528-1.756-7.747-5.473-10.538-9.44a17.947,17.947,0,0,1-1.843.73,28.534,28.534,0,0,0,12.532,10.533,1.4,1.4,0,0,0,1.555-.34c2.141-2.276,8.846-9.686,10.74-15.147l.878-.034a39.915,39.915,0,0,1,1.167-6.406A104.942,104.942,0,0,1-1104.676,1033.962Z" transform="translate(1140.882 -989.737)" fill="#171c69"/>
          <path id="Path_7782" data-name="Path 7782" d="M-1104.653,1034.105a24.5,24.5,0,0,1-1.225-2.952,16.292,16.292,0,0,1-6.5,6.608q.6.9,1.232,1.8A15.158,15.158,0,0,0-1104.653,1034.105Z" transform="translate(1136.818 -1004.775)" fill="#fff"/>
          <path id="Path_7783" data-name="Path 7783" d="M-876.472,954.683s-9.463,21.313,1.513,34.178c0,0,11.151-19.382,4.231-34.5Z" transform="translate(935.003 -938.005)" fill="#fff"/>
          <path id="Path_7784" data-name="Path 7784" d="M-928.905,965.865s-2.176,8.181,1.741,14.448S-924,995.718-924,995.718h7.37s-6.18-21.628-2.655-38.861l-8.029,2.791a.21.21,0,0,0-.135.15Z" transform="translate(977.819 -940.179)" fill="#252b80"/>
          <path id="Path_7785" data-name="Path 7785" d="M-858.065,1011.616c0-.031-.007-.061-.01-.092a95.191,95.191,0,0,0-2.65,21.411l2.561,6.767.373-.48A115.46,115.46,0,0,1-858.065,1011.616Z" transform="translate(918.016 -987.709)" fill="#d62b64"/>
          <path id="Path_7786" data-name="Path 7786" d="M-845.006,1012.229a115.461,115.461,0,0,0,.274,27.605l3.789-4.879A196.532,196.532,0,0,1-845.006,1012.229Z" transform="translate(904.958 -988.322)" fill="#bd174e"/>
          <path id="Path_7787" data-name="Path 7787" d="M-864.225,971.2l1.7,4.961,1.591-3.362,1.063,3.362,4.1-6.3-3.884,5.124-1.281-2.644-1.591,2.513Z" transform="translate(921.059 -951.482)" fill="#f2f2f2"/>
          <path id="Path_7788" data-name="Path 7788" d="M-906.435,956.857l-2.91,1.012-2.116,3.884,1.983,1.854-5.247,3.5,9.438,25.477.174-2.44C-906.695,982.522-908.822,968.526-906.435,956.857Z" transform="translate(964.966 -940.179)" fill="#171c69"/>
          <path id="Path_7789" data-name="Path 7789" d="M-1208.954,1235.789l-31.808,3.543a2.185,2.185,0,0,0-1.645,1.069l-25.818,44.158h25.2l7.964-32.7,13.9-3.96Z" transform="translate(1272.315 -1182.695)" fill="#252b80"/>
          <path id="Path_7790" data-name="Path 7790" d="M-1147.013,1284.559l7.964-32.7,13.9-3.96,12.207-12.107-9.64,1.074-19.93,4.157-15.284,43.539Z" transform="translate(1176.3 -1182.695)" fill="#171c69"/>
          <path id="Path_7791" data-name="Path 7791" d="M-829.494,1248.331l-9.922-12.542-3.783.815a32.452,32.452,0,0,0,4.921,11.727Z" transform="translate(902.778 -1182.695)" fill="#171c69"/>
          <path id="Path_7792" data-name="Path 7792" d="M-996.5,1253.755h11.714a32.454,32.454,0,0,1-4.921-11.727l-21.152,4.555a1.072,1.072,0,0,0-.79,1.392l14.236,42.009h24.544Z" transform="translate(1049.286 -1188.12)" fill="#252b80"/>
          <path id="Path_7793" data-name="Path 7793" d="M-919.994,1323.511l-23.63-36.228h20.5l-5.295-6.693c-5.979,2.166-12.551,4.1-16.638,3.929l-5.831-2.283,20.047,41.276Z" transform="translate(996.41 -1221.647)" fill="#171c69"/>
          <path id="Path_7794" data-name="Path 7794" d="M-823.776,1001.291c-3.264-4.178-8.094-6.919-9.4-12.664a22.261,22.261,0,0,1,.522-11.358c1.436-4.308,3.917-8.355,3.917-13.055.305,1.985.63,3.97.952,5.955a19.982,19.982,0,0,0,.353-2.038,25.22,25.22,0,0,0-1.4-11.068.847.847,0,0,0-.591-.525l-8.844-2.18s-2.036,21.606-4.6,34.5c-.93,4.683,8.524,17.739,8.524,17.739a30.85,30.85,0,0,0,5.417-.745A13.547,13.547,0,0,0-823.776,1001.291Z" transform="translate(902.543 -938.005)" fill="#252b80"/>
          <path id="Path_7795" data-name="Path 7795" d="M-760.2,1067.979a31.827,31.827,0,0,0-7.4-10.705c-4.547-4.155.016-14.808,1.475-21.461-.322-1.985-.647-3.97-.952-5.955,0,4.7-2.481,8.747-3.917,13.055a22.261,22.261,0,0,0-.522,11.358c1.305,5.744,6.136,8.486,9.4,12.664a13.55,13.55,0,0,1-5.147,4.564C-764.711,1070.907-761.869,1069.853-760.2,1067.979Z" transform="translate(840.88 -1003.648)" fill="#171c69"/>
          <path id="Path_7796" data-name="Path 7796" d="M-843.149,988.626a2.938,2.938,0,0,0-.047,1.782h0l11.331-26.775-4.47-2.749,1.663-2.024-1.4-3.881-2.529-.623S-840.611,975.7-843.149,988.626Z" transform="translate(902.874 -938.005)" fill="#171c69"/>
          <g id="Group_4357" data-name="Group 4357" transform="translate(52.156 0.883)">
            <g id="Group_4354" data-name="Group 4354" transform="translate(0 2.109)">
              <path id="Path_7797" data-name="Path 7797" d="M-892.39,853.576a21.094,21.094,0,0,1-7.666-1.433l.048-.121a21.007,21.007,0,0,0,11.955.968l.028.128A20.76,20.76,0,0,1-892.39,853.576Z" transform="translate(900.056 -852.021)" fill="#252b80"/>
            </g>
            <g id="Group_4355" data-name="Group 4355" transform="translate(1.051 1.435)">
              <path id="Path_7798" data-name="Path 7798" d="M-880.17,853.134l-.1-.079a8.358,8.358,0,0,0,1.486-3.137,2.608,2.608,0,0,0,0-1.547,2.053,2.053,0,0,0-1.484-1.134,6.427,6.427,0,0,0-1.885-.062l-.091.006a58.831,58.831,0,0,1-9.751-.187l.013-.13a58.716,58.716,0,0,0,9.729.187l.091-.006a6.533,6.533,0,0,1,1.923.065,2.183,2.183,0,0,1,1.575,1.212,2.724,2.724,0,0,1,.01,1.625A8.488,8.488,0,0,1-880.17,853.134Z" transform="translate(892.003 -846.864)" fill="#252b80"/>
            </g>
            <g id="Group_4356" data-name="Group 4356" transform="translate(2.35)">
              <path id="Path_7799" data-name="Path 7799" d="M-870.409,836.7a32.1,32.1,0,0,0-11.625-.31l-.02-.129a32.228,32.228,0,0,1,11.672.312Z" transform="translate(882.054 -835.87)" fill="#252b80"/>
            </g>
          </g>
          <g id="Group_4358" data-name="Group 4358" transform="translate(56.812 5.799)">
            <path id="Path_7800" data-name="Path 7800" d="M-864.13,875.547l-.038,0a.261.261,0,0,1-.221-.3l.218-1.5a.261.261,0,0,1,.3-.221.261.261,0,0,1,.221.3l-.218,1.5A.261.261,0,0,1-864.13,875.547Z" transform="translate(864.392 -873.523)" fill="#080c53"/>
          </g>
          <g id="Group_4359" data-name="Group 4359" transform="translate(54.748 5.799)">
            <path id="Path_7801" data-name="Path 7801" d="M-879.938,875.547l-.038,0a.261.261,0,0,1-.221-.3l.218-1.5a.261.261,0,0,1,.3-.221.261.261,0,0,1,.221.3l-.218,1.5A.261.261,0,0,1-879.938,875.547Z" transform="translate(880.2 -873.523)" fill="#080c53"/>
          </g>
          <path id="Path_7802" data-name="Path 7802" d="M-883.225,906.024h3.612s-1.218,2.372-2.241,2.372S-883.225,906.024-883.225,906.024Z" transform="translate(937.578 -895.982)" fill="#defcff"/>
          <path id="Path_7803" data-name="Path 7803" d="M-850.895,920.353a5.166,5.166,0,0,1-.33,2.842l1.591,4.178,4.153-4.5-.56-4.728A13.3,13.3,0,0,1-850.895,920.353Z" transform="translate(909.756 -906.517)" fill="#ff7ba9"/>
          <path id="Path_7804" data-name="Path 7804" d="M-768.987,1186.91h2.63a19.81,19.81,0,0,0-.373-2.955q-1.081-.165-2.172-.353A12.036,12.036,0,0,1-768.987,1186.91Z" transform="translate(838.254 -1137.322)" fill="#f2f2f2"/>
          <path id="Path_7805" data-name="Path 7805" d="M-784.287,1138.966a13.683,13.683,0,0,1,2.082,5.827q1.091.188,2.172.353a15.641,15.641,0,0,0-2.347-5.694C-783.012,1139.289-783.652,1139.125-784.287,1138.966Z" transform="translate(851.557 -1098.513)" fill="#fff"/>
          <path id="Path_7806" data-name="Path 7806" d="M-769.678,1142.692c.063.093.125.188.186.282.016-.074.034-.147.051-.221Z" transform="translate(838.855 -1101.752)" fill="#252b80"/>
          <path id="Path_7807" data-name="Path 7807" d="M-726.715,1099.5c-.237-1.71-.5-3.421-.771-5.131q-.271.273-.539.55Z" transform="translate(802.639 -1059.74)" fill="#171c69"/>
          <path id="Path_7808" data-name="Path 7808" d="M-752.713,1081.6a94.345,94.345,0,0,0-5.572-16.707q-2.185,1.828-4.177,3.849c.271,1.71.533,3.421.771,5.131l.927,3.245s-3.535-.993-7.438-2.005c-.017.073-.035.147-.051.22a15.753,15.753,0,0,1,2.161,5.412A67.228,67.228,0,0,0-752.713,1081.6Z" transform="translate(837.615 -1034.107)" fill="#252b80"/>
          <path id="Path_7809" data-name="Path 7809" d="M-736.025,1076.5c-1.09-3.323-3.745-11.1-6.853-17.994q-.515.41-1.018.833a94.356,94.356,0,0,1,5.572,16.707,67.21,67.21,0,0,1-13.379-.855,19.82,19.82,0,0,1,.373,2.955h14.111A1.255,1.255,0,0,0-736.025,1076.5Z" transform="translate(823.227 -1028.558)" fill="#171c69"/>
          <path id="Path_7810" data-name="Path 7810" d="M-889.566,1166.427a5.81,5.81,0,0,1-3.655-.261c-1.828-.783-2.35-2.742-3.133-4.308-1.721,2.18-3.544,4.461-6.176,5.424.018.453.219.723.649.723,2.785,0,5.918-3.275,5.918-3.275s-.87,3.275,4.613,3.275h6.254a12.036,12.036,0,0,0,.084-3.308q-.643-.111-1.29-.228C-887.608,1164.207-888.261,1166.035-889.566,1166.427Z" transform="translate(954.364 -1118.415)" fill="#f3417d"/>
          <path id="Path_7811" data-name="Path 7811" d="M-893.589,1127.651c-3.633-.589-9.047,7.385-8.95,9.863,2.632-.964,4.455-3.244,6.176-5.424.783,1.567,1.306,3.525,3.133,4.308a5.81,5.81,0,0,0,3.656.261c1.305-.392,1.958-2.219,3.264-1.958.22.04.438.077.657.116a15.094,15.094,0,0,0-1.548-5.741C-889.7,1128.451-892.095,1127.893-893.589,1127.651Z" transform="translate(954.372 -1088.648)" fill="#ff7ba9"/>
          <path id="Path_7812" data-name="Path 7812" d="M-784.951,1138.8l-.1-.025a15.092,15.092,0,0,1,1.548,5.741l.633.112A13.681,13.681,0,0,0-784.951,1138.8Z" transform="translate(852.221 -1098.347)" fill="#f3417d"/>
          <path id="Path_7813" data-name="Path 7813" d="M-1021.558,1097.473l2.372,3.5-1.186-4.912Z" transform="translate(1057.852 -1061.212)" fill="#171c69"/>
          <circle id="Ellipse_225" data-name="Ellipse 225" cx="0.749" cy="0.749" r="0.749" transform="translate(60.64 51.732)" fill="#171c69"/>
          <path id="Path_7814" data-name="Path 7814" d="M-715.752,1141.519l5.5,2.014-6.235-4.568Z" transform="translate(792.604 -1098.513)" fill="#171c69"/>
          <path id="Path_7815" data-name="Path 7815" d="M-845.477,992.357l-.967,2.043.668,2.064.9-2.2Z" transform="translate(905.599 -971.044)" fill="#d62b64"/>
          <g id="Group_4360" data-name="Group 4360" transform="translate(65.907 52.809)">
            <path id="Path_7816" data-name="Path 7816" d="M-794.2,1237.556a.522.522,0,0,1-.454-.264.522.522,0,0,1,.195-.712l5.094-2.9a.522.522,0,0,1,.712.195.522.522,0,0,1-.195.712l-5.094,2.9A.521.521,0,0,1-794.2,1237.556Z" transform="translate(794.725 -1233.607)" fill="#171c69"/>
          </g>
          <g id="Group_4361" data-name="Group 4361" transform="translate(67.04 24.544)">
            <path id="Path_7817" data-name="Path 7817" d="M-783.914,1018.38a.129.129,0,0,1-.059-.014l-2.007-1.012a.13.13,0,0,1-.058-.175.13.13,0,0,1,.175-.058l2.007,1.012a.131.131,0,0,1,.058.175A.131.131,0,0,1-783.914,1018.38Z" transform="translate(786.051 -1017.107)" fill="#252b80"/>
          </g>
          <g id="Group_4362" data-name="Group 4362" transform="translate(65.952 29.701)">
            <path id="Path_7818" data-name="Path 7818" d="M-793.8,1058.277a.588.588,0,0,1-.583-.526.588.588,0,0,1,.523-.646l4.721-.494a.59.59,0,0,1,.645.523.588.588,0,0,1-.523.646l-4.721.494A.555.555,0,0,1-793.8,1058.277Z" transform="translate(794.385 -1056.608)" fill="#171c69"/>
          </g>
          <circle id="Ellipse_226" data-name="Ellipse 226" cx="0.535" cy="0.535" r="0.535" transform="translate(70.063 47.546)" fill="#fff"/>
          <path id="Path_7819" data-name="Path 7819" d="M-742.209,1194.055a.758.758,0,0,1-.758.758.758.758,0,0,1-.758-.758.758.758,0,0,1,.758-.758A.758.758,0,0,1-742.209,1194.055Z" transform="translate(816.29 -1145.751)" fill="#252b80"/>
          <circle id="Ellipse_227" data-name="Ellipse 227" cx="0.758" cy="0.758" r="0.758" transform="translate(25.201 36.109)" fill="#252b80"/>
          <circle id="Ellipse_228" data-name="Ellipse 228" cx="0.758" cy="0.758" r="0.758" transform="translate(26.495 37.61)" fill="#252b80"/>
          <circle id="Ellipse_229" data-name="Ellipse 229" cx="0.758" cy="0.758" r="0.758" transform="translate(27.823 39.025)" fill="#252b80"/>
          <path id="Path_7820" data-name="Path 7820" d="M-726.508,1195.222a.758.758,0,0,1-.758.758.758.758,0,0,1-.758-.758.758.758,0,0,1,.758-.758A.758.758,0,0,1-726.508,1195.222Z" transform="translate(802.639 -1146.766)" fill="#252b80"/>
          <circle id="Ellipse_230" data-name="Ellipse 230" cx="0.758" cy="0.758" r="0.758" transform="translate(76.661 47.858)" fill="#252b80"/>
          <path id="Path_7821" data-name="Path 7821" d="M-932.166,1570.034l-3.851-5.9-28.874,5.9Z" transform="translate(1008.583 -1468.17)" fill="#080c53"/>
          <g id="Group_4363" data-name="Group 4363" transform="translate(53.461 97.708)">
            <path id="Path_7822" data-name="Path 7822" d="M-889.993,1580.528H-890a.065.065,0,0,1-.055-.074l.289-1.958a.065.065,0,0,1,.042-.052.066.066,0,0,1,.065.011l1.633,1.389.453-1.834a.066.066,0,0,1,.044-.047.065.065,0,0,1,.063.014l1.536,1.413.183-1.807a.065.065,0,0,1,.037-.052.066.066,0,0,1,.064.005l2.024,1.371a.065.065,0,0,1,.017.091.065.065,0,0,1-.091.017l-1.933-1.309-.185,1.828a.065.065,0,0,1-.042.054.066.066,0,0,1-.068-.013l-1.551-1.427-.452,1.829a.065.065,0,0,1-.043.046.065.065,0,0,1-.062-.012l-1.623-1.381-.272,1.842A.065.065,0,0,1-889.993,1580.528Z" transform="translate(890.058 -1577.525)" fill="#171c69"/>
          </g>
          <g id="Group_4371" data-name="Group 4371" transform="translate(4.722 5.388)">
            <g id="Group_4364" data-name="Group 4364">
              <path id="Path_7823" data-name="Path 7823" d="M-1263.326,877.08a.065.065,0,0,1-.049-.022.065.065,0,0,1,0-.092l7.311-6.573a.065.065,0,0,1,.092,0,.065.065,0,0,1-.005.092l-7.311,6.573A.065.065,0,0,1-1263.326,877.08Z" transform="translate(1263.392 -870.377)" fill="#e6e6e6"/>
            </g>
            <g id="Group_4365" data-name="Group 4365" transform="translate(0.888 1.303)">
              <path id="Path_7824" data-name="Path 7824" d="M-1256.521,891.063a.066.066,0,0,1-.047-.02.065.065,0,0,1,0-.092l11.166-10.575a.066.066,0,0,1,.093,0,.065.065,0,0,1,0,.092l-11.166,10.575A.065.065,0,0,1-1256.521,891.063Z" transform="translate(1256.586 -880.358)" fill="#e6e6e6"/>
            </g>
            <g id="Group_4366" data-name="Group 4366" transform="translate(1.779 7.361)">
              <path id="Path_7825" data-name="Path 7825" d="M-1249.7,932.193a.065.065,0,0,1-.047-.02.065.065,0,0,1,0-.092l5.532-5.3a.065.065,0,0,1,.092,0,.065.065,0,0,1,0,.092l-5.532,5.3A.065.065,0,0,1-1249.7,932.193Z" transform="translate(1249.768 -926.763)" fill="#e6e6e6"/>
            </g>
            <g id="Group_4367" data-name="Group 4367" transform="translate(2.459 4.349)">
              <path id="Path_7826" data-name="Path 7826" d="M-1244.493,913.134a.065.065,0,0,1-.047-.02.065.065,0,0,1,0-.092l9.6-9.313a.065.065,0,0,1,.092,0,.065.065,0,0,1,0,.092l-9.6,9.313A.066.066,0,0,1-1244.493,913.134Z" transform="translate(1244.558 -903.691)" fill="#e6e6e6"/>
            </g>
            <g id="Group_4368" data-name="Group 4368" transform="translate(3.101 3.696)">
              <path id="Path_7827" data-name="Path 7827" d="M-1239.574,909.57a.065.065,0,0,1-.047-.02.065.065,0,0,1,0-.092l11.173-10.749a.065.065,0,0,1,.092,0,.065.065,0,0,1,0,.092l-11.173,10.749A.065.065,0,0,1-1239.574,909.57Z" transform="translate(1239.639 -898.691)" fill="#e6e6e6"/>
            </g>
            <g id="Group_4369" data-name="Group 4369" transform="translate(10.849 17.952)">
              <path id="Path_7828" data-name="Path 7828" d="M-1180.226,1011.779a.065.065,0,0,1-.046-.019.065.065,0,0,1,0-.092l3.773-3.76a.065.065,0,0,1,.092,0,.065.065,0,0,1,0,.092l-3.773,3.76A.065.065,0,0,1-1180.226,1011.779Z" transform="translate(1180.291 -1007.888)" fill="#e6e6e6"/>
            </g>
            <g id="Group_4370" data-name="Group 4370" transform="translate(11.619 16.621)">
              <path id="Path_7829" data-name="Path 7829" d="M-1174.326,1003.87a.065.065,0,0,1-.046-.019.065.065,0,0,1,0-.092l5.939-6.049a.065.065,0,0,1,.092,0,.065.065,0,0,1,0,.092l-5.939,6.049A.065.065,0,0,1-1174.326,1003.87Z" transform="translate(1174.392 -997.691)" fill="#e6e6e6"/>
            </g>
          </g>
          <g id="Group_4372" data-name="Group 4372" transform="translate(22.555 17.527)">
            <path id="Path_7830" data-name="Path 7830" d="M-1124.995,966.957a1.8,1.8,0,0,1-1.8-1.8,1.8,1.8,0,0,1,1.8-1.8,1.8,1.8,0,0,1,1.8,1.8A1.8,1.8,0,0,1-1124.995,966.957Zm0-3.208a1.41,1.41,0,0,0-1.408,1.408,1.41,1.41,0,0,0,1.408,1.408,1.41,1.41,0,0,0,1.408-1.408A1.41,1.41,0,0,0-1124.995,963.749Z" transform="translate(1126.795 -963.357)" fill="#b2ebf2"/>
          </g>
        </g>
        <path id="Path_7831" data-name="Path 7831" d="M-1125.3,1082.6c.314.534.673,1.107,1.076,1.7a17.964,17.964,0,0,0,1.843-.73q-.629-.894-1.232-1.8A16.778,16.778,0,0,1-1125.3,1082.6Z" transform="translate(1148.046 -1048.786)" fill="#f2f2f2"/>
        <path id="Path_7832" data-name="Path 7832" d="M-1117.147,1088.866a.535.535,0,0,1-.535.535.535.535,0,0,1-.535-.535.535.535,0,0,1,.535-.535A.535.535,0,0,1-1117.147,1088.866Z" transform="translate(1141.892 -1054.488)" fill="#fff"/>
      </g>
      <g id="Group_4375" data-name="Group 4375" transform="translate(-2134.441 404.386)">
        <rect id="Rectangle_524" data-name="Rectangle 524" width="13.969" height="50.523" transform="translate(12.936 1.262)" fill="#396091"/>
        <rect id="Rectangle_525" data-name="Rectangle 525" width="1.436" height="50.523" transform="translate(12.936 1.262)" fill="#254e82"/>
        <rect id="Rectangle_526" data-name="Rectangle 526" width="13.969" height="50.523" transform="translate(158.019 1.752)" fill="#396091"/>
        <rect id="Rectangle_527" data-name="Rectangle 527" width="1.306" height="50.523" transform="translate(158.019 1.752)" fill="#254e82"/>
        <path id="Rectangle_528" data-name="Rectangle 528" d="M1.267,0H183.586a1.267,1.267,0,0,1,1.267,1.267v0a1.267,1.267,0,0,1-1.267,1.267H1.267A1.267,1.267,0,0,1,0,1.267v0A1.267,1.267,0,0,1,1.267,0Z" transform="translate(0)" fill="#396091"/>
        <path id="Path_7833" data-name="Path 7833" d="M-1637.5,1216.374h-183.357a.748.748,0,0,1-.748-.748v.914a.748.748,0,0,0,.748.748H-1637.5a.748.748,0,0,0,.748-.748v-.914A.748.748,0,0,1-1637.5,1216.374Z" transform="translate(1821.606 -1214.753)" fill="#254e82"/>
      </g>
      <g id="Group_4376" data-name="Group 4376" transform="translate(-2181.415 456.661)">
        <path id="Path_7834" data-name="Path 7834" d="M-1936.6,1609.814a.458.458,0,0,1-.457.457h-243.9a.458.458,0,0,1-.457-.457.457.457,0,0,1,.457-.457h243.9A.457.457,0,0,1-1936.6,1609.814Z" transform="translate(2181.415 -1609.357)" fill="#f3a769"/>
      </g>
      <g id="Group_4390" data-name="Group 4390" transform="translate(-2148.785 353.484)">
        <path id="Path_7835" data-name="Path 7835" d="M-1742.225,1090.88a11.725,11.725,0,0,1,.815,5.26,13.525,13.525,0,0,0,1.361-4.52s3-.965,3.052-3.74A5.034,5.034,0,0,1-1742.225,1090.88Z" transform="translate(1766.932 -1052.783)" fill="#fec751"/>
        <path id="Path_7836" data-name="Path 7836" d="M-1801.874,928.524l-4.014.7-.25.56a10.134,10.134,0,0,0,3.572,1.048A20.949,20.949,0,0,1-1801.874,928.524Z" transform="translate(1822.501 -914.231)" fill="#f3417d"/>
        <path id="Path_7837" data-name="Path 7837" d="M-1825.921,938.149l-2.97,6.664s6.963,4.352,6.18.609a14.921,14.921,0,0,1,.362-6.225A10.137,10.137,0,0,1-1825.921,938.149Z" transform="translate(1842.284 -922.6)" fill="#ff7ba9"/>
        <path id="Path_7838" data-name="Path 7838" d="M-1818.871,872.524s3.036,5.831,2.078,7.4-6.582,1.828-6.582,1.828S-1830.871,874.091-1818.871,872.524Z" transform="translate(1839.498 -865.542)" fill="#ff7ba9"/>
        <path id="Path_7839" data-name="Path 7839" d="M-1895.651,1008.072l-1.282-2.581s-1.219,15.1,2.263,20.327a12.463,12.463,0,0,0,3.815,3.6A47.347,47.347,0,0,1-1895.651,1008.072Z" transform="translate(1901.623 -981.15)" fill="#fee952"/>
        <path id="Path_7840" data-name="Path 7840" d="M-1885.756,1025.261a47.348,47.348,0,0,0,4.8,21.344,20.2,20.2,0,0,0,7.12,2.636Z" transform="translate(1891.727 -998.339)" fill="#fec751"/>
        <path id="Path_7841" data-name="Path 7841" d="M-1768.082,1308.222l-3.341-.365-29.761,39.362h9.27c4-7.013,7.652-14.114,12-21.215C-1776.125,1319.782-1772.287,1313.832-1768.082,1308.222Z" transform="translate(1818.193 -1244.041)" fill="#c71450"/>
        <path id="Path_7842" data-name="Path 7842" d="M-1718.172,1328.435c-4.352,7.1-8,14.2-12,21.215h14.529l11.936-38.709-2.633-.288C-1710.551,1316.263-1714.389,1322.213-1718.172,1328.435Z" transform="translate(1756.457 -1246.472)" fill="#d62b64"/>
        <path id="Path_7843" data-name="Path 7843" d="M-1814.1,972.616l-2.872-.759-3.216,1.081A11.452,11.452,0,0,0-1814.1,972.616Z" transform="translate(1834.717 -951.907)" fill="#ff7ba9"/>
        <path id="Path_7844" data-name="Path 7844" d="M-1872.9,980.143a1.905,1.905,0,0,0-1.233-1.022l-5.5-1.453a11.451,11.451,0,0,1-6.087.323l-9.84,3.31,21.933,7.881,2.224,7.02a9.746,9.746,0,0,1,5.148-2.143Z" transform="translate(1900.247 -956.959)" fill="#fee952"/>
        <path id="Path_7845" data-name="Path 7845" d="M-1705.351,1103.26l-.023-.049a9.746,9.746,0,0,0-5.148,2.143l.161.509A8.579,8.579,0,0,1-1705.351,1103.26Z" transform="translate(1739.368 -1066.112)" fill="#f3417d"/>
        <path id="Path_7846" data-name="Path 7846" d="M-1700.27,1111.975l-4.006-8.391a8.579,8.579,0,0,0-5.01,2.6l3.1,9.778a1.967,1.967,0,0,0,1.875,1.373h14.363Z" transform="translate(1738.293 -1066.437)" fill="#ff7ba9"/>
        <path id="Path_7847" data-name="Path 7847" d="M-1704.313,1125.856h14.363l-1.01-.525-12.455-1.444-4.3-10.506a7.08,7.08,0,0,0-1.57,1.325l3.1,9.778A1.967,1.967,0,0,0-1704.313,1125.856Z" transform="translate(1738.293 -1074.954)" fill="#f3417d"/>
        <path id="Path_7848" data-name="Path 7848" d="M-1801.183,1567l4.809-6.36,19.431,6.36Z" transform="translate(1818.193 -1463.823)" fill="#fec751"/>
        <path id="Path_7849" data-name="Path 7849" d="M-1670.589,1249l-26.807-3.281a11.136,11.136,0,0,1-2.829,6.284c7.833,1.567,16.319,2.089,24.152.261a14.349,14.349,0,0,0-1.175,1.828,162.431,162.431,0,0,0-9.449,39.1h12.816Z" transform="translate(1730.415 -1190.017)" fill="#d62b64"/>
        <path id="Path_7850" data-name="Path 7850" d="M-1758.015,1251.806c-7.833,1.828-16.319,1.306-24.152-.261a11.135,11.135,0,0,0,2.829-6.284l-.566-.069s-21.206,11.068-12.446,11.837,28.336-.957,28.336-.957l-14.5,36.664h9.873a162.431,162.431,0,0,1,9.449-39.1A14.341,14.341,0,0,1-1758.015,1251.806Z" transform="translate(1812.358 -1189.556)" fill="#c71450"/>
        <path id="Path_7851" data-name="Path 7851" d="M-1874.582,1026.741c-2.312-1.1-1.263-3.008-.143-5.489a11.725,11.725,0,0,0-.815-5.26,5.034,5.034,0,0,0,5.228-3c0-.1,0-.2-.005-.3-.174-3.008-14.361-13.287-25.24-10.454,0,0,1.679,10.753,7.541,18.847a17.325,17.325,0,0,1,1.315,2.141c6.333,1.953,11.409,6.908,14.3,13a17.1,17.1,0,0,0,4.492-2.883C-1868.531,1032.417-1871.42,1028.249-1874.582,1026.741Z" transform="translate(1900.247 -977.896)" fill="#fee952"/>
        <path id="Path_7852" data-name="Path 7852" d="M-1644.482,1568.971h-27.742l.189-.479.052-.13,2.157-5.454,9.086,2.174,1.27.3,1.744.418,1.269.3h0l9.425,2.255.546.13Z" transform="translate(1706.07 -1465.794)" fill="#fec751"/>
        <g id="Group_4377" data-name="Group 4377" transform="translate(34.035 102.568)">
          <path id="Path_7853" data-name="Path 7853" d="M-1645.224,1604.818h-25.55l.052-.13h24.953Z" transform="translate(1670.775 -1604.687)" fill="#c71450"/>
        </g>
        <g id="Group_4378" data-name="Group 4378" transform="translate(42.142 99.287)">
          <path id="Path_7854" data-name="Path 7854" d="M-1604.216,1579.861l-2.439,2.977-.107.13-.393.479h-1.52l.393-.479.107-.13,2.688-3.281Z" transform="translate(1608.675 -1579.557)" fill="#c71450"/>
        </g>
        <g id="Group_4379" data-name="Group 4379" transform="translate(45.747 100.009)">
          <path id="Path_7855" data-name="Path 7855" d="M-1579.545,1588.256l.393-.479.107-.131,1.847-2.255-1.269-.3-2.1,2.559-.107.131-.393.479Z" transform="translate(1581.065 -1585.087)" fill="#c71450"/>
        </g>
        <path id="Path_7856" data-name="Path 7856" d="M-1831.6,996.524a24.269,24.269,0,0,0-.815,3.661q-.139.924-.2,1.853c-.023.309-.035.619-.05.927s-.016.618-.009.927a19.835,19.835,0,0,0,.377,3.663c.072.3.124.6.209.893l.117.443.138.437c.085.293.2.577.3.864.05.144.115.282.173.423s.115.283.18.42l.2.413.1.207.108.2.441.82c.3.565.611,1.12.863,1.708.129.292.271.578.389.875l.345.894c.121.3.209.6.308.907s.2.607.269.919a18.214,18.214,0,0,1,.626,3.768c.017.318.017.637.024.954l-.013.477-.007.238-.02.238a9.112,9.112,0,0,1-.306,1.871,11.389,11.389,0,0,0,.052-1.875l-.009-.233-.018-.233-.034-.465c-.038-.309-.07-.618-.117-.925s-.092-.614-.156-.917-.125-.607-.2-.908-.157-.6-.235-.9-.184-.591-.275-.886a26.19,26.19,0,0,0-1.41-3.425c-.14-.275-.26-.56-.418-.827l-.449-.811-.458-.837-.115-.213-.105-.219-.21-.437a15.95,15.95,0,0,1-1.134-3.7,17.235,17.235,0,0,1-.224-1.915c-.012-.16-.021-.32-.024-.481s-.011-.32-.012-.481c.005-.32,0-.641.022-.96a19.941,19.941,0,0,1,.532-3.78A17.614,17.614,0,0,1-1831.6,996.524Z" transform="translate(1846.214 -973.354)" fill="#fec751"/>
        <path id="Path_7857" data-name="Path 7857" d="M-1827.724,1166.26c4.375,8.367,3.465,21.184,3.465,21.184s10.4-3.83,15.443-10.879c0,0-.042-.067-.121-.185a17.108,17.108,0,0,1-4.492,2.883C-1816.315,1173.168-1821.391,1168.213-1827.724,1166.26Z" transform="translate(1841.269 -1120.93)" fill="#fec751"/>
        <path id="Path_7858" data-name="Path 7858" d="M-1913.556,829.334s5.766-2.089,6.495-5.831-7.191-8.878-11.717,2.524c0,0-6.005.522-4.874,7.4a14.683,14.683,0,0,0-7.746,11.028c-1.306,8.206,14.561,15.07,18.016,2.375a27.648,27.648,0,0,0-.261-16.281s-1.85.7-1.708-1.126S-1913.556,829.334-1913.556,829.334Z" transform="translate(1931.474 -819.044)" fill="#252b80"/>
        <g id="Group_4387" data-name="Group 4387" transform="translate(1.612 1.26)">
          <g id="Group_4380" data-name="Group 4380" transform="translate(17.931 0.21)">
            <path id="Path_7859" data-name="Path 7859" d="M-1781.716,837.271a.065.065,0,0,1-.048-.021.065.065,0,0,1,0-.092,7.882,7.882,0,0,0,2.425-6.774.065.065,0,0,1,.056-.074.065.065,0,0,1,.074.056,8.014,8.014,0,0,1-2.465,6.887A.065.065,0,0,1-1781.716,837.271Z" transform="translate(1781.781 -830.31)" fill="#171c69"/>
          </g>
          <g id="Group_4381" data-name="Group 4381" transform="translate(12.998 0.809)">
            <path id="Path_7860" data-name="Path 7860" d="M-1819.347,846.49a.065.065,0,0,1-.065-.057,7.421,7.421,0,0,1,.4-4.5,6.973,6.973,0,0,1,2.173-2.188l.309-.22a9.87,9.87,0,0,0,2.032-1.742,3.085,3.085,0,0,0,.709-2.807.065.065,0,0,1,.042-.082.065.065,0,0,1,.082.042,3.213,3.213,0,0,1-.732,2.929,9.963,9.963,0,0,1-2.058,1.766l-.308.22a6.861,6.861,0,0,0-2.135,2.144,7.315,7.315,0,0,0-.388,4.416.065.065,0,0,1-.056.073Z" transform="translate(1819.567 -834.895)" fill="#171c69"/>
          </g>
          <g id="Group_4382" data-name="Group 4382" transform="translate(8.154)">
            <path id="Path_7861" data-name="Path 7861" d="M-1856.6,841.224a.065.065,0,0,1-.065-.064,6.188,6.188,0,0,1,2.485-5.058,12.185,12.185,0,0,1,1.481-.886,14.041,14.041,0,0,0,1.275-.741,10.4,10.4,0,0,0,3.77-5.731.065.065,0,0,1,.082-.043.065.065,0,0,1,.043.082,10.529,10.529,0,0,1-3.822,5.8,14.182,14.182,0,0,1-1.286.749,12.093,12.093,0,0,0-1.465.876,6.055,6.055,0,0,0-2.432,4.95.065.065,0,0,1-.064.067Z" transform="translate(1856.668 -828.697)" fill="#171c69"/>
          </g>
          <g id="Group_4383" data-name="Group 4383" transform="translate(2.704 8.121)">
            <path id="Path_7862" data-name="Path 7862" d="M-1896.749,911.961a.065.065,0,0,1-.054-.029,9.514,9.514,0,0,1-1.513-6.661,9.513,9.513,0,0,1,3.391-5.929c.39-.315.811-.6,1.218-.882a10.747,10.747,0,0,0,1.995-1.613c1.473-1.647,1.761-4.008,1.847-5.882a.065.065,0,0,1,.068-.062.065.065,0,0,1,.062.068c-.087,1.895-.379,4.285-1.88,5.963a10.85,10.85,0,0,1-2.018,1.634c-.405.277-.824.564-1.21.876a9.382,9.382,0,0,0-3.344,5.846,9.383,9.383,0,0,0,1.492,6.568.065.065,0,0,1-.017.091A.065.065,0,0,1-1896.749,911.961Z" transform="translate(1898.416 -890.903)" fill="#171c69"/>
          </g>
          <g id="Group_4384" data-name="Group 4384" transform="translate(0 16.06)">
            <path id="Path_7863" data-name="Path 7863" d="M-1917.253,965.058a.065.065,0,0,1-.052-.026,9.58,9.58,0,0,1-1.126-9.2,18.774,18.774,0,0,1,2.608-4.1.065.065,0,0,1,.092-.012.065.065,0,0,1,.012.092,18.68,18.68,0,0,0-2.591,4.072,9.446,9.446,0,0,0,1.111,9.068.065.065,0,0,1-.014.091A.065.065,0,0,1-1917.253,965.058Z" transform="translate(1919.127 -951.709)" fill="#171c69"/>
          </g>
          <g id="Group_4385" data-name="Group 4385" transform="translate(7.802 11.876)">
            <path id="Path_7864" data-name="Path 7864" d="M-1858.4,938.037a.065.065,0,0,1-.059-.037,10.824,10.824,0,0,1-.689-6.546,21.345,21.345,0,0,1,2.357-6.211l.214-.4c.879-1.626,1.787-3.308,1.633-5.111a.065.065,0,0,1,.06-.071.064.064,0,0,1,.071.059c.157,1.842-.761,3.541-1.648,5.185l-.214.4a21.228,21.228,0,0,0-2.344,6.173,10.7,10.7,0,0,0,.678,6.467.065.065,0,0,1-.031.087A.068.068,0,0,1-1858.4,938.037Z" transform="translate(1859.367 -919.663)" fill="#171c69"/>
          </g>
          <g id="Group_4386" data-name="Group 4386" transform="translate(11.97 11.143)">
            <path id="Path_7865" data-name="Path 7865" d="M-1827.375,932.389a.064.064,0,0,1-.034-.01.065.065,0,0,1-.021-.09,22.915,22.915,0,0,0,2.426-18.158.065.065,0,0,1,.044-.081.065.065,0,0,1,.081.044,23.047,23.047,0,0,1-2.44,18.263A.065.065,0,0,1-1827.375,932.389Z" transform="translate(1827.441 -914.048)" fill="#171c69"/>
          </g>
        </g>
        <path id="Path_7866" data-name="Path 7866" d="M-1769.811,890.865c.063.249.018.475-.1.5s-.265-.148-.327-.4-.018-.475.1-.5S-1769.874,890.616-1769.811,890.865Z" transform="translate(1791.313 -881.141)" fill="#171c69"/>
        <path id="Path_7867" data-name="Path 7867" d="M-1764.415,909.982s-.179.7-.685.816c0,0,.457,1.217.62.975A6.9,6.9,0,0,0-1764.415,909.982Z" transform="translate(1786.821 -898.11)" fill="#defcff"/>
        <path id="Path_7868" data-name="Path 7868" d="M-1736.891,1038.524l1.218,3.568h0l2.224,7.02a8.491,8.491,0,0,1,1.649-1.095Z" transform="translate(1762.294 -1009.87)" fill="#fec751"/>
        <g id="Group_4388" data-name="Group 4388" transform="translate(4.958 21.068)">
          <path id="Path_7869" data-name="Path 7869" d="M-1884.749,1121.094a.5.5,0,0,1-.505.5.5.5,0,0,1-.5-.5.5.5,0,0,1,.5-.5A.5.5,0,0,1-1884.749,1121.094Z" transform="translate(1886.769 -1102.29)" fill="#fec751"/>
          <path id="Path_7870" data-name="Path 7870" d="M-1817.08,1121.094a.5.5,0,0,1-.505.5.5.5,0,0,1-.5-.5.5.5,0,0,1,.5-.5A.505.505,0,0,1-1817.08,1121.094Z" transform="translate(1827.934 -1102.29)" fill="#fec751"/>
          <path id="Path_7871" data-name="Path 7871" d="M-1855.73,1123.631a.5.5,0,0,1-.5.5.5.5,0,0,1-.5-.5.5.5,0,0,1,.5-.5A.5.5,0,0,1-1855.73,1123.631Z" transform="translate(1861.538 -1104.496)" fill="#fec751"/>
          <path id="Path_7872" data-name="Path 7872" d="M-1851.863,1093.758a.5.5,0,0,1-.5.5.5.5,0,0,1-.5-.5.5.5,0,0,1,.5-.505A.5.5,0,0,1-1851.863,1093.758Z" transform="translate(1858.176 -1078.523)" fill="#fec751"/>
          <path id="Path_7873" data-name="Path 7873" d="M-1774.415,980.927a.5.5,0,0,1-.5.5.5.5,0,0,1-.5-.5.5.5,0,0,1,.5-.505A.5.5,0,0,1-1774.415,980.927Z" transform="translate(1790.839 -980.422)" fill="#fec751"/>
          <circle id="Ellipse_231" data-name="Ellipse 231" cx="0.505" cy="0.505" r="0.505" transform="translate(18.041 6.136)" fill="#fec751"/>
          <path id="Path_7874" data-name="Path 7874" d="M-1750.43,1075.714a.5.5,0,0,1-.5.5.5.5,0,0,1-.5-.5.5.5,0,0,1,.5-.5A.5.5,0,0,1-1750.43,1075.714Z" transform="translate(1769.985 -1062.834)" fill="#fec751"/>
          <path id="Path_7875" data-name="Path 7875" d="M-1754.3,1187.162a.5.5,0,0,1-.5.5.5.5,0,0,1-.5-.5.5.5,0,0,1,.5-.5A.5.5,0,0,1-1754.3,1187.162Z" transform="translate(1773.348 -1159.733)" fill="#fec751"/>
          <path id="Path_7876" data-name="Path 7876" d="M-1734.283,1236.294a.5.5,0,0,1-.5.505.505.505,0,0,1-.5-.505.505.505,0,0,1,.5-.5A.5.5,0,0,1-1734.283,1236.294Z" transform="translate(1755.947 -1202.45)" fill="#fec751"/>
          <path id="Path_7877" data-name="Path 7877" d="M-1758.165,1141.828a.5.5,0,0,1-.5.5.5.5,0,0,1-.5-.5.5.5,0,0,1,.5-.5A.5.5,0,0,1-1758.165,1141.828Z" transform="translate(1776.711 -1120.317)" fill="#fec751"/>
          <path id="Path_7878" data-name="Path 7878" d="M-1722.616,1208.241a.5.5,0,0,1-.5.5.5.5,0,0,1-.5-.5.5.5,0,0,1,.5-.505A.5.5,0,0,1-1722.616,1208.241Z" transform="translate(1745.803 -1178.06)" fill="#fec751"/>
          <path id="Path_7879" data-name="Path 7879" d="M-1693.574,1238.112a.5.5,0,0,1-.505.5.5.5,0,0,1-.5-.5.5.5,0,0,1,.5-.5A.5.5,0,0,1-1693.574,1238.112Z" transform="translate(1720.552 -1204.031)" fill="#fec751"/>
          <path id="Path_7880" data-name="Path 7880" d="M-1781.639,1060.91a.5.5,0,0,1-.5.505.5.5,0,0,1-.5-.505.5.5,0,0,1,.5-.5A.5.5,0,0,1-1781.639,1060.91Z" transform="translate(1797.12 -1049.963)" fill="#fec751"/>
          <path id="Path_7881" data-name="Path 7881" d="M-1779.881,1106.6a.5.5,0,0,1-.5.5.5.5,0,0,1-.5-.5.5.5,0,0,1,.5-.505A.5.5,0,0,1-1779.881,1106.6Z" transform="translate(1795.592 -1089.686)" fill="#fec751"/>
          <circle id="Ellipse_232" data-name="Ellipse 232" cx="0.505" cy="0.505" r="0.505" transform="translate(10.349 13.222)" fill="#fec751"/>
          <path id="Path_7882" data-name="Path 7882" d="M-1783.749,1013.828a.5.5,0,0,1-.5.5.5.5,0,0,1-.505-.5.505.505,0,0,1,.505-.505A.5.5,0,0,1-1783.749,1013.828Z" transform="translate(1798.955 -1009.028)" fill="#fec751"/>
          <path id="Path_7883" data-name="Path 7883" d="M-1743.616,990.539a.5.5,0,0,1-.5.5.5.5,0,0,1-.5-.5.5.5,0,0,1,.5-.5A.5.5,0,0,1-1743.616,990.539Z" transform="translate(1764.061 -988.779)" fill="#fec751"/>
          <path id="Path_7884" data-name="Path 7884" d="M-1722.616,1065.537a.5.5,0,0,1-.5.5.5.5,0,0,1-.5-.5.5.5,0,0,1,.5-.5A.5.5,0,0,1-1722.616,1065.537Z" transform="translate(1745.803 -1053.986)" fill="#fec751"/>
          <path id="Path_7885" data-name="Path 7885" d="M-1716.382,1024.06a.505.505,0,0,1-.5.505.5.5,0,0,1-.5-.505.5.5,0,0,1,.5-.5A.5.5,0,0,1-1716.382,1024.06Z" transform="translate(1740.382 -1017.924)" fill="#fec751"/>
          <circle id="Ellipse_233" data-name="Ellipse 233" cx="0.505" cy="0.505" r="0.505" transform="translate(24.727 15.574)" fill="#fec751"/>
          <path id="Path_7886" data-name="Path 7886" d="M-1693.574,1069.9a.5.5,0,0,1-.505.5.5.5,0,0,1-.5-.5.5.5,0,0,1,.5-.5A.5.5,0,0,1-1693.574,1069.9Z" transform="translate(1720.552 -1057.782)" fill="#fec751"/>
          <path id="Path_7887" data-name="Path 7887" d="M-1892.676,1084.914a.505.505,0,0,1-.709-.083.5.5,0,0,1,.083-.709.5.5,0,0,1,.709.083A.5.5,0,0,1-1892.676,1084.914Z" transform="translate(1893.494 -1070.489)" fill="#fec751"/>
        </g>
        <g id="Group_4389" data-name="Group 4389" transform="translate(3.669 41.165)">
          <rect id="Rectangle_529" data-name="Rectangle 529" width="1.762" height="24.674" transform="translate(20.622 34.009)" fill="#252b80"/>
          <rect id="Rectangle_530" data-name="Rectangle 530" width="0.653" height="24.674" transform="translate(20.622 34.009)" fill="#161c73"/>
          <path id="Rectangle_531" data-name="Rectangle 531" d="M0,0H9.3a0,0,0,0,1,0,0V4.651A4.651,4.651,0,0,1,4.651,9.3h0A4.651,4.651,0,0,1,0,4.651V0A0,0,0,0,1,0,0Z" transform="translate(16.836 26.959)" fill="#252b80"/>
          <path id="Path_7888" data-name="Path 7888" d="M-1765.991,1399.238h-7.539a.881.881,0,0,1-.881-.881v.914a.881.881,0,0,0,.881.881h7.539a.881.881,0,0,0,.881-.881v-.914A.881.881,0,0,1-1765.991,1399.238Z" transform="translate(1791.248 -1363.891)" fill="#161c73"/>
          <path id="Path_7889" data-name="Path 7889" d="M-1821.169,1560.668h-29.244l14.622-7.311Z" transform="translate(1857.326 -1498.656)" fill="#161c73"/>
          <path id="Path_7890" data-name="Path 7890" d="M-1894.074,1137.947a10.858,10.858,0,0,1,3.011-3.59h-11.182a1.125,1.125,0,0,0-1.075,1.455l7.843,25.5h13.144c-2.709-3.353-6.213-6.187-9-9.792C-1894.335,1147.739-1896.163,1142.647-1894.074,1137.947Z" transform="translate(1903.371 -1134.357)" fill="#161c73"/>
          <path id="Path_7891" data-name="Path 7891" d="M-1830.8,1135.137a1.125,1.125,0,0,0-1.071-.78h-3.252a10.858,10.858,0,0,0-3.011,3.59c-2.089,4.7-.261,9.791,2.742,13.578,2.785,3.6,6.29,6.438,9,9.792h4.024Z" transform="translate(1847.429 -1134.357)" fill="#252b80"/>
          <path id="Path_7892" data-name="Path 7892" d="M-1888.347,1135.075a1.125,1.125,0,0,1,1.071.78l8.2,25.461h1.289l-8.431-26.179a1.125,1.125,0,0,0-1.071-.78h-14.434a1.122,1.122,0,0,0-1.047.718Z" transform="translate(1902.849 -1134.357)" fill="#161c73"/>
          <path id="Path_7893" data-name="Path 7893" d="M-1822.778,1334.207h-26.459a1.175,1.175,0,0,1-1.175-1.175h0a1.175,1.175,0,0,1,1.175-1.175h26.459a1.175,1.175,0,0,1,1.175,1.175h0A1.175,1.175,0,0,1-1822.778,1334.207Z" transform="translate(1857.326 -1306.073)" fill="#252b80"/>
          <path id="Path_7894" data-name="Path 7894" d="M-1822.778,1338.075h-26.459a1.175,1.175,0,0,1-1.083-.718,1.172,1.172,0,0,0-.092.457,1.175,1.175,0,0,0,1.175,1.175h26.459a1.175,1.175,0,0,0,1.175-1.175,1.172,1.172,0,0,0-.092-.457A1.175,1.175,0,0,1-1822.778,1338.075Z" transform="translate(1857.326 -1310.855)" fill="#161c73"/>
        </g>
      </g>
      <g id="Group_4401" data-name="Group 4401" transform="translate(-2114.615 357.495)">
        <path id="Path_7895" data-name="Path 7895" d="M-1534.674,945.717a7.372,7.372,0,0,1,.684-2.526l-4.874,1.218-.2,1.116A10.078,10.078,0,0,1-1534.674,945.717Z" transform="translate(1556.121 -930.994)" fill="#f3417d"/>
        <path id="Path_7896" data-name="Path 7896" d="M-1540.9,960.263a10.079,10.079,0,0,0-4.386-.192l-.935,5.324s7.659,3.743,6.005-.435A9.861,9.861,0,0,1-1540.9,960.263Z" transform="translate(1562.35 -945.54)" fill="#ff7ba9"/>
        <path id="Path_7897" data-name="Path 7897" d="M-1552.177,884.524s2.959,5.744,2.611,7.311-4,2.524-8.529,1.567S-1563.318,885.133-1552.177,884.524Z" transform="translate(1575.353 -879.987)" fill="#ff7ba9"/>
        <path id="Path_7898" data-name="Path 7898" d="M-1582.772,857s6.876-1.393,6.528-5.483-16.189-.348-17.059,4.352,1.828,8.965,6.615,8.878,3.307-6.354,3.307-6.354-1.044.338-1.044-1.137S-1582.772,857-1582.772,857Z" transform="translate(1603.424 -849.769)" fill="#080c53"/>
        <path id="Path_7899" data-name="Path 7899" d="M-1444.466,1307.857l-21.759,39.362h12.576c4.207-13.072,8.657-25.832,12.077-38.993Z" transform="translate(1492.795 -1248.052)" fill="#eb8b3b"/>
        <path id="Path_7900" data-name="Path 7900" d="M-1351.837,1311.445l-5.984-.763c-3.419,13.161-7.87,25.921-12.077,38.993h9.531Z" transform="translate(1409.043 -1250.508)" fill="#f3a769"/>
        <path id="Path_7901" data-name="Path 7901" d="M-1518.89,1237.886s18.015-2.68,26.524-1.981a1.807,1.807,0,0,1,1.532,1.133l18.867,47.521h-23.186l-2.272-37.142s-18.408,2.219-31.463,2.089S-1518.89,1237.886-1518.89,1237.886Z" transform="translate(1550.757 -1185.393)" fill="#f3a769"/>
        <path id="Path_7902" data-name="Path 7902" d="M-1435.588,1553.648h-30.637l.407-.736.072-.13.792-1.432,19.289-1.7a7.192,7.192,0,0,0,3.4-4.364s4.776-.186,6.293,5.98a14.029,14.029,0,0,1,.286,1.517c.007.043.012.086.017.13Q-1435.621,1553.268-1435.588,1553.648Z" transform="translate(1492.795 -1454.481)" fill="#e03f34"/>
        <g id="Group_4391" data-name="Group 4391" transform="translate(51.157 89.995)">
          <path id="Path_7903" data-name="Path 7903" d="M-1274.151,1543.971a.066.066,0,0,1-.029-.007.065.065,0,0,1-.029-.088l1.209-2.388-2.327,1.3a.065.065,0,0,1-.074-.007.065.065,0,0,1-.019-.073l.906-2.445-2.08,1.477a.065.065,0,0,1-.077,0,.065.065,0,0,1-.022-.074l.841-2.313-1.938,1.409a.065.065,0,0,1-.091-.015.065.065,0,0,1,.014-.091l2.111-1.534a.066.066,0,0,1,.078,0,.065.065,0,0,1,.022.074l-.842,2.316,2.081-1.478a.064.064,0,0,1,.077,0,.065.065,0,0,1,.022.074l-.918,2.478,2.359-1.317a.065.065,0,0,1,.077.01.066.066,0,0,1,.013.076l-1.306,2.578A.066.066,0,0,1-1274.151,1543.971Z" transform="translate(1277.894 -1539.108)" fill="#252b80"/>
        </g>
        <path id="Path_7904" data-name="Path 7904" d="M-1528.887,1263.476c13.055.131,31.463-2.089,31.463-2.089l2.272,37.142h10.8l-10.8-44.845-2.746,3.655c-5.043,3.656-20.992,2.742-20.992,2.742,1.512-3.264,0-8.225,0-8.225S-1541.943,1263.346-1528.887,1263.476Z" transform="translate(1550.757 -1199.363)" fill="#eb8b3b"/>
        <path id="Path_7905" data-name="Path 7905" d="M-1216.939,1553.656h-27.8l-.044-.736-.009-.131-.083-1.375,17.883-1.871a3.96,3.96,0,0,0,2.12-4.251s6.7-.215,7.832,7.5l.02.131Q-1216.973,1553.276-1216.939,1553.656Z" transform="translate(1300.343 -1454.49)" fill="#ee4a3e"/>
        <g id="Group_4392" data-name="Group 4392" transform="translate(26.977 98.299)">
          <path id="Path_7906" data-name="Path 7906" d="M-1406.76,1602.848H-1463.1l.072-.131h56.254Z" transform="translate(1463.105 -1602.717)" fill="#252b80"/>
        </g>
        <path id="Path_7907" data-name="Path 7907" d="M-1544.575,972.885l-3.683-1.028-3.123,1.2A25.219,25.219,0,0,0-1544.575,972.885Z" transform="translate(1566.833 -955.918)" fill="#ff7ba9"/>
        <path id="Path_7908" data-name="Path 7908" d="M-1256.039,1062.025l-.047.031a10.039,10.039,0,0,1,3.227,5.785q.606-.386,1.2-.8A13.049,13.049,0,0,0-1256.039,1062.025Z" transform="translate(1310.09 -1034.314)" fill="#f3417d"/>
        <path id="Path_7909" data-name="Path 7909" d="M-1257.917,1010.272s-3.59-3.133-5.94-1.893-.065,2.219,1.958,1.7a4.245,4.245,0,0,0-.653,3.068l-1.11.74a13.051,13.051,0,0,1,4.378,5.021,31.6,31.6,0,0,0,3.521-2.823c.522-.522,2.219.392,3.264-.261,2.219-1.175.914-4.7,1.567-6.136.529-1.163,2.428-1.813,3.894-2.781C-1247.57,1005.535-1257.917,1010.272-1257.917,1010.272Z" transform="translate(1317.712 -986.174)" fill="#ff7ba9"/>
        <path id="Path_7910" data-name="Path 7910" d="M-1221.815,1011.339c-.653,1.436.653,4.961-1.567,6.136-1.044.653-2.742-.261-3.264.261a32.51,32.51,0,0,1-4.718,3.619,13.845,13.845,0,0,1,.276,2.5,14.71,14.71,0,0,0,4.312-3.9s4.047.261,5.353-2.35,0-5.875,0-5.875,3.59-1.371,3.525-3.068a.315.315,0,0,0-.023-.1C-1219.387,1009.526-1221.287,1010.175-1221.815,1011.339Z" transform="translate(1288.595 -987.828)" fill="#f3417d"/>
        <path id="Path_7911" data-name="Path 7911" d="M-1664.042,1022.712l-5.611,17.164a1.79,1.79,0,0,0,.676,2.024l10.152,6.368c-3.155-2.885-6.091-5.856-9.152-8.826C-1666.841,1033.865-1665.379,1028.289-1664.042,1022.712Z" transform="translate(1669.742 -1000.134)" fill="#f5c698"/>
        <path id="Path_7912" data-name="Path 7912" d="M-1602.544,997.357a11.369,11.369,0,0,0-3.165-5.705l-8.674,5.783-13.686-15.278a1.786,1.786,0,0,0-.85-.529l-6.812-1.9a25.219,25.219,0,0,1-6.806.171l-8.524,3.273a1.338,1.338,0,0,0-.792.833l-.436,1.334c-1.337,5.577-2.8,11.153-3.935,16.73,3.061,2.971,6,5.941,9.152,8.826l6.949,4.359,10.27-26.372s.673,1.041,1.751,2.6a17.574,17.574,0,0,0-.446-3.509c3.394,5.614,8.225,9.922,12.533,14.752A65.038,65.038,0,0,0-1602.544,997.357Z" transform="translate(1657.99 -962.761)" fill="#ffdfbf"/>
        <path id="Path_7913" data-name="Path 7913" d="M-1444.225,1042.857a17.565,17.565,0,0,1,.446,3.509c2.508,3.616,7.212,10.014,10.752,12.57a2.266,2.266,0,0,0,1.807.376,55.4,55.4,0,0,0,13.43-4.686,18.477,18.477,0,0,0-.431-2.382,65.046,65.046,0,0,1-13.471,5.365C-1436,1052.779-1440.831,1048.471-1444.225,1042.857Z" transform="translate(1473.667 -1017.649)" fill="#f5c698"/>
        <path id="Path_7914" data-name="Path 7914" d="M-1267.561,1062.265l-1.723,1.149a12.774,12.774,0,0,1,3.6,8.087c.56-.3,1.106-.618,1.63-.951A10.98,10.98,0,0,0-1267.561,1062.265Z" transform="translate(1321.565 -1034.523)" fill="#f5c698"/>
        <path id="Path_7915" data-name="Path 7915" d="M-1618.891,1017.191s6.484,41.081,15.231,41.081a8.708,8.708,0,0,0,5.168-1.573,13.08,13.08,0,0,0,2.4-8.741c-.392-3-2.219-6.005-1.7-9.4.783-6.136,3.133-11.88,1.7-18.016.633,1.048,1.317,2.05,2.038,3.018a42.558,42.558,0,0,0-1.385-5.76Z" transform="translate(1625.53 -995.333)" fill="#ffdfbf"/>
        <path id="Path_7916" data-name="Path 7916" d="M-1461.93,1060.873c-.522,3.394,1.305,6.4,1.7,9.4a13.079,13.079,0,0,1-2.4,8.74c4.115-2.917,4.83-8.871,4.83-8.871-5.494-7.311-1.294-12.359-.25-17.32a19.949,19.949,0,0,0-.138-6.947c-.721-.969-1.4-1.971-2.038-3.018C-1458.8,1048.993-1461.147,1054.737-1461.93,1060.873Z" transform="translate(1489.675 -1017.649)" fill="#f5c698"/>
        <path id="Path_7917" data-name="Path 7917" d="M-1624.33,1050.1s-3.58-9.2-1.927-16.246c0,0-2.981,10.953-2.687,13.665S-1624.33,1050.1-1624.33,1050.1Z" transform="translate(1634.288 -1009.824)" fill="#f5c698"/>
        <path id="Path_7918" data-name="Path 7918" d="M-1556.967,996.524c-4.9,11.7.854,19.468,3.146,30.337.552,2.62,1.1,5.9.05,8.481.751-3.046-.221-6.588-1.119-9.494C-1558.01,1015.75-1563.454,1007.306-1556.967,996.524Z" transform="translate(1574.333 -977.365)" fill="#f5c698"/>
        <g id="Group_4397" data-name="Group 4397" transform="translate(11.35 1.422)">
          <g id="Group_4393" data-name="Group 4393" transform="translate(9.856 0.348)">
            <path id="Path_7919" data-name="Path 7919" d="M-1507.244,867.476a.065.065,0,0,1-.062-.046.065.065,0,0,1,.042-.082,8.565,8.565,0,0,0,4.863-3.985.065.065,0,0,1,.089-.026.065.065,0,0,1,.026.089,8.7,8.7,0,0,1-4.938,4.047A.065.065,0,0,1-1507.244,867.476Z" transform="translate(1507.309 -863.329)" fill="#252b80"/>
          </g>
          <g id="Group_4394" data-name="Group 4394" transform="translate(4.962 0.422)">
            <path id="Path_7920" data-name="Path 7920" d="M-1543.348,874.986a.065.065,0,0,1-.05-.023c-1.471-1.749-2.033-4.76-.427-6.773a8.776,8.776,0,0,1,3.9-2.356,10.306,10.306,0,0,0,3.518-1.922.065.065,0,0,1,.092,0,.065.065,0,0,1,0,.092,10.4,10.4,0,0,1-3.561,1.95,8.681,8.681,0,0,0-3.846,2.317c-1.565,1.96-1.013,4.9.425,6.608a.065.065,0,0,1-.008.092A.066.066,0,0,1-1543.348,874.986Z" transform="translate(1544.795 -863.892)" fill="#252b80"/>
          </g>
          <g id="Group_4395" data-name="Group 4395" transform="translate(2.01 0.12)">
            <path id="Path_7921" data-name="Path 7921" d="M-1566.178,872.4a.065.065,0,0,1-.048-.021,5.151,5.151,0,0,1-.812-5.224,7.825,7.825,0,0,1,3.717-3.951,17.348,17.348,0,0,1,5.247-1.622.066.066,0,0,1,.075.053.065.065,0,0,1-.053.076,17.24,17.24,0,0,0-5.208,1.609,7.7,7.7,0,0,0-3.657,3.882,5.018,5.018,0,0,0,.787,5.09.065.065,0,0,1,0,.092A.065.065,0,0,1-1566.178,872.4Z" transform="translate(1567.403 -861.582)" fill="#252b80"/>
          </g>
          <g id="Group_4396" data-name="Group 4396">
            <path id="Path_7922" data-name="Path 7922" d="M-1582.057,870.193a.065.065,0,0,1-.055-.029,4.847,4.847,0,0,1-.18-4.667,7.623,7.623,0,0,1,3.421-3.33,18.542,18.542,0,0,1,4.578-1.5.065.065,0,0,1,.078.05.065.065,0,0,1-.05.078,18.425,18.425,0,0,0-4.546,1.492,7.494,7.494,0,0,0-3.364,3.27,4.714,4.714,0,0,0,.171,4.539.065.065,0,0,1-.018.09A.066.066,0,0,1-1582.057,870.193Z" transform="translate(1582.801 -860.662)" fill="#252b80"/>
          </g>
        </g>
        <g id="Group_4398" data-name="Group 4398" transform="translate(23.045 6.691)">
          <path id="Path_7923" data-name="Path 7923" d="M-1492.549,902.652a.261.261,0,0,1-.245-.17l-.415-1.11a.261.261,0,0,1,.153-.336.261.261,0,0,1,.336.153l.415,1.11a.261.261,0,0,1-.153.336A.259.259,0,0,1-1492.549,902.652Z" transform="translate(1493.225 -901.02)" fill="#080c53"/>
        </g>
        <path id="Path_7924" data-name="Path 7924" d="M-1486.042,926.061l1.3-.87s.479,1.458,0,1.806S-1486.042,926.061-1486.042,926.061Z" transform="translate(1510.024 -915.344)" fill="#defcff"/>
        <path id="Path_7925" data-name="Path 7925" d="M-1357.9,1107.726l-3.329,2.3,2.3-3.45Z" transform="translate(1401.502 -1073.053)" fill="#f5c698"/>
        <g id="Group_4399" data-name="Group 4399" transform="translate(7.337 37.154)">
          <rect id="Rectangle_532" data-name="Rectangle 532" width="1.762" height="24.674" transform="translate(20.622 34.009)" fill="#252b80"/>
          <rect id="Rectangle_533" data-name="Rectangle 533" width="0.653" height="24.674" transform="translate(20.622 34.009)" fill="#161c73"/>
          <path id="Rectangle_534" data-name="Rectangle 534" d="M0,0H9.3a0,0,0,0,1,0,0V4.651A4.651,4.651,0,0,1,4.651,9.3h0A4.651,4.651,0,0,1,0,4.651V0A0,0,0,0,1,0,0Z" transform="translate(16.836 26.959)" fill="#252b80"/>
          <path id="Path_7926" data-name="Path 7926" d="M-1476.165,1399.238h-7.539a.881.881,0,0,1-.881-.881v.914a.881.881,0,0,0,.881.881h7.539a.881.881,0,0,0,.881-.881v-.914A.881.881,0,0,1-1476.165,1399.238Z" transform="translate(1501.422 -1363.891)" fill="#161c73"/>
          <path id="Path_7927" data-name="Path 7927" d="M-1531.342,1560.668h-29.244l14.622-7.311Z" transform="translate(1567.5 -1498.656)" fill="#161c73"/>
          <path id="Path_7928" data-name="Path 7928" d="M-1604.247,1137.947a10.859,10.859,0,0,1,3.011-3.59h-11.182a1.125,1.125,0,0,0-1.075,1.455l7.843,25.5h13.144c-2.709-3.353-6.214-6.187-9-9.792C-1604.508,1147.739-1606.336,1142.647-1604.247,1137.947Z" transform="translate(1613.544 -1134.357)" fill="#161c73"/>
          <path id="Path_7929" data-name="Path 7929" d="M-1540.973,1135.137a1.125,1.125,0,0,0-1.071-.78h-3.252a10.859,10.859,0,0,0-3.011,3.59c-2.089,4.7-.261,9.791,2.741,13.578,2.786,3.6,6.29,6.438,9,9.792h4.024Z" transform="translate(1557.603 -1134.357)" fill="#252b80"/>
          <path id="Path_7930" data-name="Path 7930" d="M-1598.521,1135.075a1.125,1.125,0,0,1,1.071.78l8.2,25.461h1.289l-8.431-26.179a1.125,1.125,0,0,0-1.071-.78H-1611.9a1.122,1.122,0,0,0-1.047.718Z" transform="translate(1613.023 -1134.357)" fill="#161c73"/>
          <path id="Path_7931" data-name="Path 7931" d="M-1532.952,1334.207h-26.459a1.175,1.175,0,0,1-1.175-1.175h0a1.175,1.175,0,0,1,1.175-1.175h26.459a1.175,1.175,0,0,1,1.175,1.175h0A1.175,1.175,0,0,1-1532.952,1334.207Z" transform="translate(1567.5 -1306.073)" fill="#252b80"/>
          <path id="Path_7932" data-name="Path 7932" d="M-1532.952,1338.075h-26.459a1.175,1.175,0,0,1-1.083-.718,1.172,1.172,0,0,0-.092.457,1.175,1.175,0,0,0,1.175,1.175h26.459a1.175,1.175,0,0,0,1.175-1.175,1.172,1.172,0,0,0-.092-.457A1.175,1.175,0,0,1-1532.952,1338.075Z" transform="translate(1567.5 -1310.855)" fill="#161c73"/>
        </g>
        <g id="Group_4400" data-name="Group 4400" transform="translate(76.833 90.909)">
          <path id="Path_7933" data-name="Path 7933" d="M-1077.373,1550.482a.066.066,0,0,1-.031-.008.065.065,0,0,1-.026-.089l1.265-2.35-2.221,1.23a.065.065,0,0,1-.074-.008.065.065,0,0,1-.018-.072l.8-2.17-1.942,1.494a.066.066,0,0,1-.073,0,.066.066,0,0,1-.031-.067l.36-2.1-1.754,1.572a.065.065,0,0,1-.092,0,.066.066,0,0,1,0-.092l1.893-1.7a.066.066,0,0,1,.075-.008.065.065,0,0,1,.033.068l-.364,2.12,1.989-1.53a.065.065,0,0,1,.078,0,.066.066,0,0,1,.022.075l-.82,2.217,2.261-1.253a.065.065,0,0,1,.078.011.066.066,0,0,1,.012.078l-1.371,2.546A.065.065,0,0,1-1077.373,1550.482Z" transform="translate(1081.225 -1546.108)" fill="#252b80"/>
        </g>
      </g>
      <g id="Group_4407" data-name="Group 4407" transform="translate(-2061.499 375.664)">
        <g id="Group_4402" data-name="Group 4402" transform="translate(0 16.743)">
          <path id="Path_7934" data-name="Path 7934" d="M-1247.225,1127.923l7.442-10.733h9.574l-6.789,10.733Z" transform="translate(1249.27 -1117.191)" fill="#fff"/>
          <path id="Path_7935" data-name="Path 7935" d="M-1246.789,1192.349h-16.1v-1.208a1.284,1.284,0,0,1,1.284-1.284h13.534a1.284,1.284,0,0,1,1.284,1.284Z" transform="translate(1262.891 -1180.37)" fill="#d62b64"/>
          <path id="Path_7936" data-name="Path 7936" d="M-1260.432,1189.857h-1.175a1.284,1.284,0,0,0-1.284,1.284v1.208h1.175v-1.208A1.284,1.284,0,0,1-1260.432,1189.857Z" transform="translate(1262.891 -1180.37)" fill="#c71450"/>
        </g>
        <g id="Group_4406" data-name="Group 4406" transform="translate(83.297)">
          <g id="Group_4403" data-name="Group 4403">
            <rect id="Rectangle_535" data-name="Rectangle 535" width="32.377" height="21.157" rx="5.333" fill="#252b80"/>
            <path id="Path_7937" data-name="Path 7937" d="M-624.078,1009.4V989.639a.7.7,0,0,1,.7-.7h-.783a.7.7,0,0,0-.7.7V1009.4a.7.7,0,0,0,.7.7h.783A.7.7,0,0,1-624.078,1009.4Z" transform="translate(624.861 -988.943)" fill="#161c73"/>
            <path id="Path_7938" data-name="Path 7938" d="M-532.245,1081.307h-8.617l3.189-16.632a.9.9,0,0,1,.885-.731h6.782a.9.9,0,0,1,.885,1.07Z" transform="translate(551.827 -1054.151)" fill="#161c73"/>
            <path id="Path_7939" data-name="Path 7939" d="M-535.873,1063.943h-.914a.9.9,0,0,0-.885.731l-3.189,16.632h.914l3.189-16.632A.9.9,0,0,1-535.873,1063.943Z" transform="translate(551.827 -1054.151)" fill="#090d52"/>
            <path id="Path_7940" data-name="Path 7940" d="M-556.165,1191.554h-15.057a1.306,1.306,0,0,1-1.305-1.306h0a1.305,1.305,0,0,1,1.305-1.306h15.057a1.306,1.306,0,0,1,1.306,1.306h0A1.306,1.306,0,0,1-556.165,1191.554Z" transform="translate(579.36 -1162.832)" fill="#252b80"/>
            <path id="Path_7941" data-name="Path 7941" d="M-555.513,1191.563H-570.57a1.306,1.306,0,0,1-1.305-1.305,1.3,1.3,0,0,1,.207-.7,1.3,1.3,0,0,0-.86,1.226,1.306,1.306,0,0,0,1.305,1.306h15.057a1.3,1.3,0,0,0,1.1-.6A1.3,1.3,0,0,1-555.513,1191.563Z" transform="translate(579.36 -1163.364)" fill="#161c73"/>
          </g>
          <g id="Group_4404" data-name="Group 4404" transform="translate(3.086 3.992)">
            <path id="Path_7942" data-name="Path 7942" d="M-600.964,1029.042h0a.261.261,0,0,1-.261-.261v-9a.261.261,0,0,1,.261-.261h0a.261.261,0,0,1,.261.261v9A.261.261,0,0,1-600.964,1029.042Z" transform="translate(601.225 -1019.524)" fill="#161c73"/>
            <path id="Path_7943" data-name="Path 7943" d="M-593.464,1029.042h0a.261.261,0,0,1-.261-.261v-9a.261.261,0,0,1,.261-.261h0a.261.261,0,0,1,.261.261v9A.261.261,0,0,1-593.464,1029.042Z" transform="translate(594.704 -1019.524)" fill="#161c73"/>
            <path id="Path_7944" data-name="Path 7944" d="M-585.464,1029.042h0a.261.261,0,0,1-.261-.261v-9a.261.261,0,0,1,.261-.261h0a.261.261,0,0,1,.261.261v9A.261.261,0,0,1-585.464,1029.042Z" transform="translate(587.749 -1019.524)" fill="#161c73"/>
            <path id="Path_7945" data-name="Path 7945" d="M-577.464,1029.042h0a.261.261,0,0,1-.261-.261v-9a.261.261,0,0,1,.261-.261h0a.261.261,0,0,1,.261.261v9A.261.261,0,0,1-577.464,1029.042Z" transform="translate(580.793 -1019.524)" fill="#161c73"/>
            <path id="Path_7946" data-name="Path 7946" d="M-569.214,1029.042h0a.261.261,0,0,1-.261-.261v-9a.261.261,0,0,1,.261-.261h0a.261.261,0,0,1,.261.261v9A.261.261,0,0,1-569.214,1029.042Z" transform="translate(573.62 -1019.524)" fill="#161c73"/>
          </g>
          <g id="Group_4405" data-name="Group 4405" transform="translate(25.345 3.992)">
            <path id="Path_7947" data-name="Path 7947" d="M-430.464,1029.042h0a.261.261,0,0,1-.261-.261v-9a.261.261,0,0,1,.261-.261h0a.261.261,0,0,1,.261.261v9A.261.261,0,0,1-430.464,1029.042Z" transform="translate(430.725 -1019.524)" fill="#161c73"/>
            <path id="Path_7948" data-name="Path 7948" d="M-422.964,1029.042h0a.261.261,0,0,1-.261-.261v-9a.261.261,0,0,1,.261-.261h0a.261.261,0,0,1,.261.261v9A.261.261,0,0,1-422.964,1029.042Z" transform="translate(424.204 -1019.524)" fill="#161c73"/>
            <path id="Path_7949" data-name="Path 7949" d="M-414.964,1029.042h0a.261.261,0,0,1-.261-.261v-9a.261.261,0,0,1,.261-.261h0a.261.261,0,0,1,.261.261v9A.261.261,0,0,1-414.964,1029.042Z" transform="translate(417.249 -1019.524)" fill="#161c73"/>
            <path id="Path_7950" data-name="Path 7950" d="M-406.964,1029.042h0a.261.261,0,0,1-.261-.261v-9a.261.261,0,0,1,.261-.261h0a.261.261,0,0,1,.261.261v9A.261.261,0,0,1-406.964,1029.042Z" transform="translate(410.293 -1019.524)" fill="#161c73"/>
            <path id="Path_7951" data-name="Path 7951" d="M-398.714,1029.042h0a.261.261,0,0,1-.261-.261v-9a.261.261,0,0,1,.261-.261h0a.261.261,0,0,1,.261.261v9A.261.261,0,0,1-398.714,1029.042Z" transform="translate(403.12 -1019.524)" fill="#161c73"/>
          </g>
        </g>
      </g>
    </g>
  </g>
</svg>
